<?xml version="1.0" encoding="utf-8"?>
<!-- Generator: Adobe Illustrator 19.2.0, SVG Export Plug-In . SVG Version: 6.00 Build 0)  -->
<svg version="1.1" id="Layer_1" xmlns="http://www.w3.org/2000/svg" xmlns:xlink="http://www.w3.org/1999/xlink" x="0px" y="0px"
	 viewBox="0 0 400 400" style="enable-background:new 0 0 400 400;" xml:space="preserve">
<g>
	<path style="fill:#37B34A;" d="M200,40c-88.4,0-160,71.6-160,160s71.6,160,160,160s160-71.6,160-160S288.4,40,200,40z M200,340
		c-77.3,0-140-62.7-140-140S122.7,60,200,60s140,62.7,140,140S277.3,340,200,340z"/>
	<path style="fill:#37B34A;" d="M268,180h-48v-48c0-6.6-5.4-12-12-12h-16c-6.6,0-12,5.4-12,12v48h-48c-6.6,0-12,5.4-12,12v16
		c0,6.6,5.4,12,12,12h48v48c0,6.6,5.4,12,12,12h16c6.6,0,12-5.4,12-12v-48h48c6.6,0,12-5.4,12-12v-16C280,185.4,274.6,180,268,180z"
		/>
</g>
</svg>
