<?xml version="1.0" encoding="utf-8"?>
<!-- Generator: Adobe Illustrator 19.2.0, SVG Export Plug-In . SVG Version: 6.00 Build 0)  -->
<svg version="1.1" id="Layer_1" xmlns="http://www.w3.org/2000/svg" xmlns:xlink="http://www.w3.org/1999/xlink" x="0px" y="0px"
	 viewBox="0 0 400 400" style="enable-background:new 0 0 400 400;" xml:space="preserve">
<g>
	<g>
		<path style="fill:#58595B;" d="M114.5,223.3l-62.2,62.2c-17.1,17.1-17.1,45.1,0,62.2c17.1,17.1,45.1,17.1,62.2,0l62.2-62.2
			c17.1-17.1,17.1-45.1,0-62.2S131.6,206.2,114.5,223.3z M161.1,270L99,332.1c-8.6,8.6-22.5,8.6-31.1,0s-8.6-22.5,0-31.1l62.2-62.2
			c8.6-8.6,22.5-8.6,31.1,0C169.7,247.4,169.7,261.4,161.1,270z"/>
		<path style="fill:#58595B;" d="M285.5,52.3l-62.2,62.2c-17.1,17.1-17.1,45.1,0,62.2s45.1,17.1,62.2,0l62.2-62.2
			c17.1-17.1,17.1-45.1,0-62.2C330.6,35.2,302.6,35.2,285.5,52.3z M332.1,99L270,161.1c-8.6,8.6-22.5,8.6-31.1,0
			c-8.6-8.6-8.6-22.5,0-31.1L301,67.9c8.6-8.6,22.5-8.6,31.1,0S340.7,90.4,332.1,99z"/>
		<path style="fill:#404041;" d="M260.1,243.7l-96.6,21.4c-5.9,1.3-11.8-2.4-13.1-8.4l0,0c-1.3-5.9,2.4-11.8,8.4-13.1l53.7-11.9
			L260.1,243.7z"/>
		<path style="fill:#404041;" d="M202.9,183.3l53.8-11.4c5.9-1.3,9.7-7.1,8.5-13v0c-1.3-5.9-7.1-9.7-13-8.5l-96.8,20.5L202.9,183.3z
			"/>
	</g>
	<g>
		<polygon style="fill:#404041;" points="273.1,248.6 293.6,269.1 273.6,275.8 		"/>
		<polygon style="fill:#404041;" points="274.5,247.2 304,249.6 295.7,230 		"/>
	</g>
	<g>
		<polygon style="fill:#404041;" points="142.6,165.9 122.1,145.4 142.1,138.7 		"/>
		<polygon style="fill:#404041;" points="139.3,169.2 109.8,166.9 118,186.4 		"/>
	</g>
</g>
</svg>
