<?xml version="1.0" encoding="utf-8"?>
<!-- Generator: Adobe Illustrator 19.1.0, SVG Export Plug-In . SVG Version: 6.00 Build 0)  -->
<svg version="1.1" id="Layer_1" xmlns="http://www.w3.org/2000/svg" xmlns:xlink="http://www.w3.org/1999/xlink" x="0px" y="0px"
	 viewBox="0 0 400 400" style="enable-background:new 0 0 400 400;" xml:space="preserve">
<g>
	<path style="fill:#231F20;" d="M60,72.2v245l26.3,26.3h245l8.8-8.8V72.2l-8.8-8.8H68.7L60,72.2z M322.5,85.3h13.1v13.1h-13.1V85.3z
		 M64.4,85.3h13.1v13.1H64.4V85.3z"/>
	<path style="fill:#A6A8AB;" d="M266.3,247.2H133.7c-4.4,0-8.1,3.6-8.1,8.1v88.2h148.8v-88.2C274.4,250.8,270.7,247.2,266.3,247.2z
		 M147.5,257c0-0.6,0.5-1.1,1.1-1.1h37.2c0.6,0,1.1,0.5,1.1,1.1v67.9c0,0.6-0.5,1.1-1.1,1.1h-37.2c-0.6,0-1.1-0.5-1.1-1.1V257z"/>
	<path style="fill:#121112;" d="M284.3,190.3H115.7c-6.6,0-12-5.4-12-12V75.4c0-6.6,5.4-12,12-12h168.5c6.6,0,12,5.4,12,12v102.9
		C296.3,184.9,290.9,190.3,284.3,190.3z"/>
	<path style="fill:#F1F1F2;" d="M278.8,63.4v103.3c0,5.8-4.7,10.5-10.5,10.5H131.8c-5.8,0-10.5-4.7-10.5-10.5V63.4"/>
	<rect x="130" y="85.3" style="fill:#26A9E0;" width="140" height="4.4"/>
	<rect x="130" y="67.8" style="fill:#26A9E0;" width="140" height="4.4"/>
	<rect x="130" y="102.8" style="fill:#26A9E0;" width="140" height="4.4"/>
	<rect x="130" y="120.3" style="fill:#26A9E0;" width="140" height="4.4"/>
	<rect x="130" y="137.8" style="fill:#26A9E0;" width="140" height="4.4"/>
	<rect x="130" y="155.3" style="fill:#26A9E0;" width="140" height="4.4"/>
	<g>
		<path style="fill:#FFFFFF;" d="M317,192.8L238.8,57.3l-8-13.9l-8,13.9l-78.2,135.5l-8,13.9h16h41.8c-20.8,45.4-59.9,83.8-93,90.3
			l-24.2,4.7l21.3,12.4l67.9,39.4l5.3,3.1l4.9-3.6c0.9-0.6,21.3-15.9,41.6-42.6c11.9-15.7,21.4-32.2,28-48.9
			c7.1-18,11-36.4,11.6-54.8H309h16L317,192.8z"/>
		<g>
			<path style="fill:#EC1C24;" d="M308.6,197L230.4,61.5L152.2,197h55.7c-20.1,53.8-65.9,101-105.1,108.6l67.9,39.4
				c0,0,80-59.2,77.5-148.1H308.6z"/>
		</g>
	</g>
</g>
</svg>
