<?xml version="1.0" encoding="utf-8"?>
<!-- Generator: Adobe Illustrator 19.2.0, SVG Export Plug-In . SVG Version: 6.00 Build 0)  -->
<svg version="1.1" id="Layer_1" xmlns="http://www.w3.org/2000/svg" xmlns:xlink="http://www.w3.org/1999/xlink" x="0px" y="0px"
	 viewBox="0 0 400 400" style="enable-background:new 0 0 400 400;" xml:space="preserve">
<g>
	<polygon style="fill:#2488C9;" points="181.2,340.5 219.6,315 226.1,212.8 315.8,59.5 85,59.5 174.8,212.8 	"/>
	<path style="fill:#EC1C24;" d="M200,84.5c-66.3,0-120,53.7-120,120s53.7,120,120,120s120-53.7,120-120S266.3,84.5,200,84.5z
		 M200,104.5c24,0,46,8.5,63.3,22.6L122.6,267.8c-14.1-17.2-22.6-39.3-22.6-63.3C100,149.3,144.8,104.5,200,104.5z M200,304.5
		c-24,0-46-8.5-63.3-22.6l140.7-140.7c14.1,17.2,22.6,39.3,22.6,63.3C300,259.7,255.2,304.5,200,304.5z"/>
</g>
</svg>
