<?xml version="1.0" encoding="utf-8"?>
<!-- Generator: Adobe Illustrator 19.2.0, SVG Export Plug-In . SVG Version: 6.00 Build 0)  -->
<svg version="1.1" id="Layer_1" xmlns="http://www.w3.org/2000/svg" xmlns:xlink="http://www.w3.org/1999/xlink" x="0px" y="0px"
	 viewBox="0 0 320 213" style="enable-background:new 0 0 320 213;" xml:space="preserve">
<g>
	<path style="fill:#C96A18;" d="M0,0v213h320V0H0z M300,177.2c0,8.8-7.2,16-16,16H36c-8.8,0-16-7.2-16-16V35.9c0-8.8,7.2-16,16-16
		h248c8.8,0,16,7.2,16,16V177.2z"/>
	<path style="fill:#C96A18;" d="M100,81.4H43.9c-9.5,0-17.3,7.8-17.3,17.4v50.4c0,9.6,7.7,17.4,17.3,17.4H100
		c9.5,0,17.3-7.8,17.3-17.4V98.8C117.3,89.1,109.6,81.4,100,81.4z"/>
	<ellipse style="fill:#A1540B;" cx="72.6" cy="106.9" rx="17.4" ry="17.5"/>
	<path style="fill:#A1540B;" d="M98.7,166.5v-18h-0.2c-1.4-13.5-12.5-24-26-24s-24.5,10.5-26,24h-0.2v18H98.7z"/>
	<ellipse style="fill:#C96A18;" cx="270.9" cy="140" rx="11.7" ry="11.7"/>
	<path style="fill:#C96A18;" d="M288.4,179.7v-12h-0.1c-1-9-8.4-16-17.4-16s-16.5,7-17.4,16h-0.1v12H288.4z"/>
	<rect x="46.7" y="33.4" style="fill:#C96A18;" width="240" height="20"/>
	<rect x="133.3" y="79.9" style="fill:#C96A18;" width="153.3" height="13.3"/>
	<rect x="133.3" y="118.2" style="fill:#C96A18;" width="120" height="13.3"/>
	<rect x="133.3" y="159.8" style="fill:#C96A18;" width="106.7" height="13.3"/>
</g>
</svg>
