<?xml version="1.0" encoding="utf-8"?>
<!-- Generator: Adobe Illustrator 19.1.0, SVG Export Plug-In . SVG Version: 6.00 Build 0)  -->
<svg version="1.1" id="Layer_1" xmlns="http://www.w3.org/2000/svg" xmlns:xlink="http://www.w3.org/1999/xlink" x="0px" y="0px"
	 viewBox="0 0 400 400" style="enable-background:new 0 0 400 400;" xml:space="preserve">
<g>
	<rect class="icon-back" style="fill:#A3928C;" width="400" height="400"/>
	<g>
		<path style="fill:#FFFFFF;" d="M143.6,274.2c-19.5,0-34.6-4.7-45.1-14.2c-10.5-9.4-15.8-23.2-15.8-41.4v-92.9h36.5v90.7
			c0,10.1,1.9,17.6,5.7,22.6c3.8,4.9,10,7.4,18.6,7.4c8.4,0,14.6-2.4,18.5-7.1c3.9-4.8,5.9-12.4,5.9-22.9v-90.7h36.5v92.8
			c0,17.9-5.1,31.7-15.4,41.3C178.9,269.4,163.7,274.2,143.6,274.2z"/>
		<path style="fill:#FFFFFF;" d="M264,274.2c-8.1,0-15.7-0.9-22.9-2.6c-7.2-1.8-13.1-3.8-17.8-6.2v-28.9h2.8
			c1.6,1.2,3.5,2.6,5.6,4.1c2.1,1.5,5,3.1,8.7,4.7c3.2,1.5,6.8,2.8,10.8,3.9s8.3,1.6,13,1.6c4.8,0,9.1-0.7,12.7-2.2s5.5-3.9,5.5-7.1
			c0-2.5-0.8-4.5-2.5-5.8s-5-2.5-9.9-3.7c-2.6-0.7-5.9-1.4-9.9-2.1s-7.5-1.6-10.5-2.6c-8.6-2.7-15.1-6.6-19.4-11.9
			c-4.3-5.2-6.5-12.1-6.5-20.7c0-4.9,1.1-9.5,3.4-13.8s5.6-8.2,9.9-11.6c4.4-3.3,9.7-6,16.2-7.9s13.7-2.9,21.7-2.9
			c7.7,0,14.7,0.8,21.2,2.3s11.9,3.4,16.3,5.5V194h-2.7c-1.2-0.9-3-2.1-5.6-3.7s-5-2.8-7.4-4c-2.9-1.3-6.1-2.4-9.6-3.2
			s-7.2-1.3-10.9-1.3c-4.9,0-9.1,0.8-12.5,2.5s-5.1,3.9-5.1,6.7c0,2.5,0.8,4.4,2.5,5.9s5.4,2.8,11,4.2c2.9,0.7,6.3,1.4,10.1,2.1
			s7.5,1.6,11,2.8c7.9,2.5,13.9,6.3,17.9,11.2s6.1,11.4,6.1,19.6c0,5.1-1.2,10-3.6,14.7c-2.4,4.7-5.8,8.6-10.3,11.8
			c-4.7,3.5-10.2,6.1-16.6,8S272.9,274.2,264,274.2z"/>
	</g>
</g>
</svg>
