<?xml version="1.0" encoding="utf-8"?>
<!-- Generator: Adobe Illustrator 19.1.0, SVG Export Plug-In . SVG Version: 6.00 Build 0)  -->
<svg version="1.1" id="Layer_1" xmlns="http://www.w3.org/2000/svg" xmlns:xlink="http://www.w3.org/1999/xlink" x="0px" y="0px"
	 viewBox="0 0 400 400" style="enable-background:new 0 0 400 400;" xml:space="preserve">
<g>
	<rect x="0" style="fill:#2E2A33;" width="400" height="400"/>
	<g>
		<path style="fill:#FFFFFF;" d="M245.4,144.5L216,260.8h-32l-18.7-72l-18.1,72h-32L85.7,144.5H116l16,78l19.5-78h29l18.5,78
			l16.9-78H245.4z"/>
		<path style="fill:#FFFFFF;" d="M314.3,159.9h-2.1c-1-0.3-2.7-0.7-4.9-1.2c-2.2-0.5-4.3-0.7-6.3-0.7c-5.5,0-9.3,1-11.3,3
			c-2,2-3,5.8-3,11.4v0.7h21.7v19.1h-20.8v68.7h-27.3v-68.7h-10.9v-19.1h10.9v-2.4c0-10.7,2.8-18.8,8.4-24.1c5.6-5.4,14.1-8,25.5-8
			c4,0,7.7,0.1,11.1,0.4c3.4,0.3,6.4,0.7,8.9,1.1V159.9z"/>
	</g>
</g>
</svg>
