<?xml version="1.0" encoding="utf-8"?>
<!-- Generator: Adobe Illustrator 19.1.0, SVG Export Plug-In . SVG Version: 6.00 Build 0)  -->
<svg version="1.1" id="Layer_1" xmlns="http://www.w3.org/2000/svg" xmlns:xlink="http://www.w3.org/1999/xlink" x="0px" y="0px"
	 viewBox="0 0 400 400" style="enable-background:new 0 0 400 400;" xml:space="preserve">
<g>
	<rect class="icon-back" style="fill:#A3A28B;" width="400" height="400"/>
	<g>
		<path style="fill:#FFFFFF;" d="M256.8,131.1L220,276.5h-40l-23.3-89.9l-22.7,89.9h-40L57.1,131.1H95l20,97.6l24.4-97.6h36.2
			l23.1,97.6l21.1-97.6H256.8z"/>
		<path style="fill:#FFFFFF;" d="M342.9,150.3h-2.6c-1.3-0.4-3.3-0.9-6.1-1.5s-5.4-0.9-7.9-0.9c-6.9,0-11.6,1.3-14.1,3.8
			s-3.8,7.3-3.8,14.3v0.9h27.1v23.8h-26v85.8h-34.2v-85.8h-13.7v-23.8h13.7v-3c0-13.4,3.5-23.5,10.5-30.2c7-6.7,17.7-10.1,31.9-10.1
			c4.9,0,9.6,0.2,13.9,0.5s8,0.8,11.1,1.4V150.3z"/>
	</g>
</g>
</svg>
