<?xml version="1.0" encoding="utf-8"?>
<!-- Generator: Adobe Illustrator 19.2.0, SVG Export Plug-In . SVG Version: 6.00 Build 0)  -->
<svg version="1.1" id="Layer_1" xmlns="http://www.w3.org/2000/svg" xmlns:xlink="http://www.w3.org/1999/xlink" x="0px" y="0px"
	 viewBox="0 0 400 400" style="enable-background:new 0 0 400 400;" xml:space="preserve">
<g>
	<rect style="fill:#2E2A33;" width="400" height="400"/>
	<g>
		<path style="fill:#FFFFFF;" d="M210.2,251.1h-44.6L125,197.7h-13.1v53.4H75.5V105.4h58.6c8.1,0,15.1,0.5,21.1,1.5
			c6,1,11.5,3.1,16.6,6.3c5.2,3.3,9.4,7.5,12.4,12.7c3.1,5.1,4.6,11.6,4.6,19.5c0,11.1-2.5,20.2-7.5,27.1
			c-5,6.9-11.7,12.5-20.1,16.6L210.2,251.1z M151.3,150c0-3.7-0.7-6.8-2.1-9.4c-1.4-2.6-3.7-4.7-7-6.1c-2.3-1-4.8-1.6-7.6-1.9
			c-2.8-0.3-6.3-0.4-10.5-0.4h-12.2v39.2h10.5c5.1,0,9.4-0.3,13-0.9c3.6-0.6,6.6-1.9,9-4c2.3-1.8,4.1-4,5.2-6.6
			C150.8,157.5,151.3,154.1,151.3,150z"/>
		<path style="fill:#FFFFFF;" d="M324.5,196.2c0,18.1-4.9,32.3-14.8,42.7c-9.9,10.4-23.9,15.6-41.9,15.6c-17.9,0-31.9-5.2-41.8-15.6
			c-9.9-10.4-14.9-24.6-14.9-42.7c0-18.3,5-32.6,14.9-42.9c9.9-10.3,23.9-15.5,41.8-15.5c18,0,32,5.2,41.9,15.6
			C319.5,163.8,324.5,178.1,324.5,196.2z M289.4,196.4c0-6.5-0.5-11.9-1.6-16.3c-1.1-4.3-2.6-7.8-4.5-10.4c-2-2.7-4.3-4.6-6.8-5.7
			c-2.5-1.1-5.4-1.6-8.7-1.6c-3.1,0-5.8,0.5-8.3,1.4c-2.5,0.9-4.8,2.8-6.8,5.4c-2,2.5-3.5,6-4.7,10.5c-1.2,4.4-1.8,10-1.8,16.7
			c0,6.7,0.6,12.1,1.7,16.3c1.1,4.1,2.5,7.5,4.3,9.9c1.8,2.5,4.1,4.4,6.8,5.6c2.7,1.2,5.8,1.8,9.1,1.8c2.7,0,5.5-0.6,8.4-1.8
			c2.8-1.2,5.1-2.9,6.8-5.3c2-2.8,3.6-6.2,4.6-10.1C288.8,208.8,289.4,203.4,289.4,196.4z"/>
	</g>
</g>
</svg>
