<?xml version="1.0" encoding="utf-8"?>
<!-- Generator: Adobe Illustrator 19.1.0, SVG Export Plug-In . SVG Version: 6.00 Build 0)  -->
<svg version="1.1" id="Layer_1" xmlns="http://www.w3.org/2000/svg" xmlns:xlink="http://www.w3.org/1999/xlink" x="0px" y="0px"
	 viewBox="0 0 400 400" style="enable-background:new 0 0 400 400;" xml:space="preserve">
<g>
	<rect x="0" style="fill:#2E2A33;" width="400" height="400"/>
	<g>
		<path style="fill:#FFFFFF;" d="M191,251.6H93.9V106.2h36.5v117.7H191V251.6z"/>
		<path style="fill:#FFFFFF;" d="M306.1,239c0,10.2-1.5,18.8-4.4,25.9c-2.9,7.1-6.9,12.6-12,16.6c-5.1,4-11.2,6.9-18.3,8.7
			c-7.1,1.8-15,2.7-23.6,2.7c-7.3,0-14.2-0.5-20.8-1.4c-6.5-0.9-12.2-2-17-3.3v-27.4h4c1.7,0.7,3.7,1.4,6,2.1c2.3,0.8,4.6,1.5,7,2.1
			c2.8,0.7,5.5,1.3,8.2,1.8c2.7,0.5,5.4,0.7,8.2,0.7c5.8,0,10.6-0.6,14.5-1.8c3.9-1.2,6.8-2.9,8.7-5.1c2-2.3,3.3-5,4.1-8.1
			c0.8-3.1,1.2-7,1.2-11.7v-2.1c-3.8,3.4-8.3,6.1-13.3,8.2c-5,2.1-10.2,3.1-15.6,3.1c-14.2,0-25.1-4.6-32.9-13.9
			c-7.7-9.2-11.6-23.3-11.6-42.2c0-8.6,1.2-16.3,3.6-23.1c2.4-6.8,5.7-12.7,9.9-17.5c4-4.6,8.9-8.2,14.6-10.7
			c5.7-2.5,11.7-3.8,17.9-3.8c5.6,0,10.6,0.7,15,2.1c4.4,1.4,8.5,3.4,12.1,5.8l1.3-4.9h33.1V239z M271.9,217.1v-49.7
			c-1.7-0.8-3.8-1.4-6.3-2c-2.5-0.5-4.9-0.8-7.4-0.8c-8.2,0-14.4,2.7-18.5,8c-4.1,5.3-6.2,12.7-6.2,22.2c0,4.8,0.3,8.8,0.9,12.1
			c0.6,3.3,1.8,6.2,3.5,8.7c1.6,2.5,3.8,4.3,6.4,5.6s6,1.9,10.1,1.9c3.1,0,6.1-0.5,9-1.6C266.4,220.5,269.3,219,271.9,217.1z"/>
	</g>
</g>
</svg>
