<?xml version="1.0" encoding="utf-8"?>
<!-- Generator: Adobe Illustrator 19.1.0, SVG Export Plug-In . SVG Version: 6.00 Build 0)  -->
<svg version="1.1" id="Layer_1" xmlns="http://www.w3.org/2000/svg" xmlns:xlink="http://www.w3.org/1999/xlink" x="0px" y="0px"
	 viewBox="0 0 400 400" style="enable-background:new 0 0 400 400;" xml:space="preserve">
<g>
	<path style="fill:#A9C77E;" d="M348,255H52c-6.6,0-12-5.4-12-12V137c0-6.6,5.4-12,12-12h296c6.6,0,12,5.4,12,12v106
		C360,249.6,354.6,255,348,255z"/>
	<circle style="fill:#F48020;" cx="331.6" cy="150.8" r="13.2"/>
	<circle style="fill:#58595B;" cx="298.7" cy="150.8" r="13.2"/>
	<path style="fill:#58595B;" d="M71.8,163.9h170.8c5.5,0,10-4.5,10-10v-6.3c0-5.5-4.5-10-10-10H71.8c-5.5,0-10,4.5-10,10v6.3
		C61.8,159.4,66.3,163.9,71.8,163.9z"/>
	<rect x="65" y="255" style="fill:#94A67B;" width="270" height="30"/>
	<polygon style="fill:#FFFFFF;" points="280,230 120,230 105,335 295,335 	"/>
	<path style="fill:#00ADEE;" d="M260,321.8H140c-2.8,0-5-2.3-5-5v-3.2c0-2.8,2.2-5,5-5h120c2.8,0,5,2.3,5,5v3.2
		C265,319.6,262.8,321.8,260,321.8z"/>
	<path style="fill:#00ADEE;" d="M250,288.9H150c-2.8,0-5-2.3-5-5v-3.2c0-2.8,2.2-5,5-5h100c2.8,0,5,2.3,5,5v3.2
		C255,286.7,252.8,288.9,250,288.9z"/>
	<path style="fill:#00ADEE;" d="M245,256.1h-90c-2.8,0-5-2.3-5-5v-3.2c0-2.8,2.2-5,5-5h90c2.8,0,5,2.3,5,5v3.2
		C250,253.8,247.8,256.1,245,256.1z"/>
	<polygon style="fill:#FFFFFF;" points="120,65 120,125 280,125 280,90 255,65 	"/>
	<polygon style="fill:#2488C9;" points="255,65 255,90 280,90 	"/>
</g>
</svg>
