<?xml version="1.0" encoding="utf-8"?>
<!-- Generator: Adobe Illustrator 19.2.1, SVG Export Plug-In . SVG Version: 6.00 Build 0)  -->
<svg version="1.1" id="Layer_1" xmlns="http://www.w3.org/2000/svg" xmlns:xlink="http://www.w3.org/1999/xlink" x="0px" y="0px"
	 viewBox="0 0 400 400" style="enable-background:new 0 0 400 400;" xml:space="preserve">
<g>
	<path style="fill:#A9C77E;" d="M358,275H62c-6.6,0-12-5.4-12-12V157c0-6.6,5.4-12,12-12h296c6.6,0,12,5.4,12,12v106
		C370,269.6,364.6,275,358,275z"/>
	<circle style="fill:#F48020;" cx="341.6" cy="170.8" r="13.2"/>
	<circle style="fill:#58595B;" cx="308.7" cy="170.8" r="13.2"/>
	<path style="fill:#58595B;" d="M81.8,183.9h170.8c5.5,0,10-4.5,10-10v-6.3c0-5.5-4.5-10-10-10H81.8c-5.5,0-10,4.5-10,10v6.3
		C71.8,179.4,76.3,183.9,81.8,183.9z"/>
	<rect x="75" y="275" style="fill:#94A67B;" width="270" height="30"/>
	<polygon style="fill:#FFFFFF;" points="290,250 130,250 115,355 305,355 	"/>
	<path style="fill:#00ADEE;" d="M270,341.8H150c-2.8,0-5-2.3-5-5v-3.2c0-2.8,2.3-5,5-5h120c2.8,0,5,2.3,5,5v3.2
		C275,339.6,272.8,341.8,270,341.8z"/>
	<path style="fill:#00ADEE;" d="M260,308.9H160c-2.8,0-5-2.3-5-5v-3.2c0-2.8,2.3-5,5-5h100c2.8,0,5,2.3,5,5v3.2
		C265,306.7,262.8,308.9,260,308.9z"/>
	<path style="fill:#00ADEE;" d="M255,276.1h-90c-2.8,0-5-2.3-5-5v-3.2c0-2.8,2.3-5,5-5h90c2.8,0,5,2.3,5,5v3.2
		C260,273.8,257.8,276.1,255,276.1z"/>
	<polygon style="fill:#FFFFFF;" points="130,85 130,145 290,145 290,110 265,85 	"/>
	<polygon style="fill:#2488C9;" points="265,85 265,110 290,110 	"/>
	<g>
		<path style="fill:#EC1C24;stroke:#FFFFFF;stroke-width:8;stroke-miterlimit:10;" d="M208.8,95.2l10.3-10.3l-56.8-15.2l15.2,56.8
			l10.8-10.8c2.9,7.6,4.5,15.8,4.5,24.4c0,37.5-30.4,67.9-67.9,67.9c-8.8,0-17.1-1.7-24.8-4.7l-20.4,20.4
			c13.4,7.3,28.8,11.4,45.2,11.4c52.5,0,95-42.5,95-95C220,123.8,215.9,108.5,208.8,95.2z"/>
		<path style="fill:#EC1C24;stroke:#FFFFFF;stroke-width:8;stroke-miterlimit:10;" d="M125,45c-52.5,0-95,42.5-95,95
			c0,16.2,4.1,31.5,11.2,44.8l-10.3,10.3l56.8,15.2l-15.2-56.8l-10.8,10.8c-2.9-7.6-4.5-15.8-4.5-24.4c0-37.5,30.4-67.9,67.9-67.9
			c8.8,0,17.1,1.7,24.8,4.7l20.4-20.4C156.8,49.1,141.4,45,125,45z"/>
	</g>
</g>
</svg>
