<?xml version="1.0" encoding="utf-8"?>
<!-- Generator: Adobe Illustrator 19.2.0, SVG Export Plug-In . SVG Version: 6.00 Build 0)  -->
<svg version="1.1" id="Layer_1" xmlns="http://www.w3.org/2000/svg" xmlns:xlink="http://www.w3.org/1999/xlink" x="0px" y="0px"
	 viewBox="0 0 400 400" style="enable-background:new 0 0 400 400;" xml:space="preserve">
<g>
	<path style="fill:#231F20;" d="M40,50v280l30,30h280l10-10V50l-10-10H50L40,50z M340,65h15v15h-15V65z M45,65h15v15H45V65z"/>
	<path style="fill:#A6A8AB;" d="M275.8,250H124.2c-5.1,0-9.2,4.1-9.2,9.2V360h170V259.2C285,254.1,280.9,250,275.8,250z M140,261.2
		c0-0.7,0.6-1.2,1.2-1.2h42.6c0.7,0,1.2,0.6,1.2,1.2v77.6c0,0.7-0.6,1.2-1.2,1.2h-42.6c-0.7,0-1.2-0.6-1.2-1.2V261.2z"/>
	<path style="fill:#121112;" d="M298,185H102c-6.6,0-12-5.4-12-12V52c0-6.6,5.4-12,12-12h196c6.6,0,12,5.4,12,12v121
		C310,179.6,304.6,185,298,185z"/>
	<path style="fill:#F1F1F2;" d="M290,40v118c0,6.6-5.4,12-12,12H122c-6.6,0-12-5.4-12-12V40"/>
	<rect x="120" y="65" style="fill:#26A9E0;" width="160" height="5"/>
	<rect x="120" y="45" style="fill:#26A9E0;" width="160" height="5"/>
	<rect x="120" y="85" style="fill:#26A9E0;" width="160" height="5"/>
	<rect x="120" y="105" style="fill:#26A9E0;" width="160" height="5"/>
	<rect x="120" y="125" style="fill:#26A9E0;" width="160" height="5"/>
	<rect x="120" y="145" style="fill:#26A9E0;" width="160" height="5"/>
</g>
</svg>
