<?xml version="1.0" encoding="utf-8"?>
<!-- Generator: Adobe Illustrator 19.2.0, SVG Export Plug-In . SVG Version: 6.00 Build 0)  -->
<svg version="1.1" id="Layer_1" xmlns="http://www.w3.org/2000/svg" xmlns:xlink="http://www.w3.org/1999/xlink" x="0px" y="0px"
	 viewBox="0 0 400 400" style="enable-background:new 0 0 400 400;" xml:space="preserve">
<g>
	<polygon style="fill:#2488C9;" points="198.6,40 38.6,200 78.6,200 78.6,360 318.6,360 318.6,200 358.6,200 	"/>
	<polygon style="fill:#2488C9;" points="198.6,40 38.6,200 78.6,200 78.6,360 318.6,360 318.6,200 358.6,200 	"/>
	<polygon style="fill:#FFFFFF;" points="98.6,170 198.6,70 298.6,170 298.6,340 98.6,340 	"/>
	<g>
		<path style="fill:#FFFFFF;" d="M326,90.4l25.7,25.7L152.5,315.3L73.2,236L99,210.3l53.6,53.6L326,90.4 M326,80.7l-4.8,4.8
			L152.5,254.2l-48.7-48.7l-4.8-4.8l-4.8,4.8l-25.7,25.7l-4.8,4.8l4.8,4.8l79.3,79.3l4.8,4.8l4.8-4.8l199.2-199.2l4.8-4.8l-4.8-4.8
			l-25.7-25.7L326,80.7L326,80.7z M321.2,85.5L152.5,254.2"/>
		<polygon style="fill:#19B14B;" points="152.5,263.9 99,210.3 73.2,236 152.5,315.3 351.8,116.1 326,90.4 		"/>
	</g>
</g>
</svg>
