<?xml version="1.0" encoding="utf-8"?>
<!-- Generator: Adobe Illustrator 19.2.0, SVG Export Plug-In . SVG Version: 6.00 Build 0)  -->
<svg version="1.1" id="Layer_1" xmlns="http://www.w3.org/2000/svg" xmlns:xlink="http://www.w3.org/1999/xlink" x="0px" y="0px"
	 viewBox="0 0 400 400" style="enable-background:new 0 0 400 400;" xml:space="preserve">
<g>
	<path style="fill:#58595B;" d="M115.7,223l-61.3,61.3c-16.9,16.9-16.9,44.5,0,61.3s44.5,16.9,61.3,0l61.3-61.3
		c16.9-16.9,16.9-44.5,0-61.3S132.5,206.1,115.7,223z M161.7,269l-61.3,61.3c-8.4,8.4-22.2,8.4-30.7,0c-8.4-8.4-8.4-22.2,0-30.7
		l61.3-61.3c8.4-8.4,22.2-8.4,30.7,0S170.1,260.6,161.7,269z"/>
	<path style="fill:#58595B;" d="M284.3,54.4L223,115.7c-16.9,16.9-16.9,44.5,0,61.3s44.5,16.9,61.3,0l61.3-61.3
		c16.9-16.9,16.9-44.5,0-61.3S301.2,37.5,284.3,54.4z M330.3,100.4L269,161.7c-8.4,8.4-22.2,8.4-30.7,0s-8.4-22.2,0-30.7l61.3-61.3
		c8.4-8.4,22.2-8.4,30.7,0C338.7,78.1,338.7,91.9,330.3,100.4z"/>
	<path style="fill:#404041;" d="M261.3,154L154,261.3c-4.2,4.2-11.1,4.2-15.3,0l0,0c-4.2-4.2-4.2-11.1,0-15.3L246,138.7
		c4.2-4.2,11.1-4.2,15.3,0l0,0C265.5,142.9,265.5,149.8,261.3,154z"/>
</g>
</svg>
