<?xml version="1.0" encoding="utf-8"?>
<!-- Generator: Adobe Illustrator 19.1.0, SVG Export Plug-In . SVG Version: 6.00 Build 0)  -->
<svg version="1.1" id="Layer_1" xmlns="http://www.w3.org/2000/svg" xmlns:xlink="http://www.w3.org/1999/xlink" x="0px" y="0px"
	 viewBox="0 0 400 400" style="enable-background:new 0 0 400 400;" xml:space="preserve">
<g>
	<path style="fill:#C5C7C9;" d="M333,250.6H67c-6.6,0-12-5.4-12-12v-84.3c0-6.6,5.4-12,12-12h266c6.6,0,12,5.4,12,12v84.3
		C345,245.2,339.6,250.6,333,250.6z"/>
	<polygon style="fill:#BBBDBF;" points="333,142.2 343,135 57,135 67,142.2 	"/>
	<path style="fill:#999999;" d="M45,147c0-0.4,0-0.8,0.1-1.2C45,146.2,45,146.6,45,147z"/>
	<polygon style="fill:#A6A8AB;" points="345,154.2 345,238.6 355,253 355,147 	"/>
	<polygon style="fill:#929497;" points="67,250.6 57,265 343,265 333,250.6 	"/>
	<polygon style="fill:#999999;" points="55,154.2 45,147 45,253 55,238.6 	"/>
	<path style="fill:#BBBDBF;" d="M59.4,247.8c-2.7-2.2-4.4-5.5-4.4-9.3L45,253c0,6.6,5.4,12,12,12l10-14.4
		C63.5,250.4,61.8,249.4,59.4,247.8z"/>
	<path style="fill:#A6A8AB;" d="M340.6,247.8c-2.2,1.6-4.2,2.5-7.6,2.7l10,14.4c6.6,0,12-5.4,12-12l-10-14.4
		C345,242.3,343.3,245.6,340.6,247.8z"/>
	<path style="fill:#D0D2D3;" d="M55.1,153c0-0.3,0.1-0.6,0.1-1c0-0.1,0-0.1,0-0.2c1.2-5.9,6.7-9.8,11.8-9.6L57,135
		c-0.4,0-0.8,0-1.1,0.1c-1.8,0.2-3.6,0.8-5.1,1.7c-0.1,0-0.1,0.1-0.2,0.1c-0.2,0.1-0.4,0.2-0.5,0.4c-0.2,0.1-0.4,0.3-0.5,0.4
		c-0.1,0-0.1,0.1-0.2,0.1c-2.3,2-3.9,4.8-4.2,7.9c0,0.4-0.1,0.8-0.1,1.2l10,7.2C55,153.8,55,153.4,55.1,153z"/>
	<path style="fill:#D0D2D3;" d="M344.8,151.8c0,0.1,0,0.1,0,0.2c0.1,0.3,0.1,0.6,0.1,1c0,0.4,0.1,0.8,0.1,1.3l10-7.2
		c0-0.4,0-0.8-0.1-1.2c-0.3-3.2-1.9-6-4.2-7.9c-0.1,0-0.1-0.1-0.2-0.1c-0.2-0.1-0.4-0.3-0.5-0.4c-0.2-0.1-0.3-0.3-0.5-0.4
		c-0.1,0-0.1-0.1-0.2-0.1c-1.6-1-3.3-1.6-5.1-1.7c-0.4,0-0.8-0.1-1.1-0.1l-10,7.2C338.1,142,343.5,145.9,344.8,151.8z"/>
	<text transform="matrix(1 0 0 1 64.7548 189.2241)" style="fill:#2488C9; font-family:'Corbel-Bold'; font-size:48px;">button</text>
</g>
</svg>
