<?xml version="1.0" encoding="utf-8"?>
<!-- Generator: Adobe Illustrator 19.2.0, SVG Export Plug-In . SVG Version: 6.00 Build 0)  -->
<svg version="1.1" id="Layer_1" xmlns="http://www.w3.org/2000/svg" xmlns:xlink="http://www.w3.org/1999/xlink" x="0px" y="0px"
	 viewBox="0 0 400 400" style="enable-background:new 0 0 400 400;" xml:space="preserve">
<g>
	<g>
		<path style="fill:#8A5D3B;" d="M300.7,303.3L300.7,303.3c2.9-1.1,4.3-4.3,3.2-7.2L217,70c-1.1-2.9-4.3-4.3-7.2-3.2h0
			c-2.9,1.1-4.3,4.3-3.2,7.2l86.9,226.1C294.6,303,297.8,304.4,300.7,303.3z"/>
		<path style="fill:#2488C9;" d="M207.6,76.6l17.9,46.6c-38.1-8.5-85.2,57.4-123,20.5C157,147,168.8,81.6,207.6,76.6z"/>
	</g>
	<g>
		<path style="fill:#6D6E70;" d="M47.5,283.5v15c0,8.3,17.9,15,40,15s40-6.7,40-15v-15H47.5z"/>
		<path style="fill:#6D6E70;" d="M87.5,243.5v15c0,8.3,17.9,15,40,15s40-6.7,40-15v-15H87.5z"/>
		<polygon style="fill:#58595B;" points="127.5,298.5 157.5,268.5 157.6,253.4 127.5,283.5 		"/>
		<path style="fill:#929497;" d="M167.5,243.5c0-8.3-17.9-15-40-15c-22.1,0-40,6.7-40,15l-30.1,30.1c-6.1,2.6-9.9,6.1-9.9,9.9
			c0,8.3,17.9,15,40,15c22.1,0,40-6.7,40-15l30.1-30.1C163.8,250.7,167.5,247.3,167.5,243.5z"/>
	</g>
	<g>
		<rect x="67.5" y="169.5" style="fill:#F48020;" width="35" height="119"/>
		<polygon style="fill:#D86E27;" points="107.5,282.6 102.5,288.5 102.5,169.5 107.5,163.5 		"/>
		<polygon style="fill:#F4802A;" points="72.5,163.5 107.5,163.5 102.5,169.5 67.5,169.5 		"/>
	</g>
	<g>
		<rect x="112.5" y="208.5" style="fill:#EC1C24;" width="240" height="5"/>
		<rect x="52.5" y="193.5" style="fill:#FFFFFF;stroke:#E6E7E8;stroke-width:4;stroke-miterlimit:10;" width="300" height="15"/>
		<rect x="117.5" y="198.5" style="fill:#EC1C24;" width="35" height="5"/>
		<rect x="202.5" y="198.5" style="fill:#EC1C24;" width="35" height="5"/>
		<rect x="287.5" y="198.5" style="fill:#EC1C24;" width="35" height="5"/>
		<rect x="77.5" y="188.5" style="fill:#6D6E70;" width="10" height="5"/>
		<rect x="77.5" y="208.5" style="fill:#6D6E70;" width="10" height="5"/>
	</g>
	<polygon style="fill:#DC8026;" points="178.3,333.5 258.3,333.5 253.3,293.5 183.3,293.5 	"/>
	<ellipse style="fill:#F6921E;" cx="218.1" cy="316.9" rx="34.8" ry="11.6"/>
	<polygon style="fill:#F6921E;" points="204.2,228.8 183.3,316.9 252.9,316.9 232,228.8 	"/>
	<ellipse style="fill:#DC8026;" cx="218.1" cy="228.8" rx="13.9" ry="4.6"/>
	<ellipse style="fill:#F6921E;" cx="218.1" cy="228.8" rx="9.3" ry="2.3"/>
	<path style="fill:#E6E7E8;" d="M244,279.3L244,279.3L244,279.3c0-0.1,0-0.2-0.1-0.3l-2.8-11.8h0c0.1,0.5,0.2,1,0.2,1.5
		c0,6.4-10.4,11.6-23.3,11.6s-23.3-5.2-23.3-11.6c0-0.5,0.1-1,0.2-1.5h0l-2.8,11.7c0,0.1-0.1,0.2-0.1,0.3l0,0.1l0,0
		c-0.1,0.3-0.1,0.6-0.1,0.9c0,6.4,11.6,11.6,26,11.6s26-5.2,26-11.6C244.1,279.9,244.1,279.6,244,279.3z"/>
	<path style="fill:#E6E7E8;" d="M238.2,254.8L238.2,254.8l-2.1-9h0c0,0.1,0,0.3,0,0.4c0,3.3-8.1,6-18,6s-18-2.7-18-6
		c0-0.1,0-0.3,0-0.4h0l-2.1,9h0c0,0.1,0,0.2,0,0.3c0,3.3,9,6,20.2,6c11.1,0,20.2-2.7,20.2-6C238.3,255,238.3,254.9,238.2,254.8z"/>
</g>
</svg>
