<?xml version="1.0" encoding="utf-8"?>
<!-- Generator: Adobe Illustrator 19.1.0, SVG Export Plug-In . SVG Version: 6.00 Build 0)  -->
<svg version="1.1" id="Layer_1" xmlns="http://www.w3.org/2000/svg" xmlns:xlink="http://www.w3.org/1999/xlink" x="0px" y="0px"
	 viewBox="0 0 400 400" style="enable-background:new 0 0 400 400;" xml:space="preserve">
<g>
	<rect x="42.5" y="43.1" style="fill:#231F20;" width="310" height="310"/>
	<path style="fill:#D0D2D3;" d="M330.1,338.6H64.9c-4.3,0-7.9-3.5-7.9-7.9V65.5c0-4.3,3.5-7.9,7.9-7.9h265.2c4.3,0,7.9,3.5,7.9,7.9
		v265.2C338,335,334.4,338.6,330.1,338.6z"/>
	<path style="fill:#FFFFFF;" d="M332.5,83.1l30,30L130,345.6l-92.5-92.5l30-30l62.5,62.5L332.5,83.1 M332.5,71.8l-5.7,5.7L130,274.3
		l-56.8-56.8l-5.7-5.7l-5.7,5.7l-30,30l-5.7,5.7l5.7,5.7l92.5,92.5l5.7,5.7l5.7-5.7l232.5-232.5l5.7-5.7l-5.7-5.7l-30-30L332.5,71.8
		L332.5,71.8z M326.8,77.4L130,274.3"/>
	<polygon style="fill:#19B14B;" points="130,285.6 67.5,223.1 37.5,253.1 130,345.6 362.5,113.1 332.5,83.1 	"/>
</g>
</svg>
