<?xml version="1.0" encoding="utf-8"?>
<!-- Generator: Adobe Illustrator 19.2.0, SVG Export Plug-In . SVG Version: 6.00 Build 0)  -->
<svg version="1.1" id="Layer_1" xmlns="http://www.w3.org/2000/svg" xmlns:xlink="http://www.w3.org/1999/xlink" x="0px" y="0px"
	 viewBox="0 0 400 400" style="enable-background:new 0 0 400 400;" xml:space="preserve">
<g>
	<rect x="55" y="45" style="fill:#231F20;" width="200" height="240"/>
	<path style="fill:#FFFFFF;" d="M223,265H87c-6.6,0-12-5.4-12-12V77c0-6.6,5.4-12,12-12h136c6.6,0,12,5.4,12,12v176
		C235,259.6,229.6,265,223,265z"/>
	<rect x="95" y="90" style="fill:#929497;" width="125" height="15"/>
	<rect x="95" y="135" style="fill:#929497;" width="125" height="15"/>
	<rect x="95" y="180" style="fill:#929497;" width="125" height="15"/>
	<rect x="95" y="225" style="fill:#929497;" width="125" height="15"/>
	<rect x="145" y="115" style="fill:#231F20;" width="200" height="240"/>
	<path style="fill:#FFFFFF;" d="M313,335H177c-6.6,0-12-5.4-12-12V147c0-6.6,5.4-12,12-12h136c6.6,0,12,5.4,12,12v176
		C325,329.6,319.6,335,313,335z"/>
	<rect x="185" y="160" style="fill:#2488C9;" width="125" height="15"/>
	<rect x="185" y="205" style="fill:#2488C9;" width="125" height="15"/>
	<rect x="185" y="250" style="fill:#2488C9;" width="125" height="15"/>
	<rect x="185" y="295" style="fill:#2488C9;" width="125" height="15"/>
</g>
</svg>
