<?xml version="1.0" encoding="utf-8"?>
<!-- Generator: Adobe Illustrator 19.1.0, SVG Export Plug-In . SVG Version: 6.00 Build 0)  -->
<svg version="1.1" id="Layer_1" xmlns="http://www.w3.org/2000/svg" xmlns:xlink="http://www.w3.org/1999/xlink" x="0px" y="0px"
	 viewBox="0 0 400 400" style="enable-background:new 0 0 400 400;" xml:space="preserve">
<g>
	<rect x="80" y="137.5" style="fill:#404041;" width="50" height="45"/>
	<rect x="270" y="257.5" style="fill:#404041;" width="45" height="40"/>
	<path style="fill:#231F20;" d="M65,102.5v210h270v-210H65z M320,242.5l-15,55H95l-15-55v-100h240V242.5z"/>
	<rect x="65" y="87.5" style="fill:#1B75BB;" width="270" height="40"/>
	<rect x="225" y="182.5" style="fill:#6CC1E0;" width="50" height="40"/>
	<line style="fill:none;stroke:#231F20;stroke-width:5;stroke-miterlimit:10;" x1="80" y1="181.3" x2="320" y2="181.3"/>
	<line style="fill:none;stroke:#231F20;stroke-width:5;stroke-miterlimit:10;" x1="80" y1="220" x2="320" y2="220"/>
	<line style="fill:none;stroke:#231F20;stroke-width:5;stroke-miterlimit:10;" x1="80" y1="258.8" x2="320" y2="258.8"/>
	<line style="fill:none;stroke:#231F20;stroke-width:5;stroke-miterlimit:10;" x1="85" y1="297.5" x2="315" y2="297.5"/>
	<line style="fill:none;stroke:#231F20;stroke-width:5;stroke-miterlimit:10;" x1="128" y1="142.5" x2="128" y2="302.5"/>
	<line style="fill:none;stroke:#231F20;stroke-width:5;stroke-miterlimit:10;" x1="176" y1="297.5" x2="176" y2="142.5"/>
	<line style="fill:none;stroke:#231F20;stroke-width:5;stroke-miterlimit:10;" x1="224" y1="302.5" x2="224" y2="142.5"/>
	<line style="fill:none;stroke:#231F20;stroke-width:5;stroke-miterlimit:10;" x1="272" y1="302.5" x2="272" y2="142.5"/>
</g>
</svg>
