<?xml version="1.0" encoding="utf-8"?>
<!-- Generator: Adobe Illustrator 19.2.0, SVG Export Plug-In . SVG Version: 6.00 Build 0)  -->
<svg version="1.1" id="Layer_1" xmlns="http://www.w3.org/2000/svg" xmlns:xlink="http://www.w3.org/1999/xlink" x="0px" y="0px"
	 viewBox="0 0 400 400" style="enable-background:new 0 0 400 400;" xml:space="preserve">
<g>
	<path style="fill:#95A690;" d="M297.9,322.9c-50.1,50.1-141.6,50.1-191.7,0V114.5h191.7V322.9z"/>
	<path style="fill:#695E50;" d="M141.7,318.7L141.7,318.7c-8,0-14.6-6.6-14.6-14.6V195.8c0-8,6.6-14.6,14.6-14.6h0
		c8,0,14.6,6.6,14.6,14.6v108.3C156.2,312.2,149.7,318.7,141.7,318.7z"/>
	<path style="fill:#695E50;" d="M262.5,318.7L262.5,318.7c-8,0-14.6-6.6-14.6-14.6V195.8c0-8,6.6-14.6,14.6-14.6h0
		c8,0,14.6,6.6,14.6,14.6v108.3C277.1,312.2,270.5,318.7,262.5,318.7z"/>
	<path style="fill:#695E50;" d="M202.1,331.2L202.1,331.2c-8,0-14.6-6.6-14.6-14.6V208.3c0-8,6.6-14.6,14.6-14.6h0
		c8,0,14.6,6.6,14.6,14.6v108.3C216.7,324.7,210.1,331.2,202.1,331.2z"/>
	<path style="fill:#737973;" d="M85.4,89.6c33.5,34,195.7,33.9,229.2,0C261.4,36.5,139,36.1,85.4,89.6z"/>
	<path style="fill:#595550;" d="M314.6,135.5c-49.5,49.5-179,50.2-229.2,0V89.6c33.1,33.1,196,33.2,229.2,0V135.5z"/>
	<path style="fill:#988D82;" d="M131.2,150.3c48.6,20,106.2,18.7,162.5-7.3v-13.5C293.8,129.5,227.1,170.3,131.2,150.3z"/>
	<path style="fill:#4D4D4F;" d="M202.1,39.5c-32.2,0-58.3,18.7-58.3,41.7c0,1.1,0.1,2.2,0.2,3.3c4.2,0.8,8.7,1.5,13.3,2.2l6.6-18
		h76.4l6.6,18c4.7-0.6,9.1-1.3,13.3-2.2c0.1-1.1,0.2-2.2,0.2-3.3C260.4,58.2,234.3,39.5,202.1,39.5z"/>
</g>
</svg>
