<?xml version="1.0" encoding="utf-8"?>
<!-- Generator: Adobe Illustrator 19.2.0, SVG Export Plug-In . SVG Version: 6.00 Build 0)  -->
<svg version="1.1" id="Layer_1" xmlns="http://www.w3.org/2000/svg" xmlns:xlink="http://www.w3.org/1999/xlink" x="0px" y="0px"
	 viewBox="0 0 400 400" style="enable-background:new 0 0 400 400;" xml:space="preserve">
<g>
	<rect x="92.5" y="47" style="fill:#231F20;" width="255" height="306"/>
	<path style="fill:#FFFFFF;" d="M320.5,335.8h-196c-6.6,0-12-5.4-12-12V79c0-6.6,5.4-12,12-12h196c6.6,0,12,5.4,12,12v244.8
		C332.5,330.4,327.1,335.8,320.5,335.8z"/>
	<rect x="132.5" y="107" style="fill:#2488C9;" width="180" height="15"/>
	<rect x="132.5" y="152" style="fill:#2488C9;" width="180" height="15"/>
	<rect x="132.5" y="197" style="fill:#2488C9;" width="180" height="15"/>
	<rect x="132.5" y="242" style="fill:#2488C9;" width="180" height="15"/>
	<rect x="132.5" y="287" style="fill:#2488C9;" width="180" height="15"/>
	<g>
		<path style="fill:#2488C9;" d="M228.9,127c-5-10.1-12.4-18.7-21.6-25h-73.4c-0.4,0.3-0.9,0.6-1.3,0.9V127H228.9z"/>
		<path style="fill:#2488C9;" d="M132.5,172h101c1.4-5.2,2.1-10.7,2.1-16.4c0-2.9-0.2-5.8-0.6-8.6H132.5V172z"/>
		<path style="fill:#2488C9;" d="M132.5,208.3c5,3.6,10.6,6.6,16.6,8.7H192c13.3-4.7,24.7-13.5,32.4-25h-91.9V208.3z"/>
		<path style="fill:#231F20;" d="M105.5,155.6c0,14,4.4,27,12,37.6v-75.1C110,128.7,105.5,141.6,105.5,155.6z"/>
	</g>
	<g>
		<path style="fill:#F48020;" d="M103.2,232.2l-50,86.6c-2.8,4.8,2.8,13.1,12.3,18.7c9.6,5.5,19.6,6.1,22.3,1.3l50-86.6L103.2,232.2
			z"/>
		<path style="fill:#DC7127;" d="M136.5,243.5l-1.1-7.1l-17.3-10l-6.7,2.6l-8.2,3.2c-2.8,4.8,2.8,13.1,12.3,18.7
			c9.6,5.5,19.6,6.1,22.3,1.3L136.5,243.5z"/>
		<path style="fill:#F48020;" d="M131.9,202.5l-13.8,23.8c-1.4,2.4,1.4,6.6,6.2,9.3c4.8,2.8,9.8,3.1,11.2,0.7l13.8-23.8L131.9,202.5
			z"/>
		
			<ellipse transform="matrix(0.5 -0.866 0.866 0.5 -49.4579 225.4684)" style="opacity:0.33;fill:#2488C9;" cx="170.5" cy="155.6" rx="55" ry="55"/>
		<path style="fill:#404041;" d="M203,99.3c-31.1-17.9-70.8-7.3-88.8,23.8s-7.3,70.8,23.8,88.8s70.8,7.3,88.8-23.8
			S234.1,117.2,203,99.3z M143,203.2c-26.3-15.2-35.3-48.8-20.1-75.1s48.8-35.3,75.1-20.1s35.3,48.8,20.1,75.1
			S169.3,218.4,143,203.2z"/>
		<g style="opacity:0.5;">
			<path style="fill:#FFFFFF;" d="M152,115.2c13.3-6.6,27.9-7.6,40.5-3.7c-13-6.8-28.9-7.5-42.9-0.7L152,115.2z"/>
			<path style="fill:#FFFFFF;" d="M145.2,113.3c-13.2,8.3-21.1,22.1-22.2,36.7c3.4-12.8,11.9-24.6,24.6-32.4L145.2,113.3z"/>
		</g>
	</g>
</g>
</svg>
