<?xml version="1.0" encoding="utf-8"?>
<!-- Generator: Adobe Illustrator 19.2.0, SVG Export Plug-In . SVG Version: 6.00 Build 0)  -->
<svg version="1.1" id="Layer_1" xmlns="http://www.w3.org/2000/svg" xmlns:xlink="http://www.w3.org/1999/xlink" x="0px" y="0px"
	 viewBox="0 0 400 400" style="enable-background:new 0 0 400 400;" xml:space="preserve">
<g>
	<polyline style="fill:#DE9739;" points="147.5,275.6 147.5,275.6 154.8,302.9 182.1,295.6 272.1,139.7 237.5,119.7 	"/>
	<polyline style="fill:#FAAF40;" points="147.5,275.6 120.2,282.9 112.9,255.6 202.9,99.7 237.5,119.7 	"/>
	<path style="fill:#EC7CAD;" d="M284.8,77.8l-34.6-20c-9.6-5.5-21.8-2.2-27.3,7.3l-10,17.3l69.3,40l10-17.3
		C297.7,95.5,294.4,83.3,284.8,77.8z"/>
	<polygon style="fill:#404041;" points="106,320.9 107.5,344.9 129,334.3 139.8,328.9 105.2,308.9 	"/>
	<polygon style="fill:#C3996B;" points="112.9,255.6 105.2,308.9 139.8,328.9 182.1,295.6 154.8,302.9 147.5,275.6 120.2,282.9 	"/>
	
		<rect x="202.5" y="101.1" transform="matrix(0.866 0.5 -0.5 0.866 88.0279 -106.3674)" style="fill:#6D6E70;" width="80" height="20"/>
</g>
</svg>
