<?xml version="1.0" encoding="utf-8"?>
<!-- Generator: Adobe Illustrator 19.2.0, SVG Export Plug-In . SVG Version: 6.00 Build 0)  -->
<svg version="1.1" id="Layer_1" xmlns="http://www.w3.org/2000/svg" xmlns:xlink="http://www.w3.org/1999/xlink" x="0px" y="0px"
	 viewBox="0 0 400 400" style="enable-background:new 0 0 400 400;" xml:space="preserve">
<g>
	
		<ellipse transform="matrix(0.7071 -0.7071 0.7071 0.7071 -82.8427 200)" style="fill:#FF0000;" cx="200" cy="200" rx="160" ry="160"/>
	<path style="fill:#FFFFFF;" d="M130.5,102.2c-5.4,3.8-10.5,8.1-15.3,13s-9.1,10-13,15.3l69.5,69.5l-69.5,69.5
		c3.8,5.4,8.1,10.5,13,15.3s10,9.1,15.3,13l69.5-69.5l69.5,69.5c5.4-3.8,10.5-8.1,15.3-13s9.1-10,13-15.3L228.3,200l69.5-69.5
		c-3.8-5.4-8.1-10.5-13-15.3s-10-9.1-15.3-13L200,171.7L130.5,102.2z"/>
	<path style="fill:#FFFFFF;" d="M93.9,93.9c-58.6,58.6-58.6,153.6,0,212.1s153.6,58.6,212.1,0s58.6-153.6,0-212.1
		S152.5,35.4,93.9,93.9z M291.9,291.9c-50.8,50.8-133.1,50.8-183.8,0c-50.8-50.8-50.8-133.1,0-183.8s133.1-50.8,183.8,0
		C342.7,158.8,342.7,241.2,291.9,291.9z"/>
</g>
</svg>
