<?xml version="1.0" encoding="utf-8"?>
<!-- Generator: Adobe Illustrator 19.2.0, SVG Export Plug-In . SVG Version: 6.00 Build 0)  -->
<svg version="1.1" id="Layer_1" xmlns="http://www.w3.org/2000/svg" xmlns:xlink="http://www.w3.org/1999/xlink" x="0px" y="0px"
	 viewBox="0 0 400 400" style="enable-background:new 0 0 400 400;" xml:space="preserve">
<g>
	<g>
		
			<rect x="35.8" y="127" transform="matrix(0.9659 -0.2588 0.2588 0.9659 -44.3169 57.38)" style="fill:#A9C77E;" width="320" height="140"/>
	</g>
	<path style="fill:#FFFFFF;" d="M338.8,189.7l-15.5-58c-10.7,2.9-21.6-3.5-24.5-14.1L66.9,179.8c2.9,10.7-3.5,21.6-14.1,24.5
		l15.5,58c10.7-2.9,21.6,3.5,24.5,14.1l231.8-62.1C321.8,203.6,328.1,192.6,338.8,189.7z"/>
	<g>
		<path style="fill:#A9C77E;" d="M23.1,170.8L59.3,306l309.1-82.8L332.2,88L23.1,170.8z M338.8,189.7c-10.7,2.9-17,13.8-14.1,24.5
			L92.8,276.4c-2.9-10.7-13.8-17-24.5-14.1l-15.5-58c10.7-2.9,17-13.8,14.1-24.5l231.8-62.1c2.9,10.7,13.8,17,24.5,14.1L338.8,189.7
			z"/>
	</g>
	<path style="fill:#FFFFFF;" d="M332.2,88l36.2,135.2L59.3,306L23.1,170.8L332.2,88 M336.4,80.6l-5.8,1.6L21.5,165l-5.8,1.6l1.6,5.8
		l36.2,135.2l1.6,5.8l5.8-1.6L370,229l5.8-1.6l-1.6-5.8L338,86.4L336.4,80.6L336.4,80.6z"/>
	<g>
		
			<rect x="35.8" y="127" transform="matrix(0.9659 -0.2588 0.2588 0.9659 -44.3169 57.38)" style="fill:#A9C77E;" width="320" height="140"/>
	</g>
	<g>
		
			<rect x="49.8" y="146.4" transform="matrix(0.9914 -0.1305 0.1305 0.9914 -26.4458 29.2289)" style="fill:#A9C77E;" width="320" height="140"/>
	</g>
	<path style="fill:#FFFFFF;" d="M352.5,227.8l-7.8-59.5c-11,1.4-21-6.3-22.4-17.2L84.3,182.4c1.4,11-6.3,21-17.2,22.4l7.8,59.5
		c11-1.4,21,6.3,22.4,17.2l237.9-31.3C333.8,239.3,341.5,229.3,352.5,227.8z"/>
	<g>
		<path style="fill:#A9C77E;" d="M42,167.8l18.3,138.8l317.3-41.8l-18.3-138.8L42,167.8z M352.5,227.8c-11,1.4-18.7,11.5-17.2,22.4
			L97.3,281.6c-1.4-11-11.5-18.7-22.4-17.2L67,204.9c11-1.4,18.7-11.5,17.2-22.4l237.9-31.3c1.4,11,11.5,18.7,22.4,17.2L352.5,227.8
			z"/>
	</g>
	<path style="fill:#FFFFFF;" d="M359.2,126.1l18.3,138.8L60.3,306.6L42,167.8L359.2,126.1 M364.4,119.3l-5.9,0.8L41.2,161.9
		l-5.9,0.8l0.8,5.9l18.3,138.8l0.8,5.9l5.9-0.8l317.3-41.8l5.9-0.8l-0.8-5.9l-18.3-138.8L364.4,119.3L364.4,119.3z"/>
	<g>
		
			<rect x="49.8" y="146.4" transform="matrix(0.9914 -0.1305 0.1305 0.9914 -26.4458 29.2289)" style="fill:#A9C77E;" width="320" height="140"/>
	</g>
	<g>
		<rect x="54.3" y="173.4" style="fill:#A9C77E;" width="320" height="140"/>
	</g>
	<path style="fill:#FFFFFF;" d="M354.3,273.4v-60c-11,0-20-9-20-20h-240c0,11-9,20-20,20v60c11,0,20,9,20,20h240
		C334.3,282.3,343.2,273.4,354.3,273.4z"/>
	<g>
		<path style="fill:#A9C77E;" d="M54.3,173.4v140h320v-140H54.3z M354.3,273.4c-11,0-20,9-20,20h-240c0-11-9-20-20-20v-60
			c11,0,20-9,20-20h240c0,11,9,20,20,20V273.4z"/>
	</g>
	<ellipse style="fill:#A9C77E;" cx="214.3" cy="243.4" rx="35" ry="50"/>
	<g>
		<path style="fill:#F1F1F2;" d="M230,232.7c0,0-1.4-0.6-4.3-1.7s-5.1-1.7-6.9-1.7c-3.5,0-5.2,1.3-5.2,4c0,1.5,1.6,3.1,4.9,4.7
			c5.2,2.6,8.2,4.2,9,4.8c3.2,2.3,4.9,5.1,4.9,8.4c0,6.9-5.2,11.5-15.6,13.8c0.2,4.1,0.4,6.3,0.4,6.8c0,0.3-0.3,0.4-1,0.5
			c-0.5,0.1-1.1,0.1-2,0c-1-0.1-1.5-0.1-1.4-0.1c-0.4,0-1,0-1.8,0.1c-0.8,0.1-1.4,0.1-1.7,0.1c-0.2,0-0.5,0-0.7-0.1
			c-0.2-0.2-0.3-0.9-0.3-1.9c0-0.8,0.1-2.1,0.2-3.8c-8.3,0-12.6-0.5-12.7-1.4c0-0.2,0-0.4,0-0.7c0-0.4,0-0.7,0-0.8
			c0-1-0.1-2.3-0.3-3.7c-0.1-0.4-0.3-1.2-0.7-2.4c-0.4-1.1-0.6-1.9-0.6-2.4s0.4-0.8,1.1-0.8c0.8,0,2.2,0.2,4.1,0.6
			c2,0.4,3.5,0.6,4.6,0.6c5.5,0,8.2-1.4,8.2-4.2c0-1.5-1.6-3.1-4.7-4.9c-5.1-2.9-8.1-4.7-8.8-5.3c-3.1-2.5-4.7-5.2-4.7-8.3
			c0-3.4,1.5-6.4,4.5-9c2.9-2.5,6.4-4.1,10.6-4.7c0,0.2,0-0.4-0.1-1.8c-0.1-1.1,0-2,0-2.6c0.1-0.9,0.4-1.3,0.9-1.3h8
			c0.4,0,0.6,0.4,0.7,1.2c0.1,0.6,0.1,1.3,0,2.3c-0.1,1.4-0.1,1.9-0.1,1.8c1.8,0.1,4.8,0.7,8.8,1.7c4.6,1.2,7,2.2,7,3.1
			c0,0.2-0.1,0.5-0.3,1c-0.4,0.8-1,1.9-1.7,3.5c-0.2,0.9-0.6,2.2-1.2,3.8C230.9,232.4,230.5,232.7,230,232.7z"/>
	</g>
	<path style="fill:#FFFFFF;" d="M374.3,173.4v140h-320v-140H374.3 M380.3,167.4h-6h-320h-6v6v140v6h6h320h6v-6v-140V167.4
		L380.3,167.4z"/>
	<polygon style="fill:#FFFFFF;" points="48.3,264.7 23.1,170.8 332.2,88 353.5,167.4 359.7,167.4 338,86.4 336.4,80.6 330.6,82.2 
		21.5,165 15.7,166.6 17.3,172.3 48.3,287.8 	"/>
	<g>
		<path style="fill:#A9C77E;" d="M48.3,173.4v-6h6h58.9l185.6-49.7c2.9,10.7,13.8,17,24.5,14.1l9.5,35.6h20.7L332.2,88L23.1,170.8
			l25.2,93.9V173.4z"/>
	</g>
	<path style="fill:#FFFFFF;" d="M332.8,167.4l-9.5-35.6c-10.7,2.9-21.6-3.5-24.5-14.1l-185.6,49.7H332.8z"/>
	<g>
		<polygon style="fill:#FFFFFF;" points="380.3,270.6 384.3,270 383.5,264.1 380.3,239.7 		"/>
		<polygon style="fill:#FFFFFF;" points="48.3,215.4 42,167.8 359.2,126.1 364.7,167.4 370.7,167.4 365.2,125.3 364.4,119.3 
			358.5,120.1 41.2,161.9 35.3,162.7 36,168.6 48.3,261.4 		"/>
	</g>
	<g>
		<path style="fill:#A9C77E;" d="M48.3,173.4v-6h6h144.5l123.5-16.3c1,7.7,6.3,13.8,13.2,16.3h29.3l-5.4-41.3L42,167.8l6.3,47.6
			V173.4z"/>
	</g>
	<path style="fill:#FFFFFF;" d="M335.4,167.4c-6.9-2.4-12.2-8.5-13.2-16.3l-123.5,16.3H335.4z"/>
</g>
</svg>
