<?xml version="1.0" encoding="utf-8"?>
<!-- Generator: Adobe Illustrator 19.1.0, SVG Export Plug-In . SVG Version: 6.00 Build 0)  -->
<svg version="1.1" id="Layer_1" xmlns="http://www.w3.org/2000/svg" xmlns:xlink="http://www.w3.org/1999/xlink" x="0px" y="0px"
	 viewBox="0 0 400 400" style="enable-background:new 0 0 400 400;" xml:space="preserve">
<g>
	<g>
		<path style="fill:#8A5D3B;" d="M230.9,165.8L230.9,165.8c-2.9-1-4.4-4.2-3.3-7.1l41.5-114.9c1-2.9,4.2-4.4,7.1-3.3v0
			c2.9,1,4.4,4.2,3.3,7.1L238,162.4C237,165.3,233.8,166.8,230.9,165.8z"/>
		<path style="fill:#2488C9;" d="M278.6,50.1l-17,47c37.9-9.3,86.3,55.7,123.4,18C330.6,119.5,317.5,54.4,278.6,50.1z"/>
	</g>
	<g>
		<path style="fill:#8A5D3B;" d="M169.1,166.8L169.1,166.8c2.9-1,4.4-4.2,3.3-7.1L130.9,44.8c-1-2.9-4.2-4.4-7.1-3.3l0,0
			c-2.9,1-4.4,4.2-3.3,7.1L162,163.4C163,166.3,166.2,167.8,169.1,166.8z"/>
		<path style="fill:#2488C9;" d="M121.4,51.2l17,47c-37.9-9.3-86.3,55.7-123.4,18C69.4,120.5,82.5,55.4,121.4,51.2z"/>
	</g>
	<polygon id="stop_sign" style="fill:#EC1C24;" points="255,359.9 144.7,359.8 66.8,281.7 66.9,171.4 145,93.5 255.3,93.6 
		333.2,171.7 333.1,282 	"/>
	<path id="hand" style="fill:#FFFFFF;" d="M177.4,316.2c-11.7-0.6-30-10.9-32.4-21.6c-4.8-10.8-12.5-34-9.8-49
		c2.7-15,3.6-23.6-0.5-40s-6.8-36.8-5.6-44.5s10-23.3,15.6-2.1c1.8,21.5,1.5,22.4,2.9,28.9c1.5,6.5,4,16.5,5.5,20.6
		c2.1,7.7,10.4,7.7,11.5-2.7c1.2-10.3-0.3-27.7,1.5-34.7c1.8-7.1,5.3-26.8,6.8-35.6c1.5-8.8,16.5-23.3,19.1-1.5
		c-1.8,8-6.2,23.3-6.2,32.4c0,9.1,0.3,26.8-1.5,35c0.3,8.2,4.1,8.2,7.7-0.6c1.2-8.8,0.6-12.4,2.9-20.3c2.4-8,6.5-47.7,8-53.6
		c1.5-5.9,14.1-16.5,19.1,1.8c-0.6,7.7-0.6,13.3-1.5,18c-0.9,4.7-2.4,35.9-6.2,43c-3.8,7.1-4.8,13.5-4.5,18.3
		c0.3,4.7-0.8,13,5.9,4.1c0.9-5.3,5-23.6,10.9-33.3c5.9-9.7,7.1-25.6,10-29.7c2.9-4.1,13-15.3,18,2.7c-1.2,7.4-5.6,27.1-6.8,32.4
		c-1.2,5.3-5.6,19.7-8.8,27.1s-9.7,31.8-5.6,43.9s0.3,29.4,22.4,20c22.1-9.4,20-11.2,32.1-15.3c12.1-4.1,25.9,13.8,9.1,20.6
		c-16.8,6.8-33,11.8-38.3,17.1c-5.3,5.3-9.1,8.8-12.7,9.7c-3.5,0.9-20.6,6.6-24.1,9.4C218.4,319.1,187.9,323.8,177.4,316.2z"/>
</g>
</svg>
