<?xml version="1.0" encoding="utf-8"?>
<!-- Generator: Adobe Illustrator 19.2.0, SVG Export Plug-In . SVG Version: 6.00 Build 0)  -->
<svg version="1.1" id="Layer_1" xmlns="http://www.w3.org/2000/svg" xmlns:xlink="http://www.w3.org/1999/xlink" x="0px" y="0px"
	 viewBox="0 0 400 400" style="enable-background:new 0 0 400 400;" xml:space="preserve">
<g>
	<path style="fill:#F48020;" d="M227.8,107.3l-55.6,55.6c-24.2,24.2-29.3,60.3-15.4,89.5l20.3-20.3c-4.7-17.5-0.2-36.9,13.6-50.7
		l51-51c20.5-20.5,53.7-20.5,74.2,0l0,0c20.5,20.5,20.5,53.7,0,74.2l-51,51c-13.7,13.7-33.2,18.2-50.7,13.6l-20.3,20.3
		c29.2,14,65.3,8.9,89.5-15.4l55.6-55.6c30.7-30.7,30.7-80.5,0-111.3l0,0C308.3,76.6,258.5,76.6,227.8,107.3z"/>
	<path style="fill:#2488C9;" d="M243.2,147.6l-25,25c4.7,17.5,0.2,36.9-13.6,50.7l-51,51c-20.5,20.5-53.7,20.5-74.2,0l0,0
		C59,253.7,59,220.5,79.5,200l51-51c13.7-13.7,33.2-18.2,50.7-13.6l25-25c-29.2-14-65.3-8.9-89.5,15.4l-55.6,55.6
		c-30.7,30.7-30.7,80.5,0,111.3l0,0c30.7,30.7,80.5,30.7,111.3,0l55.6-55.6C252,212.9,257.1,176.8,243.2,147.6z"/>
</g>
</svg>
