<?xml version="1.0" encoding="utf-8"?>
<!-- Generator: Adobe Illustrator 19.2.0, SVG Export Plug-In . SVG Version: 6.00 Build 0)  -->
<svg version="1.1" id="Layer_1" xmlns="http://www.w3.org/2000/svg" xmlns:xlink="http://www.w3.org/1999/xlink" x="0px" y="0px"
	 viewBox="0 0 400 400" style="enable-background:new 0 0 400 400;" xml:space="preserve">
<g>
	<path style="fill:#2488C9;" d="M260,160l-15,15h-90l-15-15h-20v100c0,44.2,35.8,80,80,80c44.2,0,80-35.8,80-80V160H260z"/>
	<path style="fill:#F48020;" d="M200,60c-44.2,0-80,35.8-80,80v20h20v-20c0-33.1,26.9-60,60-60s60,26.9,60,60v20h20v-20
		C280,95.8,244.2,60,200,60z"/>
	<path style="fill:#F48020;" d="M220,240c0-11-9-20-20-20c-11,0-20,9-20,20c0,7.4,4,13.8,10,17.3V290c0,5.5,4.5,10,10,10
		c5.5,0,10-4.5,10-10v-32.7C216,253.8,220,247.4,220,240z"/>
</g>
</svg>
