<?xml version="1.0" encoding="utf-8"?>
<!-- Generator: Adobe Illustrator 19.1.0, SVG Export Plug-In . SVG Version: 6.00 Build 0)  -->
<svg version="1.1" id="Layer_1" xmlns="http://www.w3.org/2000/svg" xmlns:xlink="http://www.w3.org/1999/xlink" x="0px" y="0px"
	 viewBox="0 0 400 400" style="enable-background:new 0 0 400 400;" xml:space="preserve">
<path style="fill:#FFFFFF;" d="M323.4,280h-11.7c-11.4-4.8-61.2-27.1-75.1-52.5C273.7,202,300,142.3,300,100C300,44.8,255.2,0,200,0
	S100,44.7,100,100c0,41,24.6,98.2,59.9,125c-11.8,26.4-64.7,50-76.5,55h-6.8C56.5,280,40,296.5,40,316.7v46.7
	c0,20.2,16.5,36.6,36.6,36.6h246.8c20.2,0,36.6-16.5,36.6-36.6v-46.7C360,296.5,343.5,280,323.4,280z"/>
</svg>
