<?xml version="1.0" encoding="utf-8"?>
<!-- Generator: Adobe Illustrator 19.1.0, SVG Export Plug-In . SVG Version: 6.00 Build 0)  -->
<svg version="1.1" id="Layer_1" xmlns="http://www.w3.org/2000/svg" xmlns:xlink="http://www.w3.org/1999/xlink" x="0px" y="0px"
	 viewBox="0 0 400 400" style="enable-background:new 0 0 400 400;" xml:space="preserve">
<g>
	<path style="fill:#FFFFFF;" d="M332,344H68c-6.6,0-12-5.4-12-12V68c0-6.6,5.4-12,12-12h264c6.6,0,12,5.4,12,12v264
		C344,338.6,338.6,344,332,344z"/>
	<path style="fill:none;" d="M344,262.7V75.2c0-10.6-8.6-19.2-19.2-19.2H75.2C64.6,56,56,64.6,56,75.2v249.6
		c0,10.6,8.6,19.2,19.2,19.2h187.5L344,262.7z"/>
	<path style="fill:#B3B3B3;" d="M324.8,344c10.6,0,19.2-8.6,19.2-19.2v-62.1L262.7,344H324.8z"/>
	<path d="M40,40v320h320V40H40z M56,324.8V75.2C56,64.6,64.6,56,75.2,56h249.6c10.6,0,19.2,8.6,19.2,19.2v187.5v62.1
		c0,10.6-8.6,19.2-19.2,19.2h-62.1H75.2C64.6,344,56,335.4,56,324.8z"/>
	<rect x="88" y="104" style="fill:#1B75BB;" width="232" height="16"/>
	<rect x="88" y="168" style="fill:#1B75BB;" width="232" height="16"/>
	<rect x="88" y="232" style="fill:#1B75BB;" width="232" height="16"/>
	<rect x="88" y="296" style="fill:#1B75BB;" width="168" height="16"/>
	
		<rect x="232.6" y="296.5" transform="matrix(0.7071 -0.7071 0.7071 0.7071 -124.4737 300.5061)" style="fill:#231F20;" width="135.8" height="8"/>
	
		<rect x="285.4" y="311.3" transform="matrix(0.7071 -0.7071 0.7071 0.7071 -129.9252 313.6673)" style="fill:#231F20;" width="56.6" height="4.7"/>
	
		<rect x="308.7" y="323.3" transform="matrix(0.7071 -0.7071 0.7071 0.7071 -134.8958 325.6673)" style="fill:#231F20;" width="33.9" height="4.7"/>
</g>
</svg>
