<?xml version="1.0" encoding="utf-8"?>
<!-- Generator: Adobe Illustrator 19.2.1, SVG Export Plug-In . SVG Version: 6.00 Build 0)  -->
<svg version="1.1" id="Layer_1" xmlns="http://www.w3.org/2000/svg" xmlns:xlink="http://www.w3.org/1999/xlink" x="0px" y="0px"
	 viewBox="0 0 400 400" style="enable-background:new 0 0 400 400;" xml:space="preserve">
<g>
	<rect style="fill:#A37445;" width="400" height="400"/>
	<g>
		<path style="fill:#FFFFFF;" d="M212.3,271.4h-44.6l-40.6-53.4H114v53.4H77.6V125.7h58.6c8.1,0,15.1,0.5,21.1,1.5
			c6,1,11.5,3.1,16.6,6.3c5.2,3.3,9.4,7.5,12.4,12.7c3.1,5.1,4.6,11.6,4.6,19.5c0,11.2-2.5,20.2-7.5,27.1
			c-5,6.9-11.7,12.5-20.2,16.6L212.3,271.4z M153.4,170.3c0-3.7-0.7-6.8-2.1-9.4c-1.4-2.6-3.7-4.7-7-6.1c-2.3-1-4.8-1.6-7.6-1.9
			c-2.8-0.3-6.3-0.4-10.5-0.4H114v39.2h10.5c5.1,0,9.4-0.3,13-0.9c3.6-0.6,6.6-1.9,9-4c2.3-1.8,4.1-4,5.2-6.6
			C152.8,177.7,153.4,174.4,153.4,170.3z"/>
		<path style="fill:#FFFFFF;" d="M277.3,274.3c-20.7,0-36.6-5-47.7-14.9c-11.1-9.9-16.6-24-16.6-42.4c0-17.9,5.2-32.2,15.5-42.9
			c10.3-10.7,24.7-16,43.2-16c16.8,0,29.5,4.5,38,13.6c8.5,9.1,12.7,22,12.7,38.9v12.3h-75c0.3,5.1,1.4,9.3,3.2,12.8
			c1.8,3.4,4.2,6.1,7.2,8.2c2.9,2,6.4,3.5,10.3,4.4c3.9,0.9,8.2,1.3,12.8,1.3c4,0,7.9-0.4,11.7-1.3c3.8-0.9,7.4-2,10.6-3.5
			c2.8-1.2,5.4-2.6,7.8-4c2.4-1.4,4.3-2.7,5.8-3.8h3.6v28.3c-2.8,1.1-5.4,2.1-7.7,3.1c-2.3,0.9-5.5,1.9-9.5,2.9
			c-3.7,1-7.5,1.7-11.5,2.3C287.8,274,283,274.3,277.3,274.3z M288.7,202.3c-0.2-7.2-1.9-12.7-5-16.5c-3.2-3.8-8-5.7-14.5-5.7
			c-6.7,0-11.9,2-15.6,6c-3.8,4-5.8,9.4-6.2,16.2H288.7z"/>
	</g>
</g>
</svg>
