<?xml version="1.0" encoding="utf-8"?>
<!-- Generator: Adobe Illustrator 19.1.0, SVG Export Plug-In . SVG Version: 6.00 Build 0)  -->
<svg version="1.1" id="Layer_1" xmlns="http://www.w3.org/2000/svg" xmlns:xlink="http://www.w3.org/1999/xlink" x="0px" y="0px"
	 viewBox="0 0 400 400" style="enable-background:new 0 0 400 400;" xml:space="preserve">
<g>
	<rect class="icon-back" style="fill:#4E4D39;" width="400" height="400"/>
	<g>
		<path style="fill:#FFFFFF;" d="M151.3,277.3c-21.8,0-39.1-6.6-52-19.8s-19.2-31.7-19.2-55.6c0-23,6.4-41.4,19.3-55.1
			s30.2-20.6,52-20.6c5.8,0,11,0.3,15.6,1c4.6,0.7,9,1.6,13.3,2.7c3.3,1,6.9,2.3,10.8,4s7.1,3.2,9.5,4.4V173h-3.7
			c-1.8-1.6-4-3.4-6.6-5.6c-2.7-2.2-5.7-4.3-9.1-6.4c-3.4-2.1-7.1-3.9-11.2-5.3c-4.1-1.5-8.3-2.2-12.7-2.2c-5.3,0-10.1,0.8-14.5,2.5
			s-8.6,4.5-12.5,8.6c-3.6,3.7-6.6,8.7-8.9,15c-2.3,6.3-3.5,13.8-3.5,22.4c0,9,1.2,16.7,3.6,22.8c2.4,6.2,5.6,11.1,9.5,14.9
			c3.8,3.6,8,6.3,12.6,7.9c4.7,1.6,9.3,2.4,13.9,2.4c4.8,0,9.4-0.8,13.8-2.4c4.4-1.6,8-3.4,11-5.3c3.3-2,6.1-4.1,8.6-6.2
			c2.5-2.1,4.6-3.9,6.4-5.6h3.3v34.2c-2.7,1.2-5.8,2.7-9.3,4.2s-7.1,2.9-10.8,4.1c-4.6,1.4-8.8,2.4-12.8,3.1
			C163.8,276.9,158.3,277.3,151.3,277.3z"/>
		<path style="fill:#FFFFFF;" d="M319.9,274.5h-34.2V263c-2.2,1.8-4.7,3.8-7.6,5.9s-5.3,3.6-7.5,4.7c-2.7,1.3-5.4,2.3-8.1,2.9
			s-5.9,1-9.6,1c-12.5,0-22.4-5.2-29.7-15.5c-7.3-10.4-10.9-24.2-10.9-41.5c0-9.6,1.2-17.9,3.7-24.9c2.5-7,5.9-13.2,10.3-18.4
			c4-4.8,8.8-8.5,14.5-11.3s11.7-4.2,18-4.2c5.7,0,10.4,0.6,14.1,1.8s8,3.1,12.8,5.6v-46.7h34.2V274.5z M285.7,244.2v-53.8
			c-1.7-0.8-3.9-1.5-6.6-2.1s-5.1-0.8-7-0.8c-8.2,0-14.4,2.9-18.5,8.6c-4.1,5.7-6.2,13.7-6.2,24c0,10.8,1.6,18.6,4.9,23.4
			c3.3,4.8,8.6,7.2,16,7.2c3,0,6-0.6,9.1-1.8S283.2,246.2,285.7,244.2z"/>
	</g>
</g>
</svg>
