<?xml version="1.0" encoding="utf-8"?>
<!-- Generator: Adobe Illustrator 19.1.0, SVG Export Plug-In . SVG Version: 6.00 Build 0)  -->
<svg version="1.1" id="Layer_1" xmlns="http://www.w3.org/2000/svg" xmlns:xlink="http://www.w3.org/1999/xlink" x="0px" y="0px"
	 viewBox="0 0 400 400" style="enable-background:new 0 0 400 400;" xml:space="preserve">
<g>
	<rect x="0" style="fill:#2E2A33;" width="400" height="400"/>
	<g>
		<path style="fill:#FFFFFF;" d="M190.4,156.4h-61v27.4h56.2v27.7h-56.2V274H93V128.6h97.4V156.4z"/>
		<path style="fill:#FFFFFF;" d="M307,274h-34.2v-11.4c-2.2,1.8-4.7,3.8-7.6,5.9c-2.8,2.1-5.3,3.6-7.5,4.7c-2.7,1.3-5.4,2.3-8.1,2.9
			c-2.7,0.7-5.9,1-9.6,1c-12.5,0-22.4-5.2-29.7-15.5c-7.3-10.4-10.9-24.2-10.9-41.5c0-9.6,1.2-17.9,3.7-24.9
			c2.5-7,5.9-13.2,10.3-18.4c4-4.8,8.8-8.5,14.5-11.3c5.7-2.8,11.7-4.2,18-4.2c5.7,0,10.4,0.6,14.1,1.8c3.7,1.2,8,3.1,12.8,5.6
			v-46.7H307V274z M272.8,243.8V190c-1.7-0.8-3.9-1.5-6.6-2.1c-2.7-0.6-5.1-0.8-7-0.8c-8.2,0-14.4,2.9-18.5,8.6
			c-4.1,5.7-6.2,13.7-6.2,24c0,10.8,1.6,18.6,4.9,23.4c3.3,4.8,8.6,7.2,16,7.2c3,0,6-0.6,9.1-1.8
			C267.5,247.4,270.3,245.8,272.8,243.8z"/>
	</g>
</g>
</svg>
