<?xml version="1.0" encoding="utf-8"?>
<!-- Generator: Adobe Illustrator 19.1.0, SVG Export Plug-In . SVG Version: 6.00 Build 0)  -->
<svg version="1.1" id="Layer_1" xmlns="http://www.w3.org/2000/svg" xmlns:xlink="http://www.w3.org/1999/xlink" x="0px" y="0px"
	 viewBox="0 0 400 400" style="enable-background:new 0 0 400 400;" xml:space="preserve">
<g>
	<rect class="icon-back" style="fill:#5F7069;" width="400" height="400"/>
	<g>
		<path style="fill:#FFFFFF;" d="M190.4,156.8h-61v27.4h56.2V212h-56.2v62.5H93V129.1h97.4V156.8z"/>
		<path style="fill:#FFFFFF;" d="M307,274.5h-34.2V263c-2.2,1.8-4.7,3.8-7.6,5.9s-5.3,3.6-7.5,4.7c-2.7,1.3-5.4,2.3-8.1,2.9
			s-5.9,1-9.6,1c-12.5,0-22.4-5.2-29.7-15.5s-10.9-24.2-10.9-41.5c0-9.6,1.2-17.9,3.7-24.9s5.9-13.2,10.3-18.4
			c4-4.8,8.8-8.5,14.5-11.3s11.7-4.2,18-4.2c5.7,0,10.4,0.6,14.1,1.8s8,3.1,12.8,5.6v-46.7H307V274.5z M272.8,244.2v-53.8
			c-1.7-0.8-3.9-1.5-6.6-2.1s-5.1-0.8-7-0.8c-8.2,0-14.4,2.9-18.5,8.6s-6.2,13.7-6.2,24c0,10.8,1.6,18.6,4.9,23.4s8.6,7.2,16,7.2
			c3,0,6-0.6,9.1-1.8S270.3,246.2,272.8,244.2z"/>
	</g>
</g>
</svg>
