<?xml version="1.0" encoding="utf-8"?>
<!-- Generator: Adobe Illustrator 19.2.0, SVG Export Plug-In . SVG Version: 6.00 Build 0)  -->
<svg version="1.1" id="Layer_1" xmlns="http://www.w3.org/2000/svg" xmlns:xlink="http://www.w3.org/1999/xlink" x="0px" y="0px"
	 viewBox="0 0 400 400" style="enable-background:new 0 0 400 400;" xml:space="preserve">
<pattern  width="80" height="400" patternUnits="userSpaceOnUse" id="New_Pattern_Swatch_2" viewBox="0 -400 80 400" style="overflow:visible;">
	<g>
		<rect y="-400" style="fill:none;" width="80" height="400"/>
		<rect y="-400" style="fill:#FCE9A6;" width="40" height="400"/>
		<rect x="40" y="-400" style="fill:#F4E1A1;" width="40" height="400"/>
	</g>
</pattern>
<g>
	<circle style="fill:#806327;" cx="200" cy="200" r="180"/>
	<circle style="fill:#F4E0A1;" cx="200" cy="200" r="160"/>
	<circle style="fill:#F4E0A1;" cx="200" cy="200" r="160"/>
	<defs>
		<filter id="Adobe_OpacityMaskFilter" filterUnits="userSpaceOnUse" x="40" y="40" width="320" height="320">
			<feColorMatrix  type="matrix" values="1 0 0 0 0  0 1 0 0 0  0 0 1 0 0  0 0 0 1 0"/>
		</filter>
	</defs>
	<mask maskUnits="userSpaceOnUse" x="40" y="40" width="320" height="320" id="SVGID_1_">
		<g style="filter:url(#Adobe_OpacityMaskFilter);">
			
				<linearGradient id="SVGID_2_" gradientUnits="userSpaceOnUse" x1="-662" y1="290" x2="-342" y2="290" gradientTransform="matrix(4.489700e-011 1 -1 4.489700e-011 490 702)">
				<stop  offset="0.15" style="stop-color:#FFFFFF"/>
				<stop  offset="0.5" style="stop-color:#000000"/>
			</linearGradient>
			<circle style="fill:url(#SVGID_2_);" cx="200" cy="200" r="160"/>
		</g>
	</mask>
	
		<pattern  id="SVGID_3_" xlink:href="#New_Pattern_Swatch_2" patternTransform="matrix(0.3536 0.3536 -0.3536 0.3536 -8016.6987 -2359.6086)"  style="mask:url(#SVGID_1_);">
	</pattern>
	<circle style="mask:url(#SVGID_1_);fill:url(#SVGID_3_);" cx="200" cy="200" r="160"/>
	<g>
		<path style="fill:#806327;" d="M160.4,255.5H87.2v-19.3h23.4v-58.5H87.2v-18.1c3.4,0,6.8-0.2,10.2-0.7c3.4-0.4,6.1-1.2,8.1-2.2
			c2.4-1.2,4.2-2.8,5.5-4.8c1.3-2,2.1-4.5,2.3-7.5h24.3v91.7h22.8V255.5z"/>
		<path style="fill:#806327;" d="M210.6,201.2h-26.3V172h26.3V201.2z M210.6,255.5h-26.3v-29.2h26.3V255.5z"/>
		<path style="fill:#806327;" d="M312.8,255.5h-73.2v-19.3h23.4v-58.5h-23.4v-18.1c3.4,0,6.8-0.2,10.2-0.7c3.4-0.4,6.1-1.2,8.1-2.2
			c2.4-1.2,4.2-2.8,5.5-4.8c1.3-2,2.1-4.5,2.3-7.5h24.3v91.7h22.8V255.5z"/>
	</g>
</g>
</svg>
