<?xml version="1.0" encoding="utf-8"?>
<!-- Generator: Adobe Illustrator 19.2.0, SVG Export Plug-In . SVG Version: 6.00 Build 0)  -->
<svg version="1.1" id="Layer_1" xmlns="http://www.w3.org/2000/svg" xmlns:xlink="http://www.w3.org/1999/xlink" x="0px" y="0px"
	 viewBox="0 0 400 400" style="enable-background:new 0 0 400 400;" xml:space="preserve">
<pattern  width="80" height="400" patternUnits="userSpaceOnUse" id="New_Pattern_Swatch_2" viewBox="0 -400 80 400" style="overflow:visible;">
	<g>
		<rect y="-400" style="fill:none;" width="80" height="400"/>
		<rect y="-400" style="fill:#FCE9A6;" width="40" height="400"/>
		<rect x="40" y="-400" style="fill:#F4E1A1;" width="40" height="400"/>
	</g>
</pattern>
<g>
	<circle style="fill:#806327;" cx="200" cy="200" r="180"/>
	<circle style="fill:#F4E0A1;" cx="200" cy="200" r="160"/>
	<circle style="fill:#F4E0A1;" cx="200" cy="200" r="160"/>
	<defs>
		<filter id="Adobe_OpacityMaskFilter" filterUnits="userSpaceOnUse" x="40" y="40" width="320" height="320">
			<feColorMatrix  type="matrix" values="1 0 0 0 0  0 1 0 0 0  0 0 1 0 0  0 0 0 1 0"/>
		</filter>
	</defs>
	<mask maskUnits="userSpaceOnUse" x="40" y="40" width="320" height="320" id="SVGID_1_">
		<g style="filter:url(#Adobe_OpacityMaskFilter);">
			
				<linearGradient id="SVGID_2_" gradientUnits="userSpaceOnUse" x1="-662" y1="290" x2="-342" y2="290" gradientTransform="matrix(4.489700e-011 1 -1 4.489700e-011 490 702)">
				<stop  offset="0.15" style="stop-color:#FFFFFF"/>
				<stop  offset="0.5" style="stop-color:#000000"/>
			</linearGradient>
			<circle style="fill:url(#SVGID_2_);" cx="200" cy="200" r="160"/>
		</g>
	</mask>
	
		<pattern  id="SVGID_3_" xlink:href="#New_Pattern_Swatch_2" patternTransform="matrix(0.3536 0.3536 -0.3536 0.3536 -7846.9932 -2472.7458)"  style="mask:url(#SVGID_1_);">
	</pattern>
	<circle style="mask:url(#SVGID_1_);fill:url(#SVGID_3_);" cx="200" cy="200" r="160"/>
	<g>
		<path style="fill:#806327;" d="M101,240H57.9v-14h11.5V174H57.9v-14H101v14H89.5V226H101V240z"/>
		<path style="fill:#806327;" d="M150.9,239.7c-11.5,0-20.6-3.5-27.3-10.4c-6.7-6.9-10.1-16.7-10.1-29.2c0-12.1,3.4-21.8,10.1-29
			c6.8-7.2,15.9-10.8,27.3-10.8c3,0,5.8,0.2,8.2,0.5c2.4,0.3,4.8,0.8,7,1.4c1.7,0.5,3.6,1.2,5.7,2.1c2.1,0.9,3.7,1.7,5,2.3v18.2h-2
			c-0.9-0.8-2.1-1.8-3.5-3s-3-2.3-4.8-3.4s-3.7-2-5.9-2.8c-2.1-0.8-4.4-1.2-6.7-1.2c-2.8,0-5.3,0.4-7.6,1.3
			c-2.3,0.9-4.5,2.4-6.6,4.5c-1.9,2-3.5,4.6-4.7,7.9s-1.8,7.2-1.8,11.8c0,4.8,0.6,8.7,1.9,12c1.3,3.2,2.9,5.8,5,7.8
			c2,1.9,4.2,3.3,6.6,4.2s4.9,1.3,7.3,1.3c2.5,0,4.9-0.4,7.2-1.3c2.3-0.8,4.2-1.8,5.8-2.8c1.7-1.1,3.2-2.1,4.5-3.2
			c1.3-1.1,2.4-2.1,3.4-2.9h1.7v18c-1.4,0.7-3,1.4-4.9,2.2c-1.8,0.8-3.7,1.5-5.7,2.1c-2.4,0.7-4.6,1.3-6.7,1.6
			S154.5,239.7,150.9,239.7z"/>
		<path style="fill:#806327;" d="M187.2,240l27-80h21.9l27,80h-20.7l-5-16.3h-25.1l-5,16.3H187.2z M233,209.2l-8.2-26.4l-8.2,26.4
			H233z"/>
		<path style="fill:#806327;" d="M342.1,200c0,12.3-3.3,22-9.9,29.1c-6.6,7.1-15.6,10.6-27.1,10.6c-11.5,0-20.6-3.6-27.1-10.7
			c-6.6-7.2-9.8-16.8-9.8-29c0-12.3,3.3-22,9.8-29.1c6.6-7.1,15.6-10.7,27.1-10.7c11.5,0,20.5,3.5,27.1,10.6
			C338.8,178,342.1,187.7,342.1,200z M322.3,200c0-4.5-0.5-8.4-1.4-11.6c-0.9-3.2-2.2-5.8-3.8-7.9c-1.6-2.1-3.5-3.6-5.6-4.5
			s-4.2-1.4-6.4-1.4c-2.4,0-4.5,0.4-6.4,1.3c-1.9,0.8-3.8,2.3-5.5,4.5c-1.6,2-2.8,4.6-3.8,7.9c-1,3.3-1.5,7.2-1.5,11.7
			c0,4.7,0.5,8.6,1.4,11.7s2.2,5.7,3.8,7.8c1.6,2.1,3.5,3.6,5.6,4.5s4.2,1.4,6.5,1.4c2.3,0,4.4-0.5,6.6-1.5c2.1-1,3.9-2.5,5.5-4.5
			c1.6-2.2,2.9-4.8,3.8-7.8S322.3,204.8,322.3,200z"/>
	</g>
</g>
</svg>
