<?xml version="1.0" encoding="utf-8"?>
<!-- Generator: Adobe Illustrator 19.1.0, SVG Export Plug-In . SVG Version: 6.00 Build 0)  -->
<svg version="1.1" id="Layer_1" xmlns="http://www.w3.org/2000/svg" xmlns:xlink="http://www.w3.org/1999/xlink" x="0px" y="0px"
	 viewBox="0 0 400 400" style="enable-background:new 0 0 400 400;" xml:space="preserve">
<g>
	<path style="fill:#2488C9;" d="M348,152.5h-35.4c-3.9,0-7.5-1.9-9.8-5l-39.2-54.9c-2.3-3.2-5.9-5-9.8-5H146.6
		c-4.1,0-7.9,2.1-10.1,5.5l-34.7,54c-2.2,3.4-6,5.5-10.1,5.5H52c-6.6,0-12,5.4-12,12v136c0,6.6,5.4,12,12,12h296c6.6,0,12-5.4,12-12
		v-136C360,157.9,354.6,152.5,348,152.5z"/>
	<rect x="40" y="182.5" style="fill:#A9C77E;" width="320" height="10"/>
	<circle style="fill:#F48020;" cx="55" cy="167.5" r="10"/>
	<circle style="fill:#F48020;" cx="200" cy="212.5" r="85"/>
	<circle style="fill:#FFFFFF;" cx="200" cy="212.5" r="65"/>
	<circle style="fill:#F48020;" cx="200" cy="212.5" r="40"/>
	<path style="fill:#A9C77E;" d="M78,137.5H67c-6.6,0-12,5.4-12,12v3h35v-3C90,142.9,84.6,137.5,78,137.5z"/>
</g>
</svg>
