<?xml version="1.0" encoding="utf-8"?>
<!-- Generator: Adobe Illustrator 19.1.0, SVG Export Plug-In . SVG Version: 6.00 Build 0)  -->
<svg version="1.1" id="Layer_1" xmlns="http://www.w3.org/2000/svg" xmlns:xlink="http://www.w3.org/1999/xlink" x="0px" y="0px"
	 viewBox="0 0 400 400" style="enable-background:new 0 0 400 400;" xml:space="preserve">
<g>
	<g>
		<path style="fill:#FFFFFF;" d="M184.8,49.6H63.2c-7.9,0-14.4,6.5-14.4,14.4v121.6c0,7.9,6.5,14.4,14.4,14.4h121.6
			c7.9,0,14.4-6.5,14.4-14.4V64C199.2,56.1,192.7,49.6,184.8,49.6z"/>
		<path d="M184.8,40H63.2c-13.2,0-24,10.8-24,24v121.6c0,13.2,10.8,24,24,24h121.6c13.2,0,24-10.8,24-24V64
			C208.8,50.8,198,40,184.8,40z M199.2,185.6c0,7.9-6.5,14.4-14.4,14.4H63.2c-7.9,0-14.4-6.5-14.4-14.4V64c0-7.9,6.5-14.4,14.4-14.4
			h121.6c7.9,0,14.4,6.5,14.4,14.4V185.6z"/>
		<path style="fill:#FAAF40;" d="M168.8,62.4H79.2c-9.7,0-17.6,7.9-17.6,17.6v99.2h124.8V80C186.4,70.3,178.5,62.4,168.8,62.4z"/>
		<path d="M168.8,59.2H79.2c-11.5,0-20.8,9.3-20.8,20.8v102.4h131.2V80C189.6,68.5,180.3,59.2,168.8,59.2z M186.4,179.2H61.6V80
			c0-9.7,7.9-17.6,17.6-17.6h89.6c9.7,0,17.6,7.9,17.6,17.6V179.2z"/>
		<circle style="fill:#C3996B;" cx="124.8" cy="97.6" r="24"/>
		<path style="fill:#652D90;" d="M160.8,179.2v-24.7h-0.2c-2-18.5-17.2-32.9-35.8-32.9S91,136,89,154.5h-0.2v24.7H160.8z"/>
	</g>
	<g>
		<path style="fill:#FFFFFF;" d="M250.4,120H128.8c-7.9,0-14.4,6.5-14.4,14.4V256c0,7.9,6.5,14.4,14.4,14.4h121.6
			c7.9,0,14.4-6.5,14.4-14.4V134.4C264.8,126.5,258.3,120,250.4,120z"/>
		<path d="M250.4,110.4H128.8c-13.2,0-24,10.8-24,24V256c0,13.2,10.8,24,24,24h121.6c13.2,0,24-10.8,24-24V134.4
			C274.4,121.2,263.6,110.4,250.4,110.4z M264.8,256c0,7.9-6.5,14.4-14.4,14.4H128.8c-7.9,0-14.4-6.5-14.4-14.4V134.4
			c0-7.9,6.5-14.4,14.4-14.4h121.6c7.9,0,14.4,6.5,14.4,14.4V256z"/>
		<path style="fill:#00A551;" d="M234.4,132.8h-89.6c-9.7,0-17.6,7.9-17.6,17.6v99.2H252v-99.2C252,140.7,244.1,132.8,234.4,132.8z"
			/>
		<path d="M234.4,129.6h-89.6c-11.5,0-20.8,9.3-20.8,20.8v102.4h131.2V150.4C255.2,138.9,245.9,129.6,234.4,129.6z M252,249.6H127.2
			v-99.2c0-9.7,7.9-17.6,17.6-17.6h89.6c9.7,0,17.6,7.9,17.6,17.6V249.6z"/>
		<circle style="fill:#C3996B;" cx="190.4" cy="168" r="24"/>
		<path style="fill:#EE4036;" d="M226.4,249.6v-24.7h-0.2c-2-18.5-17.2-32.9-35.8-32.9s-33.8,14.4-35.8,32.9h-0.2v24.7H226.4z"/>
	</g>
	<g>
		<path style="fill:#FFFFFF;" d="M336.8,200H215.2c-7.9,0-14.4,6.5-14.4,14.4V336c0,7.9,6.5,14.4,14.4,14.4h121.6
			c7.9,0,14.4-6.5,14.4-14.4V214.4C351.2,206.5,344.7,200,336.8,200z"/>
		<path d="M336.8,190.4H215.2c-13.2,0-24,10.8-24,24V336c0,13.2,10.8,24,24,24h121.6c13.2,0,24-10.8,24-24V214.4
			C360.8,201.2,350,190.4,336.8,190.4z M351.2,336c0,7.9-6.5,14.4-14.4,14.4H215.2c-7.9,0-14.4-6.5-14.4-14.4V214.4
			c0-7.9,6.5-14.4,14.4-14.4h121.6c7.9,0,14.4,6.5,14.4,14.4V336z"/>
		<path style="fill:#26A9E0;" d="M320.8,212.8h-89.6c-9.7,0-17.6,7.9-17.6,17.6v99.2h124.8v-99.2
			C338.4,220.7,330.5,212.8,320.8,212.8z"/>
		<path d="M320.8,209.6h-89.6c-11.5,0-20.8,9.3-20.8,20.8v102.4h131.2V230.4C341.6,218.9,332.3,209.6,320.8,209.6z M338.4,329.6
			H213.6v-99.2c0-9.7,7.9-17.6,17.6-17.6h89.6c9.7,0,17.6,7.9,17.6,17.6V329.6z"/>
		<circle style="fill:#C3996B;" cx="276.8" cy="248" r="24"/>
		<path style="fill:#F9EC31;" d="M312.8,329.6v-24.7h-0.2c-2-18.5-17.2-32.9-35.8-32.9c-18.5,0-33.8,14.4-35.8,32.9h-0.2v24.7H312.8
			z"/>
	</g>
</g>
</svg>
