<?xml version="1.0" encoding="utf-8"?>
<!-- Generator: Adobe Illustrator 19.2.0, SVG Export Plug-In . SVG Version: 6.00 Build 0)  -->
<svg version="1.1" id="Layer_1" xmlns="http://www.w3.org/2000/svg" xmlns:xlink="http://www.w3.org/1999/xlink" x="0px" y="0px"
	 viewBox="0 0 400 400" style="enable-background:new 0 0 400 400;" xml:space="preserve">
<g>
	<rect x="80" y="60" style="fill:#231F20;" width="200" height="240"/>
	<path style="fill:#FFFFFF;" d="M248,280H112c-6.6,0-12-5.4-12-12V92c0-6.6,5.4-12,12-12h136c6.6,0,12,5.4,12,12v176
		C260,274.6,254.6,280,248,280z"/>
	<rect x="120" y="105" style="fill:#2488C9;" width="125" height="15"/>
	<rect x="120" y="150" style="fill:#2488C9;" width="125" height="15"/>
	<rect x="120" y="195" style="fill:#2488C9;" width="125" height="15"/>
	<rect x="120" y="240" style="fill:#2488C9;" width="125" height="15"/>
	<g>
		<circle style="fill:#EC1C24;" cx="240" cy="260" r="80"/>
		<circle style="fill:#FFFFFF;" cx="240" cy="260" r="66.7"/>
		
			<rect x="171.9" y="251.9" transform="matrix(-0.7071 0.7071 -0.7071 -0.7071 589.9832 272.6633)" style="fill:#EC1C24;" width="133.3" height="13.3"/>
	</g>
</g>
</svg>
