<?xml version="1.0" encoding="utf-8"?>
<!-- Generator: Adobe Illustrator 19.2.1, SVG Export Plug-In . SVG Version: 6.00 Build 0)  -->
<svg version="1.1" id="Layer_1" xmlns="http://www.w3.org/2000/svg" xmlns:xlink="http://www.w3.org/1999/xlink" x="0px" y="0px"
	 viewBox="0 0 400 400" style="enable-background:new 0 0 400 400;" xml:space="preserve">
<g>
	<polygon style="fill:#00ADEE;" points="45.1,139.9 136.2,191.2 45.1,271 	"/>
	<path style="fill:#F48020;" d="M200.1,204.1c-0.5,0-1-0.2-1.5-0.5L45.1,118.4V95.2h310v23.3l-153.5,85.2
		C201.2,203.9,200.7,204.1,200.1,204.1z"/>
	<path style="fill:#00ADEE;" d="M59.3,285.2l95-83.9l39.4,21c1.9,1.1,4.1,2.8,6.4,2.8s4.4-1.8,6.4-2.8l39.4-21l95,83.9H59.3z"/>
	<polygon style="fill:#00ADEE;" points="264.1,191.2 355.1,139.9 355.1,271 	"/>
	<g>
		<path style="fill:#FFFFFF;" d="M192.8,84.1L57.3,162.3l-13.9,8l13.9,8l135.5,78.2l13.9,8v-16v-41.8c45.4,20.8,83.8,59.9,90.3,93
			l4.7,24.2l12.4-21.3l39.4-67.9l3.1-5.3l-3.6-4.9c-0.6-0.9-15.9-21.3-42.6-41.6c-15.7-11.9-32.2-21.4-48.9-28
			c-18-7.1-36.4-11-54.8-11.6V92.1V76L192.8,84.1z"/>
		<g>
			<path style="fill:#EC1C24;" d="M197,92.4L61.5,170.6L197,248.9v-55.7c53.8,20.1,101,65.9,108.6,105.1l39.4-67.9
				c0,0-59.2-80-148.1-77.5V92.4z"/>
		</g>
	</g>
</g>
</svg>
