<?xml version="1.0" encoding="utf-8"?>
<!-- Generator: Adobe Illustrator 19.2.0, SVG Export Plug-In . SVG Version: 6.00 Build 0)  -->
<svg version="1.1" id="Layer_1" xmlns="http://www.w3.org/2000/svg" xmlns:xlink="http://www.w3.org/1999/xlink" x="0px" y="0px"
	 viewBox="0 0 400 400" style="enable-background:new 0 0 400 400;" xml:space="preserve">
<g>
	<path style="fill:#A87C4F;" d="M304.7,360h-204c-4.4,0-8-3.6-8-8V88c0-4.4,3.6-8,8-8h204c4.4,0,8,3.6,8,8v264
		C312.7,356.4,309.1,360,304.7,360z"/>
	<path style="fill:#916B46;" d="M282.7,105L282.7,105l-160,230l25,25h157c4.4,0,8-3.6,8-8V135L282.7,105z"/>
	<rect x="122.7" y="105" style="fill:#F1F1F2;" width="160" height="230"/>
	<path style="fill:#BBBDBF;" d="M262.7,110h-120V98c0-4.4,3.6-8,8-8h104c4.4,0,8,3.6,8,8V110z"/>
	<path style="fill:#929497;" d="M262.7,115h-120v-7c0-4.4,3.6-8,8-8h112V115z"/>
	<path style="fill:#D0D2D3;" d="M202.7,40c-13.8,0-25,11.2-25,25v25h50V65C227.7,51.2,216.5,40,202.7,40z M202.7,75
		c-5.5,0-10-4.5-10-10s4.5-10,10-10s10,4.5,10,10S208.2,75,202.7,75z"/>
	<circle style="fill:#929497;" cx="227.7" cy="90" r="0"/>
	<g>
		<g style="opacity:0.39;">
			<path style="fill:#BBBDBF;" d="M132.9,230.8c-1.8,1.4-5.4,4.4-9.5,8.4c-10,10-22.5,26.8-16.3,44.9c6.3,18.3,28.7,29.5,49.1,25.8
				c9.2-1.6,16.9-6.1,22.8-12.1c8.7-8.7,13.8-20.5,14.6-31.8c1.6-20.8-10.8-44.8-29-48.1C151.7,215.7,140.4,224.7,132.9,230.8z"/>
			<polygon style="fill:#BBBDBF;" points="123.4,239.2 120.6,236.4 120.6,236.4 			"/>
		</g>
		<g style="opacity:0.39;">
			<path style="fill:#BBBDBF;" d="M223.7,140c1.4-1.8,4.4-5.4,8.4-9.5c10-10,26.8-22.5,44.9-16.3c18.3,6.3,29.5,28.7,25.8,49.1
				c-1.6,9.2-6.1,16.9-12.1,22.8c-8.7,8.7-20.5,13.8-31.8,14.6c-20.8,1.6-44.8-10.8-48.1-29C208.6,158.7,217.7,147.5,223.7,140z"/>
			<polygon style="fill:#BBBDBF;" points="232.2,130.4 229.3,127.6 229.3,127.6 			"/>
		</g>
		<path style="fill:#231F20;" d="M278.3,94.3l-4.7,0c-1.6,0-3.2,0.6-4.3,1.8l-8.8,8.8l0.3,0.1c-11.3,1.8-22.9,8.5-34.3,19.8l5.7,5.7
			l-2.8-2.8l-2.8-2.8c-4.4,4.4-7.5,8.3-9,10.1c-6.3,7.8-16.6,20.6-14.6,36.4c-8.1,2.6-16.4,7.7-23.7,14.9
			c-7.3,7.3-12.3,15.6-14.9,23.7c-15.8-1.9-28.6,8.4-36.4,14.6c-1.9,1.5-5.8,4.6-10.1,9l2.8,2.8l2.8,2.8l-5.7-5.7
			c-11.3,11.3-18,22.9-19.8,34.3l-0.1-0.3l-8.8,8.8c-1.1,1.1-1.8,2.7-1.8,4.3v4.7c0,3.2,3.4,5.3,6.2,3.8l5.9-2.9
			c0.1,0.2,0.1,0.3,0.1,0.5c3.7,10.7,11.9,19.8,23.2,25.6c10.9,5.6,23.3,7.5,35,5.4c10.2-1.8,19.6-6.8,27.1-14.3
			c9.7-9.7,15.9-23.1,17-36.8c0.9-11.8-2-24.6-8.1-35.2c-6-10.5-14.4-17.6-23.8-20.5c2-7.2,6.4-14.8,12.9-21.3
			c6.5-6.5,14.1-10.9,21.3-12.9c2.9,9.4,10,17.8,20.5,23.8c10.6,6.1,23.4,9,35.2,8.1c13.7-1.1,27.1-7.3,36.8-17
			c7.5-7.5,12.5-16.9,14.3-27.1c2.1-11.7,0.2-24.1-5.4-35c-5.8-11.3-14.9-19.5-25.6-23.2c-0.2-0.1-0.3-0.1-0.5-0.1l2.9-5.9
			C283.6,97.7,281.5,94.3,278.3,94.3z M193.7,266.1c-0.9,11.2-6,23.1-14.6,31.8c-6,6-13.7,10.4-22.8,12.1
			c-20.4,3.7-42.9-7.5-49.1-25.8c-6.2-18.1,6.3-35,16.3-44.9c4.1-4.1,7.7-7,9.5-8.4c7.5-6,18.8-15.1,31.8-12.7
			C182.9,221.4,195.3,245.4,193.7,266.1z M302.9,163.3c-1.6,9.2-6.1,16.9-12.1,22.8c-8.7,8.7-20.5,13.8-31.8,14.6
			c-20.8,1.6-44.8-10.8-48.1-29c-2.4-13,6.7-24.3,12.7-31.8c1.4-1.8,4.4-5.4,8.4-9.5c10-10,26.8-22.5,44.9-16.3
			C295.4,120.4,306.6,142.9,302.9,163.3z"/>
		<path style="fill:#F1F1F2;" d="M113.5,288c-3.7-5.9-8.3-15.5-2.2-24.7C110.2,267.2,111,278.6,113.5,288z"/>
		<path style="fill:#F1F1F2;" d="M220.6,181.7c-3.7-5.9-8.3-15.5-2.2-24.7C217.4,160.9,218.1,172.4,220.6,181.7z"/>
	</g>
	<path style="fill:#A6A8AB;" d="M212.7,65c0,5.5-4.5,10-10,10s-10-4.5-10-10h0c-8.3,0-15,6.7-15,15v10h50V65H212.7z"/>
	<path style="opacity:0.5;fill:#F1F1F2;" d="M191.2,64.8c0-6.9,5.6-12.5,12.5-12.5c3.6,0,6.8,1.5,9.1,3.9c-2.1-3.8-6.2-6.4-10.9-6.4
		c-6.9,0-12.5,5.6-12.5,12.5c0,3.3,1.3,6.4,3.4,8.6C191.8,69.1,191.2,67,191.2,64.8z"/>
</g>
</svg>
