<?xml version="1.0" encoding="utf-8"?>
<!-- Generator: Adobe Illustrator 19.2.0, SVG Export Plug-In . SVG Version: 6.00 Build 0)  -->
<svg version="1.1" id="Layer_1" xmlns="http://www.w3.org/2000/svg" xmlns:xlink="http://www.w3.org/1999/xlink" x="0px" y="0px"
	 viewBox="0 0 400 400" style="enable-background:new 0 0 400 400;" xml:space="preserve">
<g>
	<rect x="50" y="50" style="fill:#FFFFFF;" width="300" height="300"/>
	<g>
		<path d="M240.8,296.7c-0.1-0.5-0.2-1-0.2-1.6c0-10.6,0-21.3,0-31.9c0-0.4,0-0.9,0.1-1.4c3.8,0,7.6,0,11.5,0c0-7.3,0-14.4,0-21.5
			c0,0,0,0,0,0c0.5,0,1.1-0.1,1.6-0.1c2.3,0,4.6,0,6.9,0c0.5,0,0.9-0.1,1.4-0.1c0-3.9,0-7.7,0-11.6c-0.6,0-1.1,0-1.7,0
			c-2.7,0-5.5,0-8.2-0.1l0,0c0-7.7,0-15.3,0-23.2c-7.8,0-15.5,0-23.2,0c0-4,0-7.8,0-11.6l0,0c3.8,0,7.7,0,11.6,0
			c0-0.6,0.1-1.1,0.1-1.6c0-1.8,0-3.6,0-5.4c0-1.5,0.1-3,0.1-4.5l0,0c0.7,0,1.4-0.1,2-0.1c5.9,0,11.8,0,17.7,0
			c0.6,0,1.2,0.1,1.8,0.1c0,0-0.1-0.1-0.1-0.1c0,11.3,0,22.6,0,33.8c0,0.3,0.1,0.5,0.2,1c3.8,0,7.6,0,11.4,0l0,0
			c0,3.8,0.1,7.6,0.1,11.6c3.9,0,7.7,0,11.5,0c0,3.9,0,7.7,0,11.6c-3.8,0-7.6,0-11.4,0c-0.3,2.5-0.2,10.4,0.1,11.4
			c3.7,0,7.5,0,11.4,0c0.1-3.8,0-7.6,0.1-11.5c1.8,0,3.5,0,5.2,0c2.2,0,4.3,0.1,6.5,0.1l0,0c0,3.8,0,7.5,0,11.5c3.9,0,7.6,0,11.5,0
			c0,3.4,0,6.6,0,10c-7.7,0-15.3,0-23,0c0,3.9,0,7.7,0,11.6c7.7,0,15.3,0,23.1,0c0,3.9,0,7.6,0,11.6c-3.8,0.1-7.6,0-11.5,0.1
			c0,3.8,0,7.6,0,11.5c-3.9,0.2-7.7,0-11.5,0.1c-0.4-1.3-0.1-2.6-0.2-3.9c0-1.2,0-2.5,0-3.7c0-1.3,0-2.5,0-4c-2-0.1-3.9-0.1-5.8-0.1
			c-1.9,0-3.8,0-5.9,0c0-3.9,0-7.7,0-11.5c-7.2,0-14.2,0-21.5,0c0,0.6,0,1.1,0,1.6c0,6.6,0,13.2,0,19.9c0,0.6,0,1.2-0.1,1.8l0,0
			c-3.6,0-7.2,0-10.8,0C241.2,296.6,241,296.7,240.8,296.7L240.8,296.7z"/>
		<path d="M182.7,217.1c-3.8,0-7.6,0-11.6,0c0-3.9,0-7.7,0-11.6c3.8,0,7.5,0,11.4,0c0-3.9,0-7.7,0-11.6c-0.6,0-1.1,0-1.6,0
			c-6.6,0-13.3,0-19.9,0c-0.6,0-1.2-0.1-1.7-0.1c0,0,0,0,0,0c0-3.8,0-7.5,0-11.3c0,0,0,0,0,0c0.5-0.1,1.1-0.2,1.6-0.2
			c2.8,0,5.7,0,8.5,0c0.5,0,1,0,1.6,0c0-3.9,0-7.6,0-11.5c11.6,0,23.1,0,34.7,0c0.2-3.9,0-7.6,0.1-11.5c1.3-0.3,2.6-0.1,3.8-0.2
			c1.3,0,2.5,0,3.8,0c1.3,0,2.5,0,3.9,0c0-3.9,0-7.6,0-11.3c-1-0.3-9.6-0.4-11.5-0.1c0,3.7,0,7.5,0,11.3c-3.9,0-7.7,0-11.6,0
			c0-3.8,0-7.6,0-11.3c-0.3-0.1-0.5-0.1-0.7-0.1c-3.4,0-6.8,0-10.2,0c-0.2,0-0.4,0.1-0.6,0.1l0,0c-0.1-0.2-0.2-0.4-0.2-0.6
			c0-3.2,0-6.4,0.1-9.6c0,0,0,0,0,0c7.7,0,15.3,0,23.1,0c0.1-3.9,0-7.7,0.1-11.6c1.8,0,3.5,0,5.2,0c2.2,0,4.3,0.1,6.5,0.1l0,0
			c0,3.8,0,7.5,0,11.5c3.9,0,7.6,0,11.5,0c0,11.1,0,22,0,33c3.9,0.2,7.7,0,11.6,0.2c0,3.9,0.1,7.8,0.1,11.6c0,0,0,0,0,0
			c-1.3,0-2.6,0-4,0c-1.3,0-2.5,0-3.8,0c-1.3,0-2.6-0.2-4,0.2c0,0.7,0,1.2,0,1.8c0,3.2,0,6.4-0.1,9.5l0,0c-3.8,0-7.6,0.1-11.5,0.1
			c0,0.7,0,1.2,0,1.8c0,4.2,0,8.4,0,12.6c0,2.9,0,5.9,0.1,8.8c-0.3,0-0.7,0-1,0c-7.4,0-14.9,0-22.3,0l0,0c0-3.8,0-7.7,0-11.5
			c-4,0-7.7,0-11.5,0C182.6,209.5,182.6,213.3,182.7,217.1L182.7,217.1z M205.7,182.4c-2.1-0.3-10.4-0.2-11.4,0.1
			c-0.3,2.8-0.1,10.2,0.2,11.2c3.8,0,7.5,0,11.3,0C205.7,189.9,205.7,186.2,205.7,182.4z"/>
		<path d="M240.7,158.9c0-26.4,0-52.7,0-79.2c26.4,0,52.8,0,79.3,0c0,26.4,0,52.8,0,79.2C318.8,159.2,242.3,159.2,240.7,158.9z
			 M252.2,91.3c0,18.8,0,37.5,0,56.2c18.8,0,37.4,0,56.1,0c0-18.8,0-37.4,0-56.2C289.6,91.3,271,91.3,252.2,91.3z"/>
		<path d="M159.3,79.7c0,26.5,0,52.9,0,79.3c-26.5,0-52.8,0-79.3,0c0-26.4,0-52.8,0-79.3C106.4,79.7,132.8,79.7,159.3,79.7z
			 M147.8,91.3c-18.7,0-37.4,0-56.1,0c-0.4,1.6-0.3,55.1,0.1,56.2c3.7,0.3,54.9,0.2,56-0.2C147.8,128.7,147.8,110,147.8,91.3z"/>
		<path d="M159.3,319.7c-26.5,0-52.9,0-79.3,0c0-26.4,0-52.8,0-79.2c1-0.3,77.3-0.4,79.3-0.1C159.3,266.8,159.3,293.2,159.3,319.7z
			 M147.8,251.9c-18.7,0-37.4,0-56.2,0c0,18.7,0,37.4,0,56c1.7,0.3,55.1,0.2,56.2-0.1C147.8,289.3,147.8,270.6,147.8,251.9z"/>
		<path d="M137.9,217.1c-0.5,0-1.1,0-1.6,0c-10.4,0-20.8,0-31.2,0c-0.6,0-1.2,0-1.9,0c0,3.9,0,7.6,0,11.5c-7.8,0-15.4,0-23.1,0
			c0-19.2,0-38.4,0-57.7c15.4,0,30.7,0,46.1,0c0.3,1,0.4,9.3,0.1,11.5c-1.8,0-3.7,0-5.6,0c-1.9,0-3.8,0-5.8,0c0,0.6-0.1,1.1-0.1,1.6
			c0,2.8,0,5.6,0,8.4c0,0.5-0.1,1-0.1,1.4c-0.5,0-1.1,0.1-1.6,0.1c-6.6,0-13.1,0-19.7,0c-0.5,0-1,0-1.6,0c0,3.9,0,7.7,0,11.5
			c7.7,0,15.3,0,23,0c0-0.3,0.1-0.6,0.1-0.8c0-3.3,0-6.6,0-9.9c0-0.3-0.1-0.7-0.2-1c0.6,0.1,1.2,0.1,1.7,0.1c6.6,0,13.2,0,19.9,0
			c0.5,0,1.1,0,1.7,0c0.1,0.4,0.1,0.7,0.1,1c0,7.3,0,14.5,0,21.8C137.9,216.8,137.8,217,137.9,217.1L137.9,217.1z"/>
		<path d="M252.2,240.3c-3.7,0-7.5,0-11.2,0c-0.1,0-0.2,0.1-0.4,0.2c0,3.7,0,7.4,0,11.3c-11.6,0-23.1,0-34.8,0
			c-0.1,3.7,0,7.2,0,10.8c0,3.5,0,7,0,10.7c-3.9,0-7.7,0-11.6,0c0-3.8,0-7.5,0-11.5c-3.9,0-7.7,0-11.5,0c0-0.5-0.1-0.8-0.1-1.2
			c0-6.6,0-13.2,0-19.7c0-0.2,0-0.4,0.1-0.6c0,0,0,0,0,0c0.5,0,1.1-0.1,1.6-0.1c2.8,0,5.6,0,8.3,0c0.5,0,1,0,1.6-0.1
			c0-3.9,0-7.8,0-11.6l0,0c7.6,0,15.2,0,22.7,0c0.2,0,0.4,0,0.6-0.1c0,3.9,0,7.7,0,11.6c3.9,0,7.6,0,11.3,0c0.1-0.2,0.2-0.3,0.2-0.3
			c0-3.8,0-7.5,0-11.3c0.2,0,0.4,0.1,0.6,0.1c7.6,0,15.2,0,22.7,0l0,0C252.1,232.5,252.1,236.4,252.2,240.3
			C252.1,240.4,252.2,240.3,252.2,240.3z"/>
		<path d="M194.1,296.6c4,0,7.7,0,11.5,0c0,7.8,0,15.4,0,23.1c-11.6,0-23,0-34.5,0c0-15.4,0-30.7,0-46.1c1-0.3,9-0.4,11.4-0.1
			c0.2,3.7,0,7.5,0.1,11.4c3.8,0.1,7.6,0,11.5,0.1C194.1,288.9,194.1,292.6,194.1,296.6z"/>
		<path d="M194.1,102.8c0-7.7,0-15.4,0-23.2c11.6,0,23.1,0,34.5,0c0.3,1,0.4,9.7,0.1,11.5c-3.7,0-7.4,0-11,0
			c-0.2,0.2-0.2,0.2-0.2,0.2c0,0-0.1,0.1-0.1,0.1c0,7.6,0,15.2-0.1,22.8l0,0c-3.8,0.1-7.7,0.1-11.7,0c0-3.9,0-7.6,0-11.5
			C201.7,102.8,197.9,102.8,194.1,102.8L194.1,102.8z"/>
		<path d="M296.9,193.8c3.8,0,7.5,0,11.5,0c0.1-1.6,0-3.1,0.1-4.6c0-1.5,0-3,0-4.6c0-1.6,0-3.1,0-4.7c0-1.5,0-3,0-4.6
			c0-1.5,0-3,0-4.6c3.9,0,7.7,0,11.6,0c0,15.4,0,30.7,0,46.3c-3.9,0-7.8,0-11.6,0l0,0c0-3.8,0-7.7,0-11.7c-3.9,0-7.7,0-11.5,0
			C296.9,201.4,296.9,197.6,296.9,193.8L296.9,193.8z"/>
		<path d="M262.2,182.4c0-3.8,0-7.6,0-11.4c1.1-0.3,32.6-0.4,34.7-0.1c0,7.6,0,15.3,0,23c0,0,0,0,0,0c-7.5,0-15.1,0-22.6,0
			c-0.2,0-0.4-0.1-0.7-0.2c0-3.8,0-7.5,0-11.3C269.7,182.3,265.9,182.3,262.2,182.4L262.2,182.4z"/>
		<path d="M182.7,137.6c-3.8,0-7.6,0-11.6,0c0-11.6,0-23,0-34.6c0.2-0.1,0.4-0.2,0.7-0.2c7.5,0,14.9,0,22.4,0c0,0,0,0,0,0
			c0,0.1,0,0.3,0,0.4c0,7.2,0,14.4,0,21.6c0,0.3-0.1,0.7-0.1,1.2c-3.8,0-7.5,0-11.4,0C182.6,130,182.6,133.8,182.7,137.6
			L182.7,137.6z"/>
		<path d="M308.4,217.1c0,3.2,0.1,6.4,0.1,9.6c0,0.6,0,1.2,0,2c2,0.1,3.9,0,5.8,0c1.9,0,3.8,0,5.8,0c0,3.9,0,7.7,0,11.6
			c-0.6,0-1.1,0.1-1.6,0.1c-6.6,0-13.2,0-19.7,0c-0.6,0-1.2,0.1-1.8,0.1c0,0,0,0,0,0c0-7.6,0-15.2,0-22.7c0-0.2,0.1-0.4,0.2-0.5
			C300.9,217.1,304.6,217.1,308.4,217.1L308.4,217.1z"/>
		<path d="M240.8,296.7c-0.1,0.5-0.2,1-0.2,1.5c0,6.6,0,13.1,0,19.7c0,0.5,0,1.1,0,1.5c-1.3,0.3-10.2,0.4-11.6,0c0-0.5,0-1,0-1.5
			c0-6.6,0-13.1,0-19.7c0-0.5-0.1-1.1-0.2-1.6c0,0,0,0,0,0C232.8,296.7,236.8,296.7,240.8,296.7
			C240.8,296.7,240.8,296.7,240.8,296.7z"/>
		<path d="M217.4,273.3c0,3.8,0,7.6,0,11.6c3.9,0,7.6,0,11.4,0c0.1,0.3,0.2,0.5,0.2,0.7c0,3.4,0,6.9,0,10.3c0,0.3-0.1,0.6-0.2,0.9
			c0,0,0,0,0,0c-0.5,0-1.1-0.1-1.6-0.1c-3.2,0-6.4,0-9.6,0c-0.4-1.3-0.1-2.6-0.2-3.8c0-1.3,0-2.5,0-3.8c0-1.3,0-2.5,0-3.9
			c-3.9,0-7.6,0-11.5,0c0-3.9,0-7.7,0-11.6C209.7,273.3,213.6,273.4,217.4,273.3L217.4,273.3z"/>
		<path d="M137.8,217.2c0.3,0,0.7-0.1,1-0.1c6.4,0,12.9,0,19.3,0c0.4,0,0.8,0,1.2,0.1c0,3.8,0,7.5,0,11.2c-1,0.3-18.6,0.4-21.4,0.1
			C137.9,224.7,137.9,220.9,137.8,217.2C137.9,217.1,137.8,217.2,137.8,217.2z"/>
		<path d="M171.1,91.1c0-3.8,0-7.6,0-11.4c3.8,0,7.6,0,11.4,0c0,3.8,0,7.6,0,11.4C178.7,91.1,175,91.1,171.1,91.1z"/>
		<path d="M182.7,240.3c-3.2,0-6.5-0.1-9.7-0.1c-0.6,0-1.2,0-1.8,0c0-3.9,0-7.6,0-11.6c3.9,0,7.7,0,11.5-0.1c0,0,0,0,0,0
			C182.6,232.5,182.6,236.4,182.7,240.3C182.6,240.4,182.7,240.3,182.7,240.3z"/>
		<path d="M285.4,319.8c0-4,0-7.7,0-11.5c3.8,0,7.6,0,11.4,0c0,3.8,0,7.6,0,11.5C293,319.8,289.3,319.8,285.4,319.8z"/>
		<path d="M217.4,114.3c3.8,0,7.5,0,11.3,0c0.3,1.1,0.4,9.7,0.1,11.7c-0.5,0-1,0-1.5,0c-3.3,0-6.6,0.1-9.8,0.1c0,0,0,0,0,0
			C217.4,122.2,217.4,118.2,217.4,114.3L217.4,114.3z"/>
		<path d="M308.5,308.1c0-3.9,0-7.6,0-11.4c3.8,0,7.6,0,11.5,0c0,3.8,0,7.6,0,11.4C316.1,308.1,312.4,308.1,308.5,308.1z"/>
		<path d="M159.3,182.4c-0.5-0.1-1-0.1-1.4-0.1c-2.8,0-5.6,0-8.4,0c-0.5,0-1,0-1.5,0c0-3.9,0-7.6,0-11.5c3.7,0,7.5,0,11.3,0
			c0,0.2,0.1,0.3,0.1,0.5c0,3.5,0,6.9,0,10.4C159.4,182,159.3,182.2,159.3,182.4C159.3,182.5,159.3,182.4,159.3,182.4z"/>
		<path d="M159.3,193.7c0,0.6,0.1,1.3,0.1,1.9c0,2.7,0,5.5,0,8.2c0,0.5,0,1,0,1.5c-3.9,0-7.6,0-11.5,0c0-3.8,0-7.5,0-11.4
			c0.4,0,0.8-0.1,1.3-0.1c2.9,0,5.8,0,8.7,0C158.3,193.8,158.8,193.8,159.3,193.7C159.3,193.8,159.3,193.7,159.3,193.7z"/>
		<path d="M182.7,147.7c-0.1,0.5-0.1,1-0.1,1.4c0,2.8,0,5.6,0,8.4c0,0.5,0,1-0.1,1.5c-3.9,0-7.6,0-11.4,0c0-3.8,0-7.5,0-11.3
			c0.2-0.1,0.4-0.2,0.7-0.2c3.4,0,6.8,0,10.2,0C182.2,147.5,182.5,147.7,182.7,147.7C182.8,147.7,182.7,147.7,182.7,147.7z"/>
		<path d="M182.7,228.6c0-3.8,0-7.7,0-11.5c0,0,0,0,0,0c3.8,0,7.7,0,11.5,0c0,0,0,0,0,0c0,3.8,0,7.7,0,11.5l0,0
			C190.3,228.5,186.5,228.5,182.7,228.6L182.7,228.6z"/>
		<path d="M217.4,273.4c0-3.8,0-7.5,0-11.3c1-0.3,9.6-0.4,11.4-0.1c0,3.7,0,7.5,0,11.3C225,273.3,221.2,273.3,217.4,273.4
			L217.4,273.4z"/>
		<path d="M252.1,296.7c3.3,0,6.5,0,9.9,0c0,3.8,0,7.5,0,11.4c-3.2,0-6.4,0-9.8,0C252.2,304.2,252.1,300.4,252.1,296.7
			C252.1,296.6,252.1,296.7,252.1,296.7z"/>
		<path d="M273.7,217.1c0-3.8,0-7.6,0-11.6c3.9,0,7.6,0,11.6,0c0,3.8,0,7.5,0,11.5C281.3,217.1,277.5,217,273.7,217.1
			C273.6,217.1,273.7,217.1,273.7,217.1z"/>
		<path d="M228.9,228.6c-3.8,0-7.7,0-11.5,0c0-3.8,0-7.7,0-11.5c3.8,0,7.6,0,11.5,0C228.9,221,228.9,224.8,228.9,228.6z"/>
		<path d="M262.2,102.9c11.6,0,23,0,34.6,0c0,11.5,0,23,0,34.4c-1,0.3-31.9,0.4-34.6,0.1C262.2,126,262.2,114.5,262.2,102.9z"/>
		<path d="M137.8,102.9c0,11.5,0,23,0,34.5c-11.5,0-23,0-34.4,0c-0.3-1-0.5-31.7-0.1-34.5C104.3,102.7,135.8,102.7,137.8,102.9z"/>
		<path d="M137.8,296.5c-11.6,0-23,0-34.4,0c-0.3-1.1-0.5-31.6-0.2-34.5c1-0.3,32.5-0.4,34.6-0.1
			C137.8,273.4,137.8,284.9,137.8,296.5z"/>
	</g>
	<polygon style="fill:#EC1C24;" points="120,40 55,40 40,40 40,55 40,120 55,120 55,55 120,55 	"/>
	<polygon style="fill:#EC1C24;" points="360,120 360,55 360,40 345,40 280,40 280,55 345,55 345,120 	"/>
	<polygon style="fill:#EC1C24;" points="280,360 345,360 360,360 360,345 360,280 345,280 345,345 280,345 	"/>
	<polygon style="fill:#EC1C24;" points="40,280 40,345 40,360 55,360 120,360 120,345 55,345 55,280 	"/>
	<rect x="60" y="190" style="fill:#EC1C24;" width="280" height="20"/>
</g>
</svg>
