<?xml version="1.0" encoding="utf-8"?>
<!-- Generator: Adobe Illustrator 19.1.0, SVG Export Plug-In . SVG Version: 6.00 Build 0)  -->
<svg version="1.1" id="Layer_1" xmlns="http://www.w3.org/2000/svg" xmlns:xlink="http://www.w3.org/1999/xlink" x="0px" y="0px"
	 viewBox="0 0 400 400" style="enable-background:new 0 0 400 400;" xml:space="preserve">
<g>
	<path style="fill:#F48020;" d="M180,227.5v100c0,5.5,9,10,20,10c11,0,20-4.5,20-10v-100H180z"/>
	<path style="fill:#DC7127;" d="M214.5,220.6L210,215h-20l-4.5,5.6l-5.5,6.9c0,5.5,9,10,20,10s20-4.5,20-10L214.5,220.6z"/>
	<path style="fill:#F48020;" d="M190,187.5V215c0,2.8,4.5,5,10,5s10-2.2,10-5v-27.5H190z"/>
	<circle style="opacity:0.33;fill:#2488C9;" cx="200" cy="127.5" r="55"/>
	<path style="fill:#231F20;" d="M200,62.5c-35.9,0-65,29.1-65,65s29.1,65,65,65s65-29.1,65-65S235.9,62.5,200,62.5z M200,182.5
		c-30.4,0-55-24.6-55-55s24.6-55,55-55s55,24.6,55,55S230.4,182.5,200,182.5z"/>
	<g style="opacity:0.5;">
		<path style="fill:#FFFFFF;" d="M171.8,92.7c11.1-9.9,25-14.6,38.2-14c-14.3-3.2-29.9,0.2-41.6,10.5L171.8,92.7z"/>
		<path style="fill:#FFFFFF;" d="M164.8,92.6c-10.6,11.4-14.7,26.8-11.9,41.2c-0.1-13.2,5.1-26.9,15.4-37.6L164.8,92.6z"/>
	</g>
</g>
</svg>
