<?xml version="1.0" encoding="utf-8"?>
<!-- Generator: Adobe Illustrator 19.1.0, SVG Export Plug-In . SVG Version: 6.00 Build 0)  -->
<svg version="1.1" id="Layer_1" xmlns="http://www.w3.org/2000/svg" xmlns:xlink="http://www.w3.org/1999/xlink" x="0px" y="0px"
	 viewBox="0 0 400 400" style="enable-background:new 0 0 400 400;" xml:space="preserve">
<g>
	<path style="fill:#FFFFFF;" d="M333,105H67c-6.6,0-12-5.4-12-12V67c0-6.6,5.4-12,12-12h266c6.6,0,12,5.4,12,12v26
		C345,99.6,339.6,105,333,105z"/>
	<path style="fill:#B3B2B3;" d="M340.2,55H295v50.2h45.2c2.8,0,5-2.2,5-5V60C345.2,57.2,343,55,340.2,55z"/>
	<path style="fill:#808184;" d="M334.1,72.1l-10.5,18.2c-0.9,1.5-3.1,1.5-4,0l-10.5-18.2c-0.9-1.5,0.2-3.4,2-3.4h21
		C333.9,68.7,335,70.6,334.1,72.1z"/>
	<line style="fill:none;stroke:#231F20;stroke-miterlimit:10;" x1="70" y1="60" x2="70" y2="100"/>
	<path style="fill:#231F20;" d="M40,40v80h320V40H40z M345,93c0,6.6-5.4,12-12,12H67c-6.6,0-12-5.4-12-12V67c0-6.6,5.4-12,12-12h266
		c6.6,0,12,5.4,12,12V93z"/>
	<rect x="80" y="120" style="fill:#231F20;" width="240" height="240"/>
	<path style="fill:#FFFFFF;" d="M293,346.2H107c-6.6,0-12-5.4-12-12V120h210v214.2C305,340.8,299.6,346.2,293,346.2z"/>
	<rect x="104.3" y="160" style="fill:#1B75BB;" width="190.7" height="15.6"/>
	<rect x="104.3" y="222.4" style="fill:#1B75BB;" width="190.7" height="15.6"/>
	<rect x="104.3" y="284.9" style="fill:#1B75BB;" width="190.7" height="15.6"/>
</g>
</svg>
