<?xml version="1.0" encoding="utf-8"?>
<!-- Generator: Adobe Illustrator 19.2.0, SVG Export Plug-In . SVG Version: 6.00 Build 0)  -->
<svg version="1.1" id="Layer_1" xmlns="http://www.w3.org/2000/svg" xmlns:xlink="http://www.w3.org/1999/xlink" x="0px" y="0px"
	 viewBox="0 0 400 400" style="enable-background:new 0 0 400 400;" xml:space="preserve">
<g>
	<rect x="28.6" y="25.5" style="fill:#FAAF40;" width="337.8" height="285"/>
	<circle style="fill:#C3996B;" cx="197.5" cy="130.1" r="62.4"/>
	<path style="fill:#652D90;" d="M291,342.2l-0.3-64.2l0,0c-5.2-48.1-45.1-85.5-93.3-85.5s-88.1,37.4-93.3,85.5l0,0l-0.3,64.2H291z"
		/>
	<path style="fill:#FFFFFF;" d="M7.5,4.4v380h380V4.4H7.5z M366.4,310.5H28.6v-285h337.8V310.5z"/>
	<path style="fill:#FFFFFF;" d="M350.5,63.3l34.1,34.1L120.5,361.5L15.4,256.4l34.1-34.1l71,71L350.5,63.3 M350.5,50.4l-6.4,6.4
		L120.5,280.5l-64.6-64.6l-6.4-6.4l-6.4,6.4L8.9,250l-6.4,6.4l6.4,6.4L114,368l6.4,6.4l6.4-6.4l264.2-264.2l6.4-6.4l-6.4-6.4
		L357,56.9L350.5,50.4L350.5,50.4z M344.1,56.9L120.5,280.5"/>
	<path style="fill:#FFFFFF;" d="M120.5,395.6L-18.7,256.4l68.2-68.2l71,71L350.5,29.2l68.2,68.2L120.5,395.6z M36.6,256.4l83.9,83.9
		L363.4,97.4l-12.9-12.9L120.5,314.6l-71-71L36.6,256.4z"/>
	<g>
		<polygon style="fill:#19B14B;" points="8.3,256.4 49.5,215.3 120.5,286.3 350.5,56.2 391.7,97.4 120.5,368.6 		"/>
		<path style="fill:#19B14B;" d="M350.5,63.3l34.1,34.1L120.5,361.5L15.4,256.4l34.1-34.1l71,71L350.5,63.3 M350.5,49.2l-7.1,7.1
			l-223,223l-63.9-63.9l-7.1-7.1l-7.1,7.1L8.3,249.4l-7.1,7.1l7.1,7.1l105.1,105.1l7.1,7.1l7.1-7.1l264.2-264.2l7.1-7.1l-7.1-7.1
			l-34.1-34.1L350.5,49.2L350.5,49.2z"/>
	</g>
</g>
</svg>
