<?xml version="1.0" encoding="utf-8"?>
<!-- Generator: Adobe Illustrator 19.1.0, SVG Export Plug-In . SVG Version: 6.00 Build 0)  -->
<svg version="1.1" id="Layer_1" xmlns="http://www.w3.org/2000/svg" xmlns:xlink="http://www.w3.org/1999/xlink" x="0px" y="0px"
	 viewBox="0 0 400 400" style="enable-background:new 0 0 400 400;" xml:space="preserve">
<g>
	<g>
		<path style="fill:#231F20;" d="M40,70v120h240V70H40z M265,163c0,6.6-5.4,12-12,12H67c-6.6,0-12-5.4-12-12V97c0-6.6,5.4-12,12-12
			h186c6.6,0,12,5.4,12,12V163z"/>
		<path style="fill:#FFFFFF;" d="M253,175H67c-6.6,0-12-5.4-12-12V97c0-6.6,5.4-12,12-12h186c6.6,0,12,5.4,12,12v66
			C265,169.6,259.6,175,253,175z"/>
		<line style="fill:none;stroke:#231F20;stroke-width:3;stroke-miterlimit:10;" x1="70" y1="150" x2="250" y2="150"/>
		<text transform="matrix(1 0 0 1 65 150)" style="fill:#2488C9; font-family:'Vivaldii'; font-size:48px;">Signaure</text>
	</g>
	<g>
		<path style="fill:#231F20;" d="M80,140v120h240V140H80z M305,233c0,6.6-5.4,12-12,12H107c-6.6,0-12-5.4-12-12v-66
			c0-6.6,5.4-12,12-12h186c6.6,0,12,5.4,12,12V233z"/>
		<path style="fill:#FFFFFF;" d="M293,245H107c-6.6,0-12-5.4-12-12v-66c0-6.6,5.4-12,12-12h186c6.6,0,12,5.4,12,12v66
			C305,239.6,299.6,245,293,245z"/>
		<line style="fill:none;stroke:#231F20;stroke-width:3;stroke-miterlimit:10;" x1="110" y1="220" x2="290" y2="220"/>
		<text transform="matrix(1 0 0 1 105 220)" style="fill:#2488C9; font-family:'Vivaldii'; font-size:48px;">Signaure</text>
	</g>
	<g>
		<path style="fill:#231F20;" d="M120,210v120h240V210H120z M345,303c0,6.6-5.4,12-12,12H147c-6.6,0-12-5.4-12-12v-66
			c0-6.6,5.4-12,12-12h186c6.6,0,12,5.4,12,12V303z"/>
		<path style="fill:#FFFFFF;" d="M333,315H147c-6.6,0-12-5.4-12-12v-66c0-6.6,5.4-12,12-12h186c6.6,0,12,5.4,12,12v66
			C345,309.6,339.6,315,333,315z"/>
		<line style="fill:none;stroke:#231F20;stroke-width:3;stroke-miterlimit:10;" x1="150" y1="290" x2="330" y2="290"/>
		<text transform="matrix(1 0 0 1 145 290)" style="fill:#2488C9; font-family:'Vivaldii'; font-size:48px;">Signaure</text>
	</g>
</g>
</svg>
