<?xml version="1.0" encoding="utf-8"?>
<!-- Generator: Adobe Illustrator 19.2.0, SVG Export Plug-In . SVG Version: 6.00 Build 0)  -->
<svg version="1.1" id="Layer_1" xmlns="http://www.w3.org/2000/svg" xmlns:xlink="http://www.w3.org/1999/xlink" x="0px" y="0px"
	 viewBox="0 0 400 400" style="enable-background:new 0 0 400 400;" xml:space="preserve">
<g>
	<rect x="40" y="120" style="fill:#231F20;" width="320" height="160"/>
	<path style="fill:#FFFFFF;" d="M333,265H67c-6.6,0-12-5.4-12-12V147c0-6.6,5.4-12,12-12h266c6.6,0,12,5.4,12,12v106
		C345,259.6,339.6,265,333,265z"/>
	<g>
		<path style="fill:#224099;" d="M193.1,213.2c-0.9,0.6-1.9,1.1-2.7,1.8c-3.5,2.8-6.4,6.2-8.4,10.2c-2.1,4.2-4,8.5-6.1,12.8
			c-0.2,0.4-0.4,0.8-0.7,1.4c-0.4-0.3-1.1-0.6-1-0.8c0.2-1.4,0.5-2.9,0.9-4.3c2-6,4-11.9,6-17.9c0.5-1.5,0.3-2.8-0.9-4.1
			c-1.8,0.1-3.3,1.2-4.5,2.5c-2.4,2.6-4.8,5.3-7.1,8.1c-2.7,3.2-5.2,6.4-7.8,9.7c-2.6,3.4-4.5,7-5.4,11.4
			c-1.1,5.5-3.4,10.7-6.3,15.7c-1,1.7-1.9,3.5-2.8,5.2c-0.4,0.7-0.9,1.5-1.5,2.1c-1.9,2.2-4.2,1.7-5.1-1.1c-0.2-0.5-0.3-1.1-0.3-1.7
			c0-3.1,0.5-6.1,2.1-8.6c2.8-4.3,5.7-8.4,8.7-12.5c1-1.4,2.2-2.6,3.3-3.9c0.6-0.7,1.1-1.5,1.6-2.4c-3.6,0.8-7.3,1.3-10.2-1
			c-2.9-2.3-4.1-5.8-3.5-9.8c-0.4,0.4-0.9,0.8-1.2,1.2c-1.6,2.5-3.2,5.1-4.8,7.7c-3,4.6-5.9,5-9.9,3.7c-2.1-0.7-2.7-3.1-2.9-5
			c-0.4-3.2,0.4-6.2,1.1-9.2c0.2-0.7,0.4-1.4,0.7-2.7c-2.7,2-4.8,3.8-7.1,5.2c-2.4,1.4-5,2.5-7.9,3.9c-0.4,2.2-1.9,4.2-3.8,6
			c-1,0.9-1.8,1.1-3,1c-3.4-0.2-6.8-1-9.3-3.4c-0.8-0.8-1.5-1.5-2.5-2.2c-0.8,0.6-1.6,1.1-2.4,1.8c-3.2,2.5-6.9,3.7-11,4
			c-0.8,0.1-1.5-0.1-1.8-1.3c5.4-0.4,9.9-2.7,13.7-6.6c-2.4-4.1-3.7-9.6-2.4-14.4c1.3,0.9,1.8,2.2,2.2,3.1c0.6,1.4,1.4,2.3,2.2,3.5
			c0.6,0.9,1.6,1.5,2.6,2.3c1.8-2.3,3.4-4.4,4.9-6.5c2.6-3.5,5.2-7,7.5-10.6c0.8-1.2,1.3-2.7,1.5-4.2c0.6-4,0.7-8.1,1.4-12
			c0.7-3.8,2.2-7.2,5.7-9.4c0.4-0.3,0.8-0.6,1.2-0.7c3.2-1.3,5-0.1,5.1,3.3c0.1,2-0.5,3.7-1.5,5.4c-2,3.5-4.2,6.9-6.3,10.4
			c-0.6,1-1.3,2.1-2,3.1c-1.1,1.7-1.6,3.5-1.5,5.6c0.2,5,0.2,10,0.2,15c0,1.2-0.1,2.4-0.2,3.8c0.8-0.2,1.5-0.2,2-0.5
			c4.2-2.2,8.3-4.4,11.4-8.2c1.4-1.7,2.6-3.4,3.3-5.5c0.2-0.7,0.5-1.5,1-2c0.5-0.4,1.3-0.5,1.9-0.7c0,0.7,0.3,1.4,0.1,2
			c-0.8,2.3-2,4.5-2.7,6.8c-1,3.6-1.7,7.3-2.5,11c-0.2,0.7,0,1.5,0,2.2c0.2,4,3.3,4.7,6.5,3.6c1.5-0.5,2.2-1.9,3.1-3.2
			c3.2-5.2,6.4-10.4,10.5-15.1c3.2-3.7,7.5-5.1,12-5.5c5.7-0.6,6.1,2.2,5.8,6.5c-0.2,3.2-1.2,6.4-1.9,9.9c1.1-0.5,1.6-1.6,2.2-2.4
			c0.7-0.8,1.5-1.6,2.3-2.5c3.2-3.7,6.4-7.4,9.6-11c0.9-1,2.2-1.8,3.4-2.4c1.6-0.8,2.6-0.3,3.7,1.3c0.9,1.3,1.1,2.8,1,4.3
			c-0.1,0.9-0.2,1.8-0.3,2.9c4-3.2,7.9-8.8,12.3-8.4c1.2,0.2,1.1,2.7,0.8,4c-0.7,3.9-1.5,7.8-2.1,11.7c-0.3,2.3-0.3,4.7-0.3,7
			c0,1.5,0.9,2.5,2.3,2.8c1.8,0.5,3.7,1,5.5-0.1c0.4-0.2,0.8-0.2,1.5-0.3c-2.2,2.5-4.9,3.3-8,2.1c-2.4-0.9-3.1-2.8-3.5-5.2
			c-0.6-3.9,0.8-7.4,1.4-11.1c0.4-2.7,0.7-5.4,1-8C193.7,213,193.5,213,193.1,213.2z M160.4,215.9c-1.2-1.4-4.2-1.2-6.6-0.6
			c-4.6,1.6-6,4-8.6,8.1c-0.6,1.4-0.8,2.9-1.1,4.2c-0.6,3,1.2,6.6,3.4,7.4c3,1.1,6.7,0,8.5-2.7c0.9-1.3,1.6-2.8,2.1-4.3
			c0.8-2.5,1.5-5,2.1-7.6C160.6,218.8,161.1,217.5,160.4,215.9z M96.4,225.3c4.4,2.1,7.8,3.3,11.6,3c0.5-5.7,0.8-12.2-0.4-18.1
			C104.1,215.1,100.1,220.3,96.4,225.3z M142.6,266.5c0.6-0.7,1-1.1,1.3-1.5c1.3-2.2,2.6-4.3,3.9-6.5c2.5-4.4,4.5-9.1,5.8-14
			c0.1-0.4,0-1-0.1-1.4c-0.2-0.1-0.4-0.1-0.6-0.2c-3,4.3-6,8.6-9,12.9c-0.7,1-1.3,2.1-1.6,3.3C141.6,261.4,140.6,263.8,142.6,266.5z
			 M95.3,227.1c-0.6,0.8-1.6,2.1-2.3,3c2.1,2.6,4.6,4.2,7.4,5c3.2,1,6.5-1,6.8-4.9C103,229.6,99.5,228.6,95.3,227.1z M110.8,199
			c0.2,0.1,0.5,0.1,0.7,0.2c1.1-1.6,2.2-3.2,3.2-4.9c1.5-2.8,3-5.6,4.3-8.5c0.4-0.8,0.2-1.8,0.3-3c-2.5,0.7-4.3,1.8-5.5,3.5
			C111,190.1,111.4,194.6,110.8,199z M93.1,226c-0.5-0.6-1-1-1.5-1.5c-0.5-0.5-1.1-0.9-1.6-1.3c-0.4-0.3-0.7-0.4-0.5,0.3
			c0.5,1.3,1,2.6,1.6,4.2C91.9,227,92.5,226.6,93.1,226z"/>
		<path style="fill:#224099;" d="M292.8,220.9c-1.7-2.2-3.3-4.3-5.1-6.6c-0.4,1.5-0.9,2.7-1.1,4.1c-0.6,4.3-2.7,8-5.1,11.5
			c-1.2,1.8-2.3,3.7-3.6,5.4c-0.7,1-1.8,1.7-2.7,2.5c-3,2.6-7.9,2-9.7-2.4c-0.8-1.9-1.4-3.9-2.2-6c-1.5,0.1-3,0.4-4.5,0.4
			c-1.4,0-2.8-0.2-4.4-0.3c-0.8,2.6-1.5,5.1-2.2,7.6c-0.3,0.9-0.3,2.2-1.8,2.1c-1-0.1-1.2-1-0.4-2.8c1.1-2.6,0.7-5.2,0.4-7.7
			c-5-1.5-9.9-3.1-15.1-4.7c-1.4,4.6-2.9,9.4-4.4,14.4c-1.4-0.1-2.1-0.7-1.6-2.2c1.4-4.4,2.9-8.9,4.4-13.5c-0.7-0.6-1.3-1.2-2.1-1.7
			c-2.1-1.8-3.1-5.1-2-7.7c0.3-0.7,1-1.4,1.6-1.8c2.1-1.3,4.4-1.7,7.1-1.4c2.6-6.8,4.1-13.9,6.2-21.5c-2.7,1.4-4.9,2.6-7.1,3.6
			c-1.1,0.5-2.3,0.8-3.5,0.9c-0.3,0-0.7-0.6-1.2-1c2.5-1.2,4.8-2.3,6.9-3.5c2.2-1.3,4.2-2.8,6.4-4.2c2,1.1,1.9,1.1,1.3,3
			c-2,6.3-3.8,12.6-5.7,18.9c-0.5,1.5-0.9,3-1.4,4.5c6.3,4.9,7.2,3.2,13.1,15.4c0.4-1.1,0.6-1.9,0.9-2.7c3.3-8,5.7-16.3,8.4-24.5
			c1.5-4.6,3.2-9,4.9-13.5c0.4-1.1,1.1-1.8,2.4-0.9c-6,13.6-9.5,28.2-14.9,42.1c2.4,1.1,4.7,0.9,7,0.7c1-0.1,1.4-0.8,1.4-1.8
			c-0.2-3.5,0.8-6.7,1.9-9.9c0.9-2.8,2.9-4.6,5.3-6c2.1-1.3,6.3-0.4,7.7,1.7c0.5,0.8,0.8,2.2,0.5,3.2c-0.6,2-1.5,3.9-2.5,5.6
			c-2,3.3-4.6,6.2-8.1,8c-2.2,1.1-2.2,1.2-1.5,3.7c0.3,1,0.6,2,1,2.9c0.6,1.4,1.8,2.3,3.2,2.3c2.4-0.2,5-1.7,6.4-4.4
			c2-3.7,5.1-6.8,6.4-10.9c0.7-2.1,1.2-4.2,1.7-6.3c0.5-2,0.9-4,1.3-5.9c1.5-0.4,2,0.5,2.3,1.4c1.5,3.8,3.7,7.2,6.9,9.8
			c0.5,0.4,1,1.2,1.2,2.2c-1.3,0-2.9,0-3.4,0.5c-1.2,1-2.3,2.3-3,3.6c-0.7,1.4-0.8,3.1-1,4.7c-0.3,3,1.2,4.8,4.2,4.6
			c3.3-0.2,6.6-0.6,9.2-3.3c-1.9-4.7-0.9-9.6-0.4-14.4c0.4-3.4,2.5-6.1,5.6-7.8c2.2-1.2,6-0.3,7.3,1.9c0.4,0.7,0.4,1.6,0.3,2.4
			c-0.2,2.6-0.8,5.2-1.9,7.6c-0.9,1.8-1.6,3.6-2.6,5.3c-0.6,1.1-1.6,2.1-2.4,3.1c-0.7,0.8-1.5,1.4-2.3,2.2c2.9,3.4,6.4,1.2,9.5,1.3
			c0.4,1.3-0.4,1.7-1.2,2c-3.6,1.3-7,1.1-10.4-1.5c-2.4,2.1-5.4,2.6-8.4,3.2c-2.4,0.5-4.5,0-6.6-1c-1.9-0.9-2.6-2.6-2.5-4.4
			C287.3,228.1,288,223.5,292.8,220.9z M304.7,231.4c1.5-1.2,2.9-1.8,3.6-2.9c2.3-3.8,4.6-7.7,5.3-12.3c0.2-1.3,0-2.4-1.2-3.2
			c-1.1-0.7-2.4-0.9-3.4-0.1c-1.4,1.1-2.8,2.1-3.5,3.9c-1.4,3.5-1.4,7.1-1.4,10.8C304,228.7,304.4,229.8,304.7,231.4z M265.4,226.5
			c6.1-2.5,9.2-6.8,11.2-12.1c0.6-1.7,0-2.7-1.8-3.1c-2.3-0.6-4.1,0.5-5.5,2.1C266.1,217,265.8,221.5,265.4,226.5z M236.4,221.1
			c4,2.9,8.7,3.8,13.3,4.8c-0.3-5.8-4.8-10.6-10.8-12.3C238.1,216,237.3,218.4,236.4,221.1z M234.5,219.8c1-2.5,1.9-4.8,2.8-7.2
			c-3.6-0.3-4.9,0.3-5.5,2.1C230.9,216.8,231.3,217.5,234.5,219.8z"/>
		<path style="fill:#224099;" d="M134.2,198.1c-0.6,0.9-0.9,2.2-2.2,1.5c-0.4-0.2-0.6-1.4-0.4-1.8
			C132.3,196.9,133.3,196.8,134.2,198.1z"/>
	</g>
	<line style="fill:none;stroke:#231F20;stroke-width:3;stroke-miterlimit:10;" x1="75" y1="240" x2="325" y2="240"/>
</g>
</svg>
