<?xml version="1.0" encoding="utf-8"?>
<!-- Generator: Adobe Illustrator 19.2.0, SVG Export Plug-In . SVG Version: 6.00 Build 0)  -->
<svg version="1.1" id="Layer_1" xmlns="http://www.w3.org/2000/svg" xmlns:xlink="http://www.w3.org/1999/xlink" x="0px" y="0px"
	 viewBox="0 0 400 400" style="enable-background:new 0 0 400 400;" xml:space="preserve">
<g>
	<g>
		<path style="fill:#2488C9;" d="M80.7,134.7c-24,0-43.5,19.5-43.5,43.5v130.6h87.1V178.2C124.3,154.2,104.8,134.7,80.7,134.7z"/>
		<path style="fill:#2488C9;" d="M276.7,134.7h-87.1v29.4c0,4.8-3.9,8.7-8.7,8.7h-4.4c-4.8,0-8.7-3.9-8.7-8.7v-29.4H111
			c14.4,7.6,24.2,22.4,24.2,39.5v91.2h185v-87.1C320.2,154.2,300.7,134.7,276.7,134.7z"/>
		<polygon style="fill:#2488C9;" points="135.2,308.8 233.1,308.8 276.7,308.8 320.2,308.8 320.2,276.2 135.2,276.2 		"/>
		<path style="fill:#F48020;" d="M189.6,118.4h27.2V91.2h-27.2h-13.1c-4.8,0-8.7,3.9-8.7,8.7v34.8h21.8V118.4z"/>
	</g>
	<polygon style="fill:#F48020;" points="304.7,191.6 268.9,210.5 275.7,170.5 246.7,142.2 286.8,136.4 304.7,100 322.7,136.4 
		362.8,142.2 333.8,170.5 340.6,210.5 	"/>
</g>
</svg>
