<?xml version="1.0" encoding="utf-8"?>
<!-- Generator: Adobe Illustrator 19.2.0, SVG Export Plug-In . SVG Version: 6.00 Build 0)  -->
<svg version="1.1" id="Layer_1" xmlns="http://www.w3.org/2000/svg" xmlns:xlink="http://www.w3.org/1999/xlink" x="0px" y="0px"
	 viewBox="0 0 400 400" style="enable-background:new 0 0 400 400;" xml:space="preserve">
<g>
	<path style="fill:#A87C4F;" d="M302,360H98c-4.4,0-8-3.6-8-8V88c0-4.4,3.6-8,8-8h204c4.4,0,8,3.6,8,8v264
		C310,356.4,306.4,360,302,360z"/>
	<path style="fill:#916B46;" d="M280,105L280,105L120,335l25,25h157c4.4,0,8-3.6,8-8V135L280,105z"/>
	<rect x="120" y="105" style="fill:#F1F1F2;" width="160" height="230"/>
	<path style="fill:#BBBDBF;" d="M260,110H140V98c0-4.4,3.6-8,8-8h104c4.4,0,8,3.6,8,8V110z"/>
	<path style="fill:#929497;" d="M260,115H140v-7c0-4.4,3.6-8,8-8h112V115z"/>
	<path style="fill:#D0D2D3;" d="M200,40c-13.8,0-25,11.2-25,25v25h50V65C225,51.2,213.8,40,200,40z M200,75c-5.5,0-10-4.5-10-10
		s4.5-10,10-10s10,4.5,10,10S205.5,75,200,75z"/>
	<circle style="fill:#929497;" cx="225" cy="90" r="0"/>
	<path style="fill:#A6A8AB;" d="M210,65c0,5.5-4.5,10-10,10s-10-4.5-10-10h0c-8.3,0-15,6.7-15,15v10h50V65H210z"/>
	<path style="opacity:0.5;fill:#F1F1F2;" d="M188.4,64.8c0-6.9,5.6-12.5,12.5-12.5c3.6,0,6.8,1.5,9.1,3.9c-2.1-3.8-6.2-6.4-10.9-6.4
		c-6.9,0-12.5,5.6-12.5,12.5c0,3.3,1.3,6.4,3.4,8.6C189,69.1,188.4,67,188.4,64.8z"/>
	<g>
		<defs>
			<rect id="SVGID_1_" x="120" y="105" width="160" height="230"/>
		</defs>
		<clipPath id="SVGID_2_">
			<use xlink:href="#SVGID_1_"  style="overflow:visible;"/>
		</clipPath>
		<path style="clip-path:url(#SVGID_2_);fill:#19B14B;" d="M210.2,272.7C210.2,272.7,210.2,272.7,210.2,272.7
			c-1.7,0-3.2-1.2-3.5-2.9l-13.2-77l-15.4,38.5c-0.5,1.4-1.9,2.2-3.4,2.2c-1.5,0-2.8-1-3.2-2.4l-2.3-7l-1.2,2.4
			c-0.6,1.2-1.8,1.9-3.1,1.9h-60c-1.9,0-3.5-1.6-3.5-3.5s1.6-3.5,3.5-3.5h57.8l4-8.1c0.6-1.3,2-2,3.4-1.9c1.4,0.1,2.6,1,3.1,2.4
			l2,5.9l16.5-41.1c0.6-1.5,2.1-2.4,3.6-2.2c1.6,0.2,2.8,1.3,3.1,2.9l11.9,69.7l6.5-35.5c0.3-1.5,1.6-2.7,3.1-2.9
			c1.6-0.1,3,0.8,3.6,2.2l5.8,15.3l2.3-9.1c0.3-1.2,1.2-2.2,2.5-2.5c1.2-0.3,2.5,0,3.4,0.9l4,4H290c1.9,0,3.5,1.6,3.5,3.5
			s-1.6,3.5-3.5,3.5h-50c-0.9,0-1.8-0.4-2.5-1l-0.6-0.6l-3.5,14c-0.4,1.5-1.7,2.6-3.2,2.6c-1.5,0.1-2.9-0.8-3.5-2.3l-5.3-14
			l-7.7,42.6C213.4,271.5,211.9,272.7,210.2,272.7z"/>
	</g>
</g>
</svg>
