<?xml version="1.0" encoding="utf-8"?>
<!-- Generator: Adobe Illustrator 19.2.0, SVG Export Plug-In . SVG Version: 6.00 Build 0)  -->
<svg version="1.1" id="Layer_1" xmlns="http://www.w3.org/2000/svg" xmlns:xlink="http://www.w3.org/1999/xlink" x="0px" y="0px"
	 viewBox="0 0 400 400" style="enable-background:new 0 0 400 400;" xml:space="preserve">
<g>
	<path style="fill:#F6921E;" d="M200,100c-88.4,0-160,71.6-160,160h320C360,171.6,288.4,100,200,100z"/>
	<path style="fill:#2488C9;" d="M200,100c-35.2,0-67.7,11.4-94.1,30.6L200,260h160C360,171.6,288.4,100,200,100z"/>
	<circle style="fill:#FFFFFF;" cx="200" cy="260" r="40"/>
	<polygon style="fill:#231F20;" points="175.7,277.6 224.3,242.4 117.7,146.7 	"/>
	
		<ellipse transform="matrix(0.9171 -0.3987 0.3987 0.9171 -87.0846 101.3137)" style="fill:#FFFFFF;" cx="200" cy="260" rx="40" ry="40"/>
	
		<ellipse transform="matrix(0.682 -0.7314 0.7314 0.682 -126.5476 228.9494)" style="fill:#FFFFFF;" cx="200" cy="260" rx="40" ry="40"/>
	
		<ellipse transform="matrix(0.3338 -0.9426 0.9426 0.3338 -111.843 361.7349)" style="fill:#FFFFFF;" cx="200" cy="260" rx="40" ry="40"/>
	
		<ellipse transform="matrix(0.682 -0.7314 0.7314 0.682 -126.5476 228.9494)" style="fill:#FFFFFF;" cx="200" cy="260" rx="40" ry="40"/>
	
		<ellipse transform="matrix(0.9171 -0.3987 0.3987 0.9171 -87.0846 101.3137)" style="fill:#FFFFFF;" cx="200" cy="260" rx="40" ry="40"/>
	
		<ellipse transform="matrix(0.809 -0.5878 0.5878 0.809 -114.6244 167.2116)" style="fill:#A9C77E;" cx="200" cy="260" rx="40" ry="40"/>
</g>
</svg>
