<?xml version="1.0" encoding="utf-8"?>
<!-- Generator: Adobe Illustrator 19.1.0, SVG Export Plug-In . SVG Version: 6.00 Build 0)  -->
<svg version="1.1" id="Layer_1" xmlns="http://www.w3.org/2000/svg" xmlns:xlink="http://www.w3.org/1999/xlink" x="0px" y="0px"
	 viewBox="0 0 400 400" style="enable-background:new 0 0 400 400;" xml:space="preserve">
<g>
	<rect x="40" y="120" style="fill:#231F20;" width="320" height="160"/>
	<path style="fill:#FFFFFF;" d="M333,265H67c-6.6,0-12-5.4-12-12V147c0-6.6,5.4-12,12-12h266c6.6,0,12,5.4,12,12v106
		C345,259.6,339.6,265,333,265z"/>
	<g>
		<path style="fill:#F48020;" d="M117.4,224.7H110l-5.1-14.6H82.2l-5.1,14.6H70l19.1-52.3h9.3L117.4,224.7z M102.7,204.1l-9.2-25.7
			l-9.2,25.7H102.7z"/>
		<path style="fill:#2488C9;" d="M159.4,204.8c0,3.3-0.5,6.2-1.4,8.9c-0.9,2.6-2.2,4.8-3.7,6.6c-1.7,1.9-3.5,3.2-5.5,4.2
			c-2,0.9-4.2,1.4-6.6,1.4c-2.2,0-4.2-0.3-5.8-0.8c-1.7-0.5-3.3-1.2-4.9-2.1l-0.4,1.8h-6.2V170h6.6v19.5c1.9-1.5,3.8-2.8,5.9-3.7
			c2.1-1,4.4-1.5,7-1.5c4.6,0,8.3,1.8,11,5.3C158,193.3,159.4,198.3,159.4,204.8z M152.5,204.9c0-4.7-0.8-8.2-2.3-10.7
			s-4-3.6-7.5-3.6c-1.9,0-3.9,0.4-5.8,1.2s-3.8,1.9-5.5,3.2v22.5c1.9,0.8,3.5,1.4,4.8,1.8c1.3,0.3,2.9,0.5,4.6,0.5
			c3.7,0,6.5-1.2,8.6-3.6S152.5,210.1,152.5,204.9z"/>
		<path style="fill:#A9C77E;" d="M198.7,222.2c-2.2,1.1-4.3,1.9-6.3,2.5c-2,0.6-4.1,0.9-6.3,0.9c-2.8,0-5.4-0.4-7.8-1.2
			c-2.4-0.8-4.4-2.1-6.1-3.8c-1.7-1.7-3-3.8-4-6.4c-0.9-2.6-1.4-5.6-1.4-9c0-6.4,1.8-11.5,5.3-15.1c3.5-3.7,8.2-5.5,14-5.5
			c2.3,0,4.5,0.3,6.6,0.9c2.2,0.6,4.2,1.4,6,2.3v7.3h-0.4c-2-1.6-4.1-2.8-6.2-3.6s-4.2-1.3-6.3-1.3c-3.8,0-6.7,1.3-8.9,3.8
			c-2.2,2.5-3.3,6.2-3.3,11.1c0,4.7,1.1,8.4,3.2,10.9c2.1,2.5,5.1,3.8,8.9,3.8c1.3,0,2.7-0.2,4.1-0.5c1.4-0.4,2.6-0.8,3.7-1.4
			c1-0.5,1.9-1,2.7-1.6s1.5-1,2-1.4h0.4V222.2z"/>
	</g>
	<line style="fill:none;stroke:#231F20;stroke-width:2;stroke-miterlimit:10;" x1="210" y1="150" x2="210" y2="245"/>
</g>
</svg>
