<?xml version="1.0" encoding="utf-8"?>
<!-- Generator: Adobe Illustrator 19.1.0, SVG Export Plug-In . SVG Version: 6.00 Build 0)  -->
<svg version="1.1" id="Layer_1" xmlns="http://www.w3.org/2000/svg" xmlns:xlink="http://www.w3.org/1999/xlink" x="0px" y="0px"
	 viewBox="0 0 400 400" style="enable-background:new 0 0 400 400;" xml:space="preserve">
<g>
	<g>
		<rect x="40" y="120" style="fill:#FFFFFF;" width="320" height="160"/>
		<g>
			<polyline style="fill:none;stroke:#231F20;stroke-width:3;stroke-miterlimit:10;" points="360,274 360,280 354,280 			"/>
			
				<line style="fill:none;stroke:#231F20;stroke-width:3;stroke-miterlimit:10;stroke-dasharray:12.32,12.32;" x1="341.7" y1="280" x2="52.2" y2="280"/>
			<polyline style="fill:none;stroke:#231F20;stroke-width:3;stroke-miterlimit:10;" points="46,280 40,280 40,274 			"/>
			
				<line style="fill:none;stroke:#231F20;stroke-width:3;stroke-miterlimit:10;stroke-dasharray:11.3846,11.3846;" x1="40" y1="262.6" x2="40" y2="131.7"/>
			<polyline style="fill:none;stroke:#231F20;stroke-width:3;stroke-miterlimit:10;" points="40,126 40,120 46,120 			"/>
			
				<line style="fill:none;stroke:#231F20;stroke-width:3;stroke-miterlimit:10;stroke-dasharray:12.32,12.32;" x1="58.3" y1="120" x2="347.8" y2="120"/>
			<polyline style="fill:none;stroke:#231F20;stroke-width:3;stroke-miterlimit:10;" points="354,120 360,120 360,126 			"/>
			
				<line style="fill:none;stroke:#231F20;stroke-width:3;stroke-miterlimit:10;stroke-dasharray:11.3846,11.3846;" x1="360" y1="137.4" x2="360" y2="268.3"/>
		</g>
	</g>
	<rect x="60" y="167.5" style="fill:none;" width="280" height="65"/>
	<text transform="matrix(1 0 0 1 60 222.2197)"><tspan x="0" y="0" style="fill:#F48020; font-family:'Verdana'; font-size:72px;">Aa</tspan><tspan x="92.5" y="0" style="fill:#2488C9; font-family:'Verdana'; font-size:72px;">Bb</tspan><tspan x="186.7" y="0" style="fill:#A9C77E; font-family:'Verdana'; font-size:72px;">Cc</tspan></text>
	<g>
		<rect x="40" y="120" style="fill:#FFFFFF;" width="320" height="160"/>
		<g>
			<polyline style="fill:none;stroke:#231F20;stroke-width:3;stroke-miterlimit:10;" points="360,274 360,280 354,280 			"/>
			
				<line style="fill:none;stroke:#231F20;stroke-width:3;stroke-miterlimit:10;stroke-dasharray:12.32,12.32;" x1="341.7" y1="280" x2="52.2" y2="280"/>
			<polyline style="fill:none;stroke:#231F20;stroke-width:3;stroke-miterlimit:10;" points="46,280 40,280 40,274 			"/>
			
				<line style="fill:none;stroke:#231F20;stroke-width:3;stroke-miterlimit:10;stroke-dasharray:11.3846,11.3846;" x1="40" y1="262.6" x2="40" y2="131.7"/>
			<polyline style="fill:none;stroke:#231F20;stroke-width:3;stroke-miterlimit:10;" points="40,126 40,120 46,120 			"/>
			
				<line style="fill:none;stroke:#231F20;stroke-width:3;stroke-miterlimit:10;stroke-dasharray:12.32,12.32;" x1="58.3" y1="120" x2="347.8" y2="120"/>
			<polyline style="fill:none;stroke:#231F20;stroke-width:3;stroke-miterlimit:10;" points="354,120 360,120 360,126 			"/>
			
				<line style="fill:none;stroke:#231F20;stroke-width:3;stroke-miterlimit:10;stroke-dasharray:11.3846,11.3846;" x1="360" y1="137.4" x2="360" y2="268.3"/>
		</g>
	</g>
	<rect x="60" y="167.5" style="fill:none;" width="280" height="65"/>
	<text transform="matrix(1 0 0 1 60 222.2197)"><tspan x="0" y="0" style="fill:#F48020; font-family:'Verdana'; font-size:72px;">Aa</tspan><tspan x="92.5" y="0" style="fill:#2488C9; font-family:'Verdana'; font-size:72px;">Bb</tspan><tspan x="186.7" y="0" style="fill:#A9C77E; font-family:'Verdana'; font-size:72px;">Cc</tspan></text>
</g>
</svg>
