<?xml version="1.0" encoding="utf-8"?>
<!-- Generator: Adobe Illustrator 19.2.0, SVG Export Plug-In . SVG Version: 6.00 Build 0)  -->
<svg version="1.1" id="Layer_1" xmlns="http://www.w3.org/2000/svg" xmlns:xlink="http://www.w3.org/1999/xlink" x="0px" y="0px"
	 viewBox="0 0 400 400" style="enable-background:new 0 0 400 400;" xml:space="preserve">
<g>
	<path style="fill:#F48020;" d="M130.9,68.4c-31.2,31.2-31.2,81.9,0,113.1l14.1,14.1l14.1-14.1l-14.1-14.1
		c-23.4-23.4-23.4-61.4,0-84.9s61.4-23.4,84.9,0l14.1,14.1l14.1-14.1l-14.1-14.1C212.8,37.2,162.2,37.2,130.9,68.4z"/>
	<path style="fill:#2488C9;" d="M272.5,175l-15,15h-90l-15-15h-20v100c0,44.2,35.8,80,80,80c44.2,0,80-35.8,80-80V175H272.5z"/>
	<path style="fill:#F48020;" d="M232.5,255c0-11-9-20-20-20c-11,0-20,9-20,20c0,7.4,4,13.8,10,17.3V305c0,5.5,4.5,10,10,10
		c5.5,0,10-4.5,10-10v-32.7C228.5,268.8,232.5,262.4,232.5,255z"/>
</g>
</svg>
