<?xml version="1.0" encoding="utf-8"?>
<!-- Generator: Adobe Illustrator 19.2.0, SVG Export Plug-In . SVG Version: 6.00 Build 0)  -->
<svg version="1.1" id="Layer_1" xmlns="http://www.w3.org/2000/svg" xmlns:xlink="http://www.w3.org/1999/xlink" x="0px" y="0px"
	 viewBox="0 0 400 400" style="enable-background:new 0 0 400 400;" xml:space="preserve">
<g>
	<g>
		<path style="fill:#2488C9;" d="M287.6,238.5c18.9-29.3,34.1-61.2,40.3-99.8c5.2-31.7-0.7-64.4-12.5-97.5
			c-32.9,12.3-61.7,28.8-82.7,53.1c-25.6,29.5-40.3,61.7-50.6,95C139,203,100.5,218.1,70.2,235.7c34.4-0.3,67.2,1.8,96.6,9.4
			c16.2,4.2,31.3,10,45.1,18.1c15,5.3,29.2,13.2,42.8,22.9c24.7,17.6,47.4,41.5,69.3,68C318,319.5,304.9,280.3,287.6,238.5z
			 M223,239.4c-6.6-3.1-9.4-10.9-6.3-17.4c3.1-6.6,10.9-9.4,17.4-6.3c6.6,3.1,9.4,10.9,6.3,17.4C237.4,239.6,229.6,242.5,223,239.4z
			 M235.9,211.6c-6.6-3.1-9.4-10.9-6.3-17.4c3.1-6.6,10.9-9.4,17.4-6.3c6.6,3.1,9.4,10.9,6.3,17.4
			C250.3,211.9,242.5,214.7,235.9,211.6z M248.9,183.9c-6.6-3.1-9.4-10.9-6.3-17.4c3.1-6.6,10.9-9.4,17.4-6.3
			c6.6,3.1,9.4,10.9,6.3,17.4C263.2,184.1,255.4,187,248.9,183.9z M261.8,156.1c-17.5-8.2-25.1-29-16.9-46.5
			c1.3-2.7,2.9-5.2,4.7-7.5c9.9-12,27-16.4,41.8-9.5c14.8,6.9,22.5,22.8,19.6,38.1c-0.5,2.8-1.4,5.7-2.7,8.4
			C300.2,156.7,279.3,164.3,261.8,156.1z"/>
		<path style="fill:#1A6382;" d="M211.9,263.2c-12.7-7.4-26.5-13-41.3-17.1c2.1,17.5,12.8,33.5,29.9,41.5s36.3,5.9,51-3.7
			C238.9,275.2,225.7,268.1,211.9,263.2z"/>
		
			<ellipse transform="matrix(0.4226 -0.9063 0.9063 0.4226 -8.9873 329.8885)" style="fill:#A9C77E;" cx="254.4" cy="172" rx="13.1" ry="13.1"/>
		
			<ellipse transform="matrix(0.4226 -0.9063 0.9063 0.4226 -41.6153 334.1841)" style="fill:#A9C77E;" cx="241.5" cy="199.8" rx="13.1" ry="13.1"/>
		
			<ellipse transform="matrix(0.4226 -0.9063 0.9063 0.4226 -74.2434 338.4797)" style="fill:#A9C77E;" cx="228.5" cy="227.5" rx="13.1" ry="13.1"/>
		<path style="fill:#F48020;" d="M311,130.8c2.9-15.3-4.8-31.2-19.6-38.1c-14.8-6.9-31.9-2.6-41.8,9.5c-1.8,2.2-3.4,4.7-4.7,7.5
			c-8.2,17.5-0.6,38.3,16.9,46.5s38.3,0.6,46.5-16.9C309.6,136.5,310.5,133.7,311,130.8z"/>
	</g>
	<path style="fill:#EE4036;" d="M180.3,333.4l-1.8-0.8c-2-0.9-2.9-3.3-1.9-5.3l17.3-37.2l9.1,4.2l-17.3,37.2
		C184.6,333.5,182.3,334.3,180.3,333.4z"/>
	<path style="fill:#EE4036;" d="M178.7,275.3l-15.2,32.5l-5.9,12.6c-1.1,2.4-3.8,3.7-6.3,2.8c-2.8-1-4.1-4.2-2.9-6.8l2.5-5.4
		c0.9-2,0.1-4.4-1.9-5.3l-1.8-0.8c-2-0.9-4.4-0.1-5.3,1.9l-2.5,5.4c-3.5,7.5-0.3,16.4,7.3,19.9c0.4,0.2,0.9,0.4,1.3,0.5
		c0.2,0.1,0.5,0.2,0.7,0.2c0.2,0.1,0.3,0.1,0.5,0.1c0.3,0.1,0.7,0.2,1,0.2c0.1,0,0.1,0,0.2,0c1.9,0.3,3.8,0.3,5.6-0.1
		c0,0,0.1,0,0.1,0c0.3-0.1,0.7-0.2,1-0.2c0,0,0.1,0,0.1,0c1-0.3,1.9-0.7,2.9-1.2c0.1-0.1,0.2-0.1,0.3-0.2c0.2-0.1,0.4-0.2,0.6-0.4
		c0.2-0.1,0.3-0.2,0.5-0.3c0.2-0.1,0.4-0.3,0.5-0.4c0.2-0.2,0.4-0.3,0.6-0.5c0.1-0.1,0.3-0.2,0.4-0.3c0.3-0.3,0.6-0.6,0.9-0.9
		c0.1-0.1,0.2-0.2,0.3-0.3c0.2-0.2,0.4-0.5,0.6-0.7c0.1-0.1,0.2-0.3,0.3-0.4c0.2-0.3,0.4-0.5,0.5-0.8c0.1-0.1,0.2-0.2,0.2-0.4
		c0.2-0.4,0.5-0.8,0.7-1.2l19-40.8L178.7,275.3z"/>
	<path style="fill:#EE4036;" d="M224,296.4l-15.2,32.5l-5.9,12.6c-1.1,2.4-0.4,5.3,1.9,6.6c2.6,1.5,5.8,0.5,7.1-2.2l2.5-5.4
		c0.9-2,3.3-2.9,5.3-1.9l1.8,0.8c2,0.9,2.9,3.3,1.9,5.3l-2.5,5.4c-3.5,7.5-12.4,10.8-19.9,7.3c-0.4-0.2-0.8-0.4-1.2-0.7
		c-0.2-0.1-0.4-0.3-0.7-0.4c-0.1-0.1-0.3-0.2-0.4-0.3c-0.3-0.2-0.6-0.4-0.8-0.6c-0.1,0-0.1-0.1-0.2-0.1c-1.5-1.2-2.7-2.7-3.6-4.4
		c0,0,0-0.1-0.1-0.1c-0.2-0.3-0.3-0.6-0.4-0.9c0,0,0-0.1,0-0.1c-0.4-1-0.7-1.9-0.9-3c0-0.1-0.1-0.2-0.1-0.3c0-0.2-0.1-0.5-0.1-0.7
		c0-0.2,0-0.4-0.1-0.6c0-0.2,0-0.4,0-0.7c0-0.3,0-0.5,0-0.8c0-0.2,0-0.3,0-0.5c0-0.4,0.1-0.8,0.1-1.3c0-0.1,0-0.3,0.1-0.4
		c0-0.3,0.1-0.6,0.2-0.9c0-0.2,0.1-0.3,0.1-0.5c0.1-0.3,0.2-0.6,0.3-0.9c0-0.1,0.1-0.3,0.1-0.4c0.2-0.4,0.3-0.9,0.5-1.3l19-40.8
		L224,296.4z"/>
</g>
</svg>
