<?xml version="1.0" encoding="utf-8"?>
<!-- Generator: Adobe Illustrator 19.1.0, SVG Export Plug-In . SVG Version: 6.00 Build 0)  -->
<svg version="1.1" id="Layer_1" xmlns="http://www.w3.org/2000/svg" xmlns:xlink="http://www.w3.org/1999/xlink" x="0px" y="0px"
	 viewBox="-39 62.9 319.6 276.1" style="enable-background:new -39 62.9 319.6 276.1;" xml:space="preserve">
<g id="art">
	<path style="fill:#1F3A6E;" d="M186.9,172l-213,145.9l-12.9-3.1L175.8,172H186.9z"/>
	<path style="fill:#2C599C;" d="M186.9,172l-213,145.9l-0.8-37l213.8-131.7V172z"/>
	<path style="fill:#427BBE;" d="M175.8,149.2L-39,279.8l12.1,1.1l213.8-131.7H175.8z"/>
	
		<linearGradient id="SVGID_1_" gradientUnits="userSpaceOnUse" x1="218.2102" y1="235.774" x2="208.7462" y2="189.3849" gradientTransform="matrix(1 0 0 -1 0 403.8)">
		<stop  offset="0" style="stop-color:#FFFFFF"/>
		<stop  offset="1" style="stop-color:#000000"/>
	</linearGradient>
	<path style="fill:url(#SVGID_1_);" d="M256,175.5c0-6.7,4.3-11.9,6.8-11.9L182,150.7c-11.8,4.3-10.6,20.5-5.2,23.8l83.8,13.1
		C258.3,186.9,256,181.8,256,175.5z"/>
	
		<linearGradient id="SVGID_2_" gradientUnits="userSpaceOnUse" x1="260.7358" y1="257.543" x2="262.1618" y2="211.324" gradientTransform="matrix(1 0 0 -1 0 403.8)">
		<stop  offset="0" style="stop-color:#FFFFFF"/>
		<stop  offset="1" style="stop-color:#000000"/>
	</linearGradient>
	<path style="fill:url(#SVGID_2_);" d="M267.4,176.3c0,6.6-4.4,11.2-6.8,11.2s-4.7-5.4-4.7-12s4.3-11.9,6.8-11.9
		S267.4,169.7,267.4,176.3L267.4,176.3z"/>
	
		<linearGradient id="SVGID_3_" gradientUnits="userSpaceOnUse" x1="202.6327" y1="225.3011" x2="192.9367" y2="177.776" gradientTransform="matrix(1 0 0 -1 0 403.8)">
		<stop  offset="0" style="stop-color:#FFFFFF"/>
		<stop  offset="1" style="stop-color:#000000"/>
	</linearGradient>
	<path style="fill:url(#SVGID_3_);" d="M241.3,186.2c0-6.8,4.5-12.2,6.9-12.2l-82.7-13.3c-12.1,4.4-10.8,21-5.3,24.4l85.9,13.4
		C243.7,197.8,241.3,192.6,241.3,186.2L241.3,186.2z"/>
	
		<linearGradient id="SVGID_4_" gradientUnits="userSpaceOnUse" x1="246.2119" y1="247.614" x2="247.6729" y2="200.263" gradientTransform="matrix(1 0 0 -1 0 403.8)">
		<stop  offset="0" style="stop-color:#FFFFFF"/>
		<stop  offset="1" style="stop-color:#000000"/>
	</linearGradient>
	<path style="fill:url(#SVGID_4_);" d="M253,187c0,6.8-4.5,11.5-6.9,11.5s-4.8-5.5-4.8-12.3s4.5-12.2,6.9-12.2
		C250.7,174,253,180.2,253,187z"/>
	
		<linearGradient id="SVGID_5_" gradientUnits="userSpaceOnUse" x1="186.2992" y1="214.0159" x2="176.0392" y2="163.7229" gradientTransform="matrix(1 0 0 -1 0 403.8)">
		<stop  offset="0" style="stop-color:#FFFFFF"/>
		<stop  offset="1" style="stop-color:#000000"/>
	</linearGradient>
	<path style="fill:url(#SVGID_5_);" d="M227.2,197.9c0-7.2,4.7-12.9,7.3-12.9L147,171c-12.8,4.7-11.5,22.2-5.6,25.8l90.9,14.2
		C229.8,210.3,227.2,204.7,227.2,197.9L227.2,197.9z"/>
	
		<linearGradient id="SVGID_6_" gradientUnits="userSpaceOnUse" x1="232.406" y1="237.614" x2="233.953" y2="187.505" gradientTransform="matrix(1 0 0 -1 0 403.8)">
		<stop  offset="0" style="stop-color:#FFFFFF"/>
		<stop  offset="1" style="stop-color:#000000"/>
	</linearGradient>
	<path style="fill:url(#SVGID_6_);" d="M239.6,198.8c0,7.2-4.7,12.2-7.3,12.2s-5.1-5.9-5.1-13c0-7.2,4.7-12.9,7.3-12.9
		C237.2,185,239.6,191.6,239.6,198.8z"/>
	
		<linearGradient id="SVGID_7_" gradientUnits="userSpaceOnUse" x1="170.1984" y1="202.3339" x2="159.7694" y2="151.2139" gradientTransform="matrix(1 0 0 -1 0 403.8)">
		<stop  offset="0" style="stop-color:#FFFFFF"/>
		<stop  offset="1" style="stop-color:#000000"/>
	</linearGradient>
	<path style="fill:url(#SVGID_7_);" d="M211.9,209.8c0-7.4,4.8-13.2,7.4-13.2l-89-14.3c-13,4.7-11.6,22.6-5.7,26.3l92.3,14.4
		C214.6,222.3,211.9,216.6,211.9,209.8z"/>
	
		<linearGradient id="SVGID_8_" gradientUnits="userSpaceOnUse" x1="217.1889" y1="226.292" x2="218.7609" y2="175.359" gradientTransform="matrix(1 0 0 -1 0 403.8)">
		<stop  offset="0" style="stop-color:#FFFFFF"/>
		<stop  offset="1" style="stop-color:#000000"/>
	</linearGradient>
	<path style="fill:url(#SVGID_8_);" d="M224.5,210.7c0,7.3-4.8,12.4-7.5,12.4s-5.1-6-5.1-13.3s4.8-13.2,7.4-13.2
		S224.5,203.4,224.5,210.7L224.5,210.7z"/>
	
		<linearGradient id="SVGID_9_" gradientUnits="userSpaceOnUse" x1="152.101" y1="191.043" x2="141.435" y2="138.762" gradientTransform="matrix(1 0 0 -1 0 403.8)">
		<stop  offset="0" style="stop-color:#FFFFFF"/>
		<stop  offset="1" style="stop-color:#000000"/>
	</linearGradient>
	<path style="fill:url(#SVGID_9_);" d="M194.7,221.2c0-7.5,4.9-13.5,7.6-13.5l-91-14.6c-13.3,4.8-11.9,23.1-5.8,26.9l94.4,14.7
		C197.4,234.1,194.7,228.3,194.7,221.2L194.7,221.2z"/>
	
		<linearGradient id="SVGID_10_" gradientUnits="userSpaceOnUse" x1="200.1188" y1="215.56" x2="201.7268" y2="163.47" gradientTransform="matrix(1 0 0 -1 0 403.8)">
		<stop  offset="0" style="stop-color:#FFFFFF"/>
		<stop  offset="1" style="stop-color:#000000"/>
	</linearGradient>
	<path style="fill:url(#SVGID_10_);" d="M207.6,222.1c0,7.5-4.9,12.7-7.6,12.7s-5.3-6.1-5.3-13.6s4.9-13.5,7.6-13.5
		C205.1,207.8,207.6,214.7,207.6,222.1L207.6,222.1z"/>
	
		<linearGradient id="SVGID_11_" gradientUnits="userSpaceOnUse" x1="133.9561" y1="178.17" x2="122.9041" y2="123.997" gradientTransform="matrix(1 0 0 -1 0 403.8)">
		<stop  offset="0" style="stop-color:#FFFFFF"/>
		<stop  offset="1" style="stop-color:#000000"/>
	</linearGradient>
	<path style="fill:url(#SVGID_11_);" d="M178,234.4c0-7.8,5.1-13.9,7.9-13.9l-94.3-15.1c-13.8,5-12.3,24-6,27.8l97.9,15.3
		C180.8,247.7,178,241.7,178,234.4z"/>
	
		<linearGradient id="SVGID_12_" gradientUnits="userSpaceOnUse" x1="183.6812" y1="203.6" x2="185.3462" y2="149.625" gradientTransform="matrix(1 0 0 -1 0 403.8)">
		<stop  offset="0" style="stop-color:#FFFFFF"/>
		<stop  offset="1" style="stop-color:#000000"/>
	</linearGradient>
	<path style="fill:url(#SVGID_12_);" d="M191.4,235.3c0,7.7-5.1,13.1-7.9,13.1s-5.4-6.3-5.4-14s5.1-13.9,7.9-13.9
		S191.4,227.6,191.4,235.3L191.4,235.3z"/>
	
		<linearGradient id="SVGID_13_" gradientUnits="userSpaceOnUse" x1="115.3512" y1="165.0099" x2="104.0523" y2="109.6209" gradientTransform="matrix(1 0 0 -1 0 403.8)">
		<stop  offset="0" style="stop-color:#FFFFFF"/>
		<stop  offset="1" style="stop-color:#000000"/>
	</linearGradient>
	<path style="fill:url(#SVGID_13_);" d="M160.4,247.8c0-8,5.2-14.3,8.1-14.3L72.1,218c-14.1,5.1-12.6,24.5-6.2,28.5L166,262.1
		C163.2,261.3,160.4,255.2,160.4,247.8z"/>
	
		<linearGradient id="SVGID_14_" gradientUnits="userSpaceOnUse" x1="166.0573" y1="191.012" x2="167.7603" y2="135.826" gradientTransform="matrix(1 0 0 -1 0 403.8)">
		<stop  offset="0" style="stop-color:#FFFFFF"/>
		<stop  offset="1" style="stop-color:#000000"/>
	</linearGradient>
	<path style="fill:url(#SVGID_14_);" d="M174,248.7c0,7.9-5.2,13.4-8.1,13.4s-5.6-6.5-5.6-14.4s5.2-14.3,8.1-14.3
		S174,240.8,174,248.7z"/>
	
		<linearGradient id="SVGID_15_" gradientUnits="userSpaceOnUse" x1="96.6538" y1="151.119" x2="84.8418" y2="93.221" gradientTransform="matrix(1 0 0 -1 0 403.8)">
		<stop  offset="0" style="stop-color:#FFFFFF"/>
		<stop  offset="1" style="stop-color:#000000"/>
	</linearGradient>
	<path style="fill:url(#SVGID_15_);" d="M143.8,262.1c0-8.3,5.4-14.9,8.4-14.9L51.4,231c-14.7,5.4-13.2,25.6-6.4,29.8l104.6,16.3
		C146.7,276.2,143.8,269.8,143.8,262.1z"/>
	
		<linearGradient id="SVGID_16_" gradientUnits="userSpaceOnUse" x1="149.758" y1="178.29" x2="151.539" y2="120.605" gradientTransform="matrix(1 0 0 -1 0 403.8)">
		<stop  offset="0" style="stop-color:#FFFFFF"/>
		<stop  offset="1" style="stop-color:#000000"/>
	</linearGradient>
	<path style="fill:url(#SVGID_16_);" d="M158,263c0,8.3-5.4,14-8.4,14s-5.8-6.8-5.8-15c0-8.3,5.4-14.9,8.4-14.9S158,254.8,158,263z"
		/>
	
		<linearGradient id="SVGID_17_" gradientUnits="userSpaceOnUse" x1="78.1503" y1="138.1349" x2="66.0434" y2="78.7849" gradientTransform="matrix(1 0 0 -1 0 403.8)">
		<stop  offset="0" style="stop-color:#FFFFFF"/>
		<stop  offset="1" style="stop-color:#000000"/>
	</linearGradient>
	<path style="fill:url(#SVGID_17_);" d="M126.5,275.3c0-8.6,5.6-15.3,8.6-15.3L31.8,243.4c-15.1,5.5-13.5,26.3-6.6,30.5l107.2,16.8
		C129.5,289.8,126.5,283.3,126.5,275.3z"/>
	
		<linearGradient id="SVGID_18_" gradientUnits="userSpaceOnUse" x1="132.578" y1="165.978" x2="134.403" y2="106.845" gradientTransform="matrix(1 0 0 -1 0 403.8)">
		<stop  offset="0" style="stop-color:#FFFFFF"/>
		<stop  offset="1" style="stop-color:#000000"/>
	</linearGradient>
	<path style="fill:url(#SVGID_18_);" d="M141.1,276.3c0,8.5-5.6,14.4-8.7,14.4s-6-6.9-6-15.4S132,260,135,260
		C138.2,260,141.1,267.8,141.1,276.3z"/>
	
		<linearGradient id="SVGID_19_" gradientUnits="userSpaceOnUse" x1="60.1274" y1="125.5459" x2="47.7064" y2="64.6609" gradientTransform="matrix(1 0 0 -1 0 403.8)">
		<stop  offset="0" style="stop-color:#FFFFFF"/>
		<stop  offset="1" style="stop-color:#000000"/>
	</linearGradient>
	<path style="fill:url(#SVGID_19_);" d="M109.7,288.1c0-8.8,5.7-15.7,8.9-15.7l-106-17c-15.5,5.6-13.9,26.9-6.8,31.3l110,17.2
		C112.9,303,109.7,296.3,109.7,288.1z"/>
	
		<linearGradient id="SVGID_20_" gradientUnits="userSpaceOnUse" x1="115.9979" y1="154.106" x2="117.8699" y2="93.444" gradientTransform="matrix(1 0 0 -1 0 403.8)">
		<stop  offset="0" style="stop-color:#FFFFFF"/>
		<stop  offset="1" style="stop-color:#000000"/>
	</linearGradient>
	<path style="fill:url(#SVGID_20_);" d="M124.7,289.2c0,8.7-5.7,14.7-8.9,14.7c-3.2,0-6.1-7.1-6.1-15.8c0-8.7,5.7-15.7,8.9-15.7
		C121.8,272.5,124.7,280.5,124.7,289.2z"/>
	
		<linearGradient id="SVGID_21_" gradientUnits="userSpaceOnUse" x1="39.6118" y1="110.796" x2="26.7628" y2="47.813" gradientTransform="matrix(1 0 0 -1 0 403.8)">
		<stop  offset="0" style="stop-color:#FFFFFF"/>
		<stop  offset="1" style="stop-color:#000000"/>
	</linearGradient>
	<path style="fill:url(#SVGID_21_);" d="M90.8,303.2c0-9.1,5.9-16.2,9.2-16.2L-9.6,269.4c-16,5.8-14.3,27.9-7,32.4l113.8,17.7
		C94.1,318.6,90.8,311.7,90.8,303.2z"/>
	
		<linearGradient id="SVGID_22_" gradientUnits="userSpaceOnUse" x1="97.404" y1="140.359" x2="99.341" y2="77.607" gradientTransform="matrix(1 0 0 -1 0 403.8)">
		<stop  offset="0" style="stop-color:#FFFFFF"/>
		<stop  offset="1" style="stop-color:#000000"/>
	</linearGradient>
	<path style="fill:url(#SVGID_22_);" d="M106.4,304.3c0,9-5.9,15.3-9.2,15.3c-3.3,0-6.3-7.3-6.3-16.3c0-9,5.9-16.2,9.2-16.2
		C103.3,287,106.4,295.3,106.4,304.3z"/>
	<path style="fill:#1F3A6E;" d="M280.6,183.5L99.5,339l-12.9-3l187.2-152.5H280.6z"/>
	<path style="fill:#2C599C;" d="M273.8,183.5L86.6,336v-35l187.2-142.2V183.5z"/>
	<path style="fill:#427BBE;" d="M273.8,158.8L86.6,301l12.1,1.1l180.8-143.3H273.8z"/>
	<path d="M230.9,65.6v112.1h-79.1V65.6H230.9z M233.5,62.9h-84.3v117.3h84.3C233.5,180.2,233.5,62.9,233.5,62.9z"/>
	<path style="fill:#F1F2F2;" d="M151.8,65.6h79.1v112.1h-79.1L151.8,65.6z"/>
	<path d="M166.7,124.3v5.2h-5.2v-5.2H166.7 M170.7,120.3h-13.2v13.2h13.2V120.3z M183.4,80.2v18.6h-18.6V80.2L183.4,80.2
		 M191.4,72.2h-34.6v34.6h34.6V72.2z M166.7,144v5.2h-5.2V144H166.7 M170.7,140h-13.2v13.2h13.2V140z M166.7,163.8v5.2h-5.2v-5.2
		H166.7 M170.7,159.8h-13.2V173h13.2V159.8z"/>
	<path style="fill:#5F5F61;" d="M165.8,133.7l-5.9-5.3l1.8-2l3.8,3.4c0.1-0.2,0.2-0.3,0.2-0.5c0.2-0.3,0.3-0.7,0.4-1.1
		c0.1-0.3,0.3-0.7,0.4-1c1.1-2.5,3.1-4.5,4.8-6.3l1.9,1.8c-1.6,1.7-3.3,3.4-4.3,5.5c-0.1,0.3-0.2,0.6-0.4,0.9
		c-0.2,0.4-0.3,0.8-0.5,1.2c-0.4,0.8-0.8,1.5-1.4,2.2C166.6,132.5,165.8,133.7,165.8,133.7z M162.5,153.5l-5.9-5.3l1.8-2l3.8,3.4
		c0.1-0.2,0.2-0.3,0.2-0.5c0.2-0.3,0.3-0.7,0.4-1.1c0.1-0.3,0.3-0.7,0.4-1c1.1-2.5,3.1-4.5,4.8-6.3l1.9,1.8
		c-1.6,1.7-3.3,3.4-4.3,5.5c-0.1,0.3-0.2,0.6-0.4,0.9c-0.2,0.4-0.3,0.8-0.5,1.2c-0.4,0.8-0.8,1.5-1.4,2.2
		C163.3,152.3,162.5,153.5,162.5,153.5z M164.9,169.2l-5.9-5.3l1.8-2l3.8,3.4c0.1-0.2,0.2-0.3,0.2-0.5c0.2-0.3,0.3-0.7,0.4-1.1
		c0.1-0.3,0.3-0.7,0.4-1c1.1-2.5,3.1-4.5,4.8-6.3l1.9,1.8c-1.6,1.7-3.3,3.4-4.3,5.5c-0.1,0.3-0.2,0.6-0.4,0.9
		c-0.2,0.4-0.3,0.8-0.5,1.2c-0.4,0.8-0.8,1.5-1.4,2.2C165.7,168,164.9,169.2,164.9,169.2z"/>
	
		<linearGradient id="SVGID_23_" gradientUnits="userSpaceOnUse" x1="174.05" y1="314.325" x2="174.05" y2="283.025" gradientTransform="matrix(1 0 0 -1 0 403.8)">
		<stop  offset="0" style="stop-color:#FFFFFF"/>
		<stop  offset="1" style="stop-color:#000000"/>
	</linearGradient>
	<path style="fill:url(#SVGID_23_);" d="M158.4,73.8h31.3v31.3h-31.3V73.8z"/>
	<path style="fill:#808285;" d="M182.2,96.7h-0.1c-0.5,0-0.9-0.1-1.4-0.3c-1.3-0.6-3.8-1.9-4.6-3.4c2.6-1.8,4.5-6,4.5-8.9
		c0-3.9-3.1-7-7-7s-7,3.1-7,7c0,2.9,1.7,6.9,4.2,8.8c-0.7,1.6-3.6,3.1-4.9,3.7c-0.3,0.1-0.6,0.2-0.9,0.2c-1.4,0-2.6,1.2-2.6,2.6
		l-2.3,5.8h28l-3.1-5.4c-0.1-0.2-0.2-0.5-0.3-0.8C184.6,97.7,183.5,96.7,182.2,96.7L182.2,96.7z"/>
	<path d="M196.3,72.2H226v4.9h-29.7V72.2z M196.3,82.1H226V87h-29.7V82.1z M196.3,91.9H226v4.9h-29.7V91.9z M196.3,101.8H226v4.9
		h-29.7V101.8z M174.9,123.3H226v4.9h-51.1L174.9,123.3z M174.9,143H226v4.9h-51.1L174.9,143z M174.9,162.8H226v4.9h-51.1
		L174.9,162.8z"/>
	<g>
		<path d="M185.1,96.1v112.1H106V96.1H185.1z M187.7,93.4h-84.3v117.3h84.3C187.7,210.7,187.7,93.4,187.7,93.4z"/>
		<path style="fill:#F1F2F2;" d="M106,96.1h79.1v112.1H106V96.1z"/>
		<path d="M120.8,154.8v5.2h-5.2v-5.2H120.8 M124.8,150.8h-13.2V164h13.2V150.8z M137.5,110.7v18.6h-18.6v-18.6L137.5,110.7
			 M145.5,102.7h-34.6v34.6h34.6V102.7z M120.8,174.5v5.2h-5.2v-5.2H120.8 M124.8,170.5h-13.2v13.2h13.2V170.5z M120.8,194.3v5.2
			h-5.2v-5.2H120.8 M124.8,190.3h-13.2v13.2h13.2V190.3z"/>
		<path style="fill:#5F5F61;" d="M120,164.2l-5.9-5.3l1.8-2l3.8,3.4c0.1-0.2,0.2-0.3,0.2-0.5c0.2-0.3,0.3-0.7,0.4-1.1
			c0.1-0.3,0.3-0.7,0.4-1c1.1-2.5,3.1-4.5,4.8-6.3l1.9,1.8c-1.6,1.7-3.3,3.4-4.3,5.5c-0.1,0.3-0.2,0.6-0.4,0.9
			c-0.2,0.4-0.3,0.8-0.5,1.2c-0.4,0.8-0.8,1.5-1.4,2.2C120.8,163,120,164.2,120,164.2z M116.7,184l-5.9-5.3l1.8-2l3.8,3.4
			c0.1-0.2,0.2-0.3,0.2-0.5c0.2-0.3,0.3-0.7,0.4-1.1c0.1-0.3,0.3-0.7,0.4-1c1.1-2.5,3.1-4.5,4.8-6.3l1.9,1.8
			c-1.6,1.7-3.3,3.4-4.3,5.5c-0.1,0.3-0.2,0.6-0.4,0.9c-0.2,0.4-0.3,0.8-0.5,1.2c-0.4,0.8-0.8,1.5-1.4,2.2L116.7,184L116.7,184z
			 M119.1,199.7l-5.9-5.3l1.8-2l3.8,3.4c0.1-0.2,0.2-0.3,0.2-0.5c0.2-0.3,0.3-0.7,0.4-1.1c0.1-0.3,0.3-0.7,0.4-1
			c1.1-2.5,3.1-4.5,4.8-6.3l1.9,1.8c-1.6,1.7-3.3,3.4-4.3,5.5c-0.1,0.3-0.2,0.6-0.4,0.9c-0.2,0.4-0.3,0.8-0.5,1.2
			c-0.4,0.8-0.8,1.5-1.4,2.2L119.1,199.7L119.1,199.7z"/>
		
			<linearGradient id="SVGID_24_" gradientUnits="userSpaceOnUse" x1="128.25" y1="283.821" x2="128.25" y2="252.521" gradientTransform="matrix(1 0 0 -1 0 403.8)">
			<stop  offset="0" style="stop-color:#FFFFFF"/>
			<stop  offset="1" style="stop-color:#000000"/>
		</linearGradient>
		<path style="fill:url(#SVGID_24_);" d="M112.6,104.3h31.3v31.3h-31.3L112.6,104.3z"/>
		<path style="fill:#808285;" d="M136.4,127.2h-0.1c-0.5,0-0.9-0.1-1.4-0.3c-1.3-0.6-3.8-1.9-4.6-3.4c2.6-1.8,4.5-6,4.5-8.9
			c0-3.9-3.1-7-7-7s-7,3.1-7,7c0,2.9,1.7,6.9,4.2,8.8c-0.7,1.6-3.6,3.1-4.9,3.7c-0.3,0.1-0.6,0.2-0.9,0.2c-1.4,0-2.6,1.2-2.6,2.6
			l-2.3,5.8h28l-3.1-5.4c-0.1-0.2-0.2-0.5-0.3-0.8C138.7,128.2,137.7,127.2,136.4,127.2L136.4,127.2z"/>
		<path d="M150.5,102.7h29.7v4.9h-29.7V102.7z M150.5,112.6h29.7v4.9h-29.7V112.6z M150.5,122.5h29.7v4.9h-29.7V122.5z M150.5,132.3
			h29.7v4.9h-29.7V132.3z M129,153.8h51.1v4.9H129V153.8z M129,173.5h51.1v4.9H129V173.5z M129,193.3h51.1v4.9H129V193.3z"/>
	</g>
	<g>
		<path d="M142.9,127.4v112.1H63.8V127.4H142.9z M145.5,124.8H61.2v117.3h84.3V124.8z"/>
		<path style="fill:#F1F2F2;" d="M63.8,127.4h79.1v112.1H63.8V127.4z"/>
		<path d="M78.7,186.1v5.2h-5.2v-5.2H78.7 M82.7,182.1H69.5v13.2h13.2V182.1z M95.3,142v18.6H76.7V142H95.3 M103.3,134H68.7v34.6
			h34.6V134z M78.7,205.9v5.2h-5.2v-5.2H78.7 M82.7,201.9H69.5v13.2h13.2V201.9z M78.7,225.6v5.2h-5.2v-5.2H78.7 M82.7,221.6H69.5
			v13.2h13.2V221.6z"/>
		<path style="fill:#5F5F61;" d="M77.8,195.5l-5.9-5.3l1.8-2l3.8,3.4c0.1-0.2,0.2-0.3,0.2-0.5c0.2-0.3,0.3-0.7,0.4-1.1
			c0.1-0.3,0.3-0.7,0.4-1c1.1-2.5,3.1-4.5,4.8-6.3l1.9,1.8c-1.6,1.7-3.3,3.4-4.3,5.5c-0.1,0.3-0.2,0.6-0.4,0.9
			c-0.2,0.4-0.3,0.8-0.5,1.2c-0.4,0.8-0.8,1.5-1.4,2.2L77.8,195.5L77.8,195.5z M74.5,215.3l-5.9-5.3l1.8-2l3.8,3.4
			c0.1-0.2,0.2-0.3,0.2-0.5c0.2-0.3,0.3-0.7,0.4-1.1c0.1-0.3,0.3-0.7,0.4-1c1.1-2.5,3.1-4.5,4.8-6.3l1.9,1.8
			c-1.6,1.7-3.3,3.4-4.3,5.5c-0.1,0.3-0.2,0.6-0.4,0.9c-0.2,0.4-0.3,0.8-0.5,1.2c-0.4,0.8-0.8,1.5-1.4,2.2L74.5,215.3L74.5,215.3z
			 M76.9,231l-5.9-5.3l1.8-2l3.8,3.4c0.1-0.2,0.2-0.3,0.2-0.5c0.2-0.3,0.3-0.7,0.4-1.1c0.1-0.3,0.3-0.7,0.4-1
			c1.1-2.5,3.1-4.5,4.8-6.3l1.9,1.8c-1.6,1.7-3.3,3.4-4.3,5.5c-0.1,0.3-0.2,0.6-0.4,0.9c-0.2,0.4-0.3,0.8-0.5,1.2
			c-0.4,0.8-0.8,1.5-1.4,2.2L76.9,231L76.9,231z"/>
		
			<linearGradient id="SVGID_25_" gradientUnits="userSpaceOnUse" x1="86.05" y1="252.51" x2="86.05" y2="221.21" gradientTransform="matrix(1 0 0 -1 0 403.8)">
			<stop  offset="0" style="stop-color:#FFFFFF"/>
			<stop  offset="1" style="stop-color:#000000"/>
		</linearGradient>
		<path style="fill:url(#SVGID_25_);" d="M70.4,135.6h31.3v31.3H70.4V135.6z"/>
		<path style="fill:#808285;" d="M94.2,158.5L94.2,158.5c-0.6,0-1-0.1-1.5-0.3c-1.3-0.6-3.8-1.9-4.6-3.4c2.6-1.8,4.5-6,4.5-8.9
			c0-3.9-3.1-7-7-7c-3.9,0-7,3.1-7,7c0,2.9,1.7,6.9,4.2,8.8c-0.7,1.6-3.6,3.1-4.9,3.7c-0.3,0.1-0.6,0.2-0.9,0.2
			c-1.4,0-2.6,1.2-2.6,2.6l-2.3,5.8h28l-3.1-5.4c-0.1-0.2-0.2-0.5-0.3-0.8C96.5,159.5,95.5,158.5,94.2,158.5L94.2,158.5z"/>
		<path d="M108.3,134H138v4.9h-29.7V134z M108.3,143.9H138v4.9h-29.7V143.9z M108.3,153.8H138v4.9h-29.7V153.8z M108.3,163.6H138
			v4.9h-29.7V163.6z M86.9,185.1H138v4.9H86.9V185.1z M86.9,204.8H138v4.9H86.9V204.8z M86.9,224.6H138v4.9H86.9V224.6z"/>
	</g>
	<g>
		<path d="M96,159v112.1H16.9V159H96z M98.6,156.4H14.3v117.3h84.3C98.6,273.7,98.6,156.4,98.6,156.4z"/>
		<path style="fill:#F1F2F2;" d="M16.9,159H96v112.1H16.9V159z"/>
		<path d="M31.7,217.7v5.2h-5.2v-5.2H31.7 M35.7,213.7H22.5v13.2h13.2V213.7z M48.4,173.6v18.6H29.8v-18.6H48.4 M56.4,165.6H21.8
			v34.6h34.6C56.4,200.2,56.4,165.6,56.4,165.6z M31.7,237.5v5.2h-5.2v-5.2H31.7 M35.7,233.5H22.5v13.2h13.2V233.5z M31.7,257.3v5.2
			h-5.2v-5.2H31.7 M35.7,253.3H22.5v13.2h13.2V253.3z"/>
		<path style="fill:#5F5F61;" d="M30.9,227.1l-5.9-5.3l1.8-2l3.8,3.4c0.1-0.2,0.2-0.3,0.2-0.5c0.2-0.3,0.3-0.7,0.4-1.1
			c0.1-0.3,0.3-0.7,0.4-1c1.1-2.5,3.1-4.5,4.8-6.3l1.9,1.8c-1.6,1.7-3.3,3.4-4.3,5.5c-0.1,0.3-0.2,0.6-0.4,0.9
			c-0.2,0.4-0.3,0.8-0.5,1.2c-0.4,0.8-0.8,1.5-1.4,2.2L30.9,227.1L30.9,227.1z M27.6,246.9l-5.9-5.3l1.8-2l3.8,3.4
			c0.1-0.2,0.2-0.3,0.2-0.5c0.2-0.3,0.3-0.7,0.4-1.1c0.1-0.3,0.3-0.7,0.4-1c1.1-2.5,3.1-4.5,4.8-6.3l1.9,1.8
			c-1.6,1.7-3.3,3.4-4.3,5.5c-0.1,0.3-0.2,0.6-0.4,0.9c-0.2,0.4-0.3,0.8-0.5,1.2c-0.4,0.8-0.8,1.5-1.4,2.2L27.6,246.9L27.6,246.9z
			 M30,262.6l-5.9-5.3l1.8-2l3.8,3.4c0.1-0.2,0.2-0.3,0.2-0.5c0.2-0.3,0.3-0.7,0.4-1.1c0.1-0.3,0.3-0.7,0.4-1
			c1.1-2.5,3.1-4.5,4.8-6.3l1.9,1.8c-1.6,1.7-3.3,3.4-4.3,5.5c-0.1,0.3-0.2,0.6-0.4,0.9c-0.2,0.4-0.3,0.8-0.5,1.2
			c-0.4,0.8-0.8,1.5-1.4,2.2L30,262.6L30,262.6z"/>
		
			<linearGradient id="SVGID_26_" gradientUnits="userSpaceOnUse" x1="39.15" y1="220.885" x2="39.15" y2="189.585" gradientTransform="matrix(1 0 0 -1 0 403.8)">
			<stop  offset="0" style="stop-color:#FFFFFF"/>
			<stop  offset="1" style="stop-color:#000000"/>
		</linearGradient>
		<path style="fill:url(#SVGID_26_);" d="M23.5,167.3h31.3v31.3H23.5V167.3z"/>
		<path style="fill:#808285;" d="M47.3,190.2c-0.6,0-1-0.1-1.5-0.3c-1.3-0.6-3.8-1.9-4.6-3.4c2.6-1.8,4.5-6,4.5-8.9c0-3.9-3.1-7-7-7
			s-7,3.1-7,7c0,2.9,1.7,6.9,4.2,8.8c-0.7,1.6-3.6,3.1-4.9,3.7c-0.3,0.1-0.6,0.2-0.9,0.2c-1.4,0-2.6,1.2-2.6,2.6l-2.3,5.8h28
			l-3.1-5.4c-0.1-0.2-0.2-0.5-0.3-0.8C49.6,191.1,48.5,190.2,47.3,190.2z"/>
		<path d="M61.4,165.6h29.7v4.9H61.4V165.6z M61.4,175.5h29.7v4.9H61.4V175.5z M61.4,185.4h29.7v4.9H61.4V185.4z M61.4,195.3h29.7
			v4.9H61.4V195.3z M39.9,216.7H91v4.9H39.9V216.7z M39.9,236.5H91v4.9H39.9V236.5z M39.9,256.2H91v4.9H39.9V256.2z"/>
	</g>
</g>
</svg>
