<?xml version="1.0" encoding="utf-8"?>
<!-- Generator: Adobe Illustrator 19.2.1, SVG Export Plug-In . SVG Version: 6.00 Build 0)  -->
<svg version="1.1" id="Layer_1" xmlns="http://www.w3.org/2000/svg" xmlns:xlink="http://www.w3.org/1999/xlink" x="0px" y="0px"
	 viewBox="0 0 400 400" style="enable-background:new 0 0 400 400;" xml:space="preserve">
<g>
	<path style="fill:#2488C9;" d="M304.1,211.3c0.2-25.8-10.1-49.2-26.8-66.2c19.9-19.6,30.9-30.6,40-39.5
		c26.9,27.3,43.3,64.8,43.1,106.1c-0.2,27-7.5,52.3-20.1,74.1l17.3,10l-68.3,18.2l-18.4-68.2l20.6,11.9
		C299.5,243.9,304,228.1,304.1,211.3z"/>
	<path style="fill:#F48020;" d="M185.5,102.2c-43,0-79.4,29-90.3,68.6l-54.3-14.9c17.5-63.5,75.7-110,144.6-110V26l49.9,50l-49.9,50
		V102.2z"/>
	<path style="fill:#A9C77E;" d="M39.6,309L58,240.8l68.3,18.2l-20.6,11.9c16.1,27.8,46.1,46.7,80.6,46.9c8.6,0.1,17-1.1,24.9-3.2
		l14.2,54.4c-12.6,3.3-25.8,5.1-39.5,5c-55.2-0.3-103.2-30.4-129-75L39.6,309z"/>
	<polygon style="fill:#00ADEE;" points="127.8,184.5 167.5,206.8 127.8,241.6 	"/>
	<path style="fill:#F48020;" d="M195.3,212.4c-0.2,0-0.4-0.1-0.6-0.2l-66.8-37.1V165h134.9v10.1l-66.8,37.1
		C195.8,212.3,195.5,212.4,195.3,212.4z"/>
	<path style="fill:#00ADEE;" d="M134,247.7l41.4-36.5l17.2,9.1c0.8,0.5,1.8,1.2,2.8,1.2c1,0,1.9-0.8,2.8-1.2l17.2-9.1l41.4,36.5H134
		z"/>
	<polygon style="fill:#00ADEE;" points="223.1,206.8 262.8,184.5 262.8,241.6 	"/>
	<g>
		<path style="fill:#FFFFFF;" d="M192.1,160.2l-59,34.1l-6,3.5l6,3.5l59,34.1l6,3.5v-7v-18.2c19.7,9.1,36.5,26.1,39.3,40.5l2.1,10.5
			l5.4-9.3l17.2-29.6l1.3-2.3l-1.6-2.1c-0.3-0.4-6.9-9.3-18.5-18.1c-6.8-5.2-14-9.3-21.3-12.2c-7.8-3.1-15.8-4.8-23.8-5.1v-22.3v-7
			L192.1,160.2z"/>
		<g>
			<path style="fill:#EC1C24;" d="M194,163.8l-59,34.1l59,34.1v-24.2c23.4,8.8,44,28.7,47.3,45.8l17.2-29.6c0,0-25.8-34.8-64.4-33.7
				V163.8z"/>
		</g>
	</g>
</g>
</svg>
